<mxfile host="www.draw.io" modified="2020-01-07T05:45:30.138Z" agent="Mozilla/5.0 (Macintosh; Intel Mac OS X 10_14_6) AppleWebKit/537.36 (KHTML, like Gecko) Chrome/79.0.3945.88 Safari/537.36" etag="EK_kShYHWn-K_65nceeS" version="12.4.9" type="github">
  <diagram name="Page-1" id="e56a1550-8fbb-45ad-956c-1786394a9013">
    <mxGraphModel dx="2025" dy="547" grid="1" gridSize="10" guides="1" tooltips="1" connect="1" arrows="1" fold="1" page="1" pageScale="1" pageWidth="1100" pageHeight="850" background="#ffffff" math="0" shadow="0">
      <root>
        <mxCell id="0"/>
        <mxCell id="1" parent="0"/>
        <mxCell id="2e49270ec7c68f3f-8" value="Meal" style="swimlane;html=1;fontStyle=0;childLayout=stackLayout;horizontal=1;startSize=26;horizontalStack=0;resizeParent=1;resizeLast=0;collapsible=1;marginBottom=0;swimlaneFillColor=#ffffff;align=center;rounded=0;shadow=0;comic=0;labelBackgroundColor=none;strokeWidth=1;fontFamily=Verdana;fontSize=14;swimlaneLine=1;" parent="1" vertex="1">
          <mxGeometry x="400" y="220" width="160" height="636" as="geometry"/>
        </mxCell>
        <mxCell id="2e49270ec7c68f3f-9" value="IdMeal" style="shape=partialRectangle;top=0;left=0;right=0;bottom=1;html=1;align=left;verticalAlign=middle;fillColor=none;spacingLeft=34;spacingRight=4;whiteSpace=wrap;overflow=hidden;rotatable=0;points=[[0,0.5],[1,0.5]];portConstraint=eastwest;dropTarget=0;fontStyle=5;" parent="2e49270ec7c68f3f-8" vertex="1">
          <mxGeometry y="26" width="160" height="30" as="geometry"/>
        </mxCell>
        <mxCell id="2e49270ec7c68f3f-10" value="&lt;b&gt;PK&lt;/b&gt;" style="shape=partialRectangle;top=0;left=0;bottom=0;html=1;fillColor=none;align=left;verticalAlign=middle;spacingLeft=4;spacingRight=4;whiteSpace=wrap;overflow=hidden;rotatable=0;points=[];portConstraint=eastwest;part=1;" parent="2e49270ec7c68f3f-9" vertex="1" connectable="0">
          <mxGeometry width="30" height="30" as="geometry"/>
        </mxCell>
        <mxCell id="2e49270ec7c68f3f-13" value="Code" style="shape=partialRectangle;top=0;left=0;right=0;bottom=0;html=1;align=left;verticalAlign=top;fillColor=none;spacingLeft=34;spacingRight=4;whiteSpace=wrap;overflow=hidden;rotatable=0;points=[[0,0.5],[1,0.5]];portConstraint=eastwest;dropTarget=0;" parent="2e49270ec7c68f3f-8" vertex="1">
          <mxGeometry y="56" width="160" height="26" as="geometry"/>
        </mxCell>
        <mxCell id="2e49270ec7c68f3f-14" value="" style="shape=partialRectangle;top=0;left=0;bottom=0;html=1;fillColor=none;align=left;verticalAlign=top;spacingLeft=4;spacingRight=4;whiteSpace=wrap;overflow=hidden;rotatable=0;points=[];portConstraint=eastwest;part=1;" parent="2e49270ec7c68f3f-13" vertex="1" connectable="0">
          <mxGeometry width="30" height="26" as="geometry"/>
        </mxCell>
        <mxCell id="2e49270ec7c68f3f-11" value="NameEng" style="shape=partialRectangle;top=0;left=0;right=0;bottom=0;html=1;align=left;verticalAlign=top;fillColor=none;spacingLeft=34;spacingRight=4;whiteSpace=wrap;overflow=hidden;rotatable=0;points=[[0,0.5],[1,0.5]];portConstraint=eastwest;dropTarget=0;" parent="2e49270ec7c68f3f-8" vertex="1">
          <mxGeometry y="82" width="160" height="26" as="geometry"/>
        </mxCell>
        <mxCell id="2e49270ec7c68f3f-12" value="" style="shape=partialRectangle;top=0;left=0;bottom=0;html=1;fillColor=none;align=left;verticalAlign=top;spacingLeft=4;spacingRight=4;whiteSpace=wrap;overflow=hidden;rotatable=0;points=[];portConstraint=eastwest;part=1;" parent="2e49270ec7c68f3f-11" vertex="1" connectable="0">
          <mxGeometry width="30" height="26" as="geometry"/>
        </mxCell>
        <mxCell id="3Pjmh9iLADuukuUgpzBT-90" value="NameFr" style="shape=partialRectangle;top=0;left=0;right=0;bottom=0;html=1;align=left;verticalAlign=top;fillColor=none;spacingLeft=34;spacingRight=4;whiteSpace=wrap;overflow=hidden;rotatable=0;points=[[0,0.5],[1,0.5]];portConstraint=eastwest;dropTarget=0;" parent="2e49270ec7c68f3f-8" vertex="1">
          <mxGeometry y="108" width="160" height="26" as="geometry"/>
        </mxCell>
        <mxCell id="3Pjmh9iLADuukuUgpzBT-91" value="" style="shape=partialRectangle;top=0;left=0;bottom=0;html=1;fillColor=none;align=left;verticalAlign=top;spacingLeft=4;spacingRight=4;whiteSpace=wrap;overflow=hidden;rotatable=0;points=[];portConstraint=eastwest;part=1;" parent="3Pjmh9iLADuukuUgpzBT-90" vertex="1" connectable="0">
          <mxGeometry width="30" height="26" as="geometry"/>
        </mxCell>
        <mxCell id="3Pjmh9iLADuukuUgpzBT-104" value="IdTag" style="shape=partialRectangle;top=0;left=0;right=0;bottom=1;html=1;align=left;verticalAlign=middle;fillColor=none;spacingLeft=34;spacingRight=4;whiteSpace=wrap;overflow=hidden;rotatable=0;points=[[0,0.5],[1,0.5]];portConstraint=eastwest;dropTarget=0;fontStyle=5;" parent="2e49270ec7c68f3f-8" vertex="1">
          <mxGeometry y="134" width="160" height="30" as="geometry"/>
        </mxCell>
        <mxCell id="3Pjmh9iLADuukuUgpzBT-105" value="&lt;b&gt;FK&lt;/b&gt;" style="shape=partialRectangle;top=0;left=0;bottom=0;html=1;fillColor=none;align=left;verticalAlign=middle;spacingLeft=4;spacingRight=4;whiteSpace=wrap;overflow=hidden;rotatable=0;points=[];portConstraint=eastwest;part=1;" parent="3Pjmh9iLADuukuUgpzBT-104" vertex="1" connectable="0">
          <mxGeometry width="30" height="30" as="geometry"/>
        </mxCell>
        <mxCell id="3Pjmh9iLADuukuUgpzBT-236" value="DescriptionEng" style="shape=partialRectangle;top=0;left=0;right=0;bottom=0;align=left;verticalAlign=top;fillColor=none;spacingLeft=34;spacingRight=4;overflow=hidden;rotatable=0;points=[[0,0.5],[1,0.5]];portConstraint=eastwest;dropTarget=0;fontSize=12;" parent="2e49270ec7c68f3f-8" vertex="1">
          <mxGeometry y="164" width="160" height="26" as="geometry"/>
        </mxCell>
        <mxCell id="3Pjmh9iLADuukuUgpzBT-237" value="" style="shape=partialRectangle;top=0;left=0;bottom=0;fillColor=none;align=left;verticalAlign=top;spacingLeft=4;spacingRight=4;overflow=hidden;rotatable=0;points=[];portConstraint=eastwest;part=1;fontSize=12;" parent="3Pjmh9iLADuukuUgpzBT-236" vertex="1" connectable="0">
          <mxGeometry width="30" height="26" as="geometry"/>
        </mxCell>
        <mxCell id="3Pjmh9iLADuukuUgpzBT-238" value="DescriptionFr" style="shape=partialRectangle;top=0;left=0;right=0;bottom=0;align=left;verticalAlign=top;fillColor=none;spacingLeft=34;spacingRight=4;overflow=hidden;rotatable=0;points=[[0,0.5],[1,0.5]];portConstraint=eastwest;dropTarget=0;fontSize=12;" parent="2e49270ec7c68f3f-8" vertex="1">
          <mxGeometry y="190" width="160" height="26" as="geometry"/>
        </mxCell>
        <mxCell id="3Pjmh9iLADuukuUgpzBT-239" value="" style="shape=partialRectangle;top=0;left=0;bottom=0;fillColor=none;align=left;verticalAlign=top;spacingLeft=4;spacingRight=4;overflow=hidden;rotatable=0;points=[];portConstraint=eastwest;part=1;fontSize=12;" parent="3Pjmh9iLADuukuUgpzBT-238" vertex="1" connectable="0">
          <mxGeometry width="30" height="26" as="geometry"/>
        </mxCell>
        <mxCell id="3Pjmh9iLADuukuUgpzBT-193" value="IdCategory" style="shape=partialRectangle;top=0;left=0;right=0;bottom=1;align=left;verticalAlign=middle;fillColor=none;spacingLeft=34;spacingRight=4;overflow=hidden;rotatable=0;points=[[0,0.5],[1,0.5]];portConstraint=eastwest;dropTarget=0;fontStyle=5;fontSize=12;" parent="2e49270ec7c68f3f-8" vertex="1">
          <mxGeometry y="216" width="160" height="30" as="geometry"/>
        </mxCell>
        <mxCell id="3Pjmh9iLADuukuUgpzBT-194" value="FK" style="shape=partialRectangle;top=0;left=0;bottom=0;fillColor=none;align=left;verticalAlign=middle;spacingLeft=4;spacingRight=4;overflow=hidden;rotatable=0;points=[];portConstraint=eastwest;part=1;fontSize=12;fontStyle=1" parent="3Pjmh9iLADuukuUgpzBT-193" vertex="1" connectable="0">
          <mxGeometry width="30" height="30" as="geometry"/>
        </mxCell>
        <mxCell id="3Pjmh9iLADuukuUgpzBT-210" value="IdPhoto" style="shape=partialRectangle;top=0;left=0;right=0;bottom=1;align=left;verticalAlign=middle;fillColor=none;spacingLeft=34;spacingRight=4;overflow=hidden;rotatable=0;points=[[0,0.5],[1,0.5]];portConstraint=eastwest;dropTarget=0;fontStyle=5;fontSize=12;" parent="2e49270ec7c68f3f-8" vertex="1">
          <mxGeometry y="246" width="160" height="30" as="geometry"/>
        </mxCell>
        <mxCell id="3Pjmh9iLADuukuUgpzBT-211" value="FK" style="shape=partialRectangle;top=0;left=0;bottom=0;fillColor=none;align=left;verticalAlign=middle;spacingLeft=4;spacingRight=4;overflow=hidden;rotatable=0;points=[];portConstraint=eastwest;part=1;fontSize=12;fontStyle=1" parent="3Pjmh9iLADuukuUgpzBT-210" vertex="1" connectable="0">
          <mxGeometry width="30" height="30" as="geometry"/>
        </mxCell>
        <mxCell id="3Pjmh9iLADuukuUgpzBT-227" value="IdVideo" style="shape=partialRectangle;top=0;left=0;right=0;bottom=1;align=left;verticalAlign=middle;fillColor=none;spacingLeft=34;spacingRight=4;overflow=hidden;rotatable=0;points=[[0,0.5],[1,0.5]];portConstraint=eastwest;dropTarget=0;fontStyle=5;fontSize=12;" parent="2e49270ec7c68f3f-8" vertex="1">
          <mxGeometry y="276" width="160" height="30" as="geometry"/>
        </mxCell>
        <mxCell id="3Pjmh9iLADuukuUgpzBT-228" value="FK" style="shape=partialRectangle;top=0;left=0;bottom=0;fillColor=none;align=left;verticalAlign=middle;spacingLeft=4;spacingRight=4;overflow=hidden;rotatable=0;points=[];portConstraint=eastwest;part=1;fontSize=12;fontStyle=1" parent="3Pjmh9iLADuukuUgpzBT-227" vertex="1" connectable="0">
          <mxGeometry width="30" height="30" as="geometry"/>
        </mxCell>
        <mxCell id="3Pjmh9iLADuukuUgpzBT-229" value="Nutrition" style="shape=partialRectangle;top=0;left=0;right=0;bottom=0;html=1;align=left;verticalAlign=top;fillColor=none;spacingLeft=34;spacingRight=4;whiteSpace=wrap;overflow=hidden;rotatable=0;points=[[0,0.5],[1,0.5]];portConstraint=eastwest;dropTarget=0;fontStyle=1" parent="2e49270ec7c68f3f-8" vertex="1">
          <mxGeometry y="306" width="160" height="26" as="geometry"/>
        </mxCell>
        <mxCell id="3Pjmh9iLADuukuUgpzBT-230" value="FK" style="shape=partialRectangle;top=0;left=0;bottom=0;html=1;fillColor=none;align=left;verticalAlign=top;spacingLeft=4;spacingRight=4;whiteSpace=wrap;overflow=hidden;rotatable=0;points=[];portConstraint=eastwest;part=1;fontStyle=1" parent="3Pjmh9iLADuukuUgpzBT-229" vertex="1" connectable="0">
          <mxGeometry width="30" height="26" as="geometry"/>
        </mxCell>
        <mxCell id="2e49270ec7c68f3f-17" value="" style="shape=partialRectangle;top=0;left=0;right=0;bottom=0;html=1;align=left;verticalAlign=top;fillColor=none;spacingLeft=34;spacingRight=4;whiteSpace=wrap;overflow=hidden;rotatable=0;points=[[0,0.5],[1,0.5]];portConstraint=eastwest;dropTarget=0;" parent="2e49270ec7c68f3f-8" vertex="1">
          <mxGeometry y="332" width="160" height="10" as="geometry"/>
        </mxCell>
        <mxCell id="2e49270ec7c68f3f-18" value="" style="shape=partialRectangle;top=0;left=0;bottom=0;html=1;fillColor=none;align=left;verticalAlign=top;spacingLeft=4;spacingRight=4;whiteSpace=wrap;overflow=hidden;rotatable=0;points=[];portConstraint=eastwest;part=1;" parent="2e49270ec7c68f3f-17" vertex="1" connectable="0">
          <mxGeometry width="30" height="10" as="geometry"/>
        </mxCell>
        <mxCell id="hB2kX-DM1b2XkG8bsofA-88" value="Method" style="shape=partialRectangle;top=0;left=0;right=0;bottom=0;html=1;align=left;verticalAlign=top;fillColor=none;spacingLeft=34;spacingRight=4;whiteSpace=wrap;overflow=hidden;rotatable=0;points=[[0,0.5],[1,0.5]];portConstraint=eastwest;dropTarget=0;fontStyle=0" vertex="1" parent="2e49270ec7c68f3f-8">
          <mxGeometry y="342" width="160" height="26" as="geometry"/>
        </mxCell>
        <mxCell id="hB2kX-DM1b2XkG8bsofA-89" value="" style="shape=partialRectangle;top=0;left=0;bottom=0;html=1;fillColor=none;align=left;verticalAlign=top;spacingLeft=4;spacingRight=4;whiteSpace=wrap;overflow=hidden;rotatable=0;points=[];portConstraint=eastwest;part=1;fontStyle=1" vertex="1" connectable="0" parent="hB2kX-DM1b2XkG8bsofA-88">
          <mxGeometry width="30" height="26" as="geometry"/>
        </mxCell>
        <mxCell id="3Pjmh9iLADuukuUgpzBT-329" value="CookingTime" style="shape=partialRectangle;top=0;left=0;right=0;bottom=0;html=1;align=left;verticalAlign=top;fillColor=none;spacingLeft=34;spacingRight=4;whiteSpace=wrap;overflow=hidden;rotatable=0;points=[[0,0.5],[1,0.5]];portConstraint=eastwest;dropTarget=0;fontStyle=0" parent="2e49270ec7c68f3f-8" vertex="1">
          <mxGeometry y="368" width="160" height="26" as="geometry"/>
        </mxCell>
        <mxCell id="3Pjmh9iLADuukuUgpzBT-330" value="" style="shape=partialRectangle;top=0;left=0;bottom=0;html=1;fillColor=none;align=left;verticalAlign=top;spacingLeft=4;spacingRight=4;whiteSpace=wrap;overflow=hidden;rotatable=0;points=[];portConstraint=eastwest;part=1;fontStyle=1" parent="3Pjmh9iLADuukuUgpzBT-329" vertex="1" connectable="0">
          <mxGeometry width="30" height="26" as="geometry"/>
        </mxCell>
        <mxCell id="3Pjmh9iLADuukuUgpzBT-331" value="Serves" style="shape=partialRectangle;top=0;left=0;right=0;bottom=0;html=1;align=left;verticalAlign=top;fillColor=none;spacingLeft=34;spacingRight=4;whiteSpace=wrap;overflow=hidden;rotatable=0;points=[[0,0.5],[1,0.5]];portConstraint=eastwest;dropTarget=0;fontStyle=0" parent="2e49270ec7c68f3f-8" vertex="1">
          <mxGeometry y="394" width="160" height="26" as="geometry"/>
        </mxCell>
        <mxCell id="3Pjmh9iLADuukuUgpzBT-332" value="" style="shape=partialRectangle;top=0;left=0;bottom=0;html=1;fillColor=none;align=left;verticalAlign=top;spacingLeft=4;spacingRight=4;whiteSpace=wrap;overflow=hidden;rotatable=0;points=[];portConstraint=eastwest;part=1;fontStyle=1" parent="3Pjmh9iLADuukuUgpzBT-331" vertex="1" connectable="0">
          <mxGeometry width="30" height="26" as="geometry"/>
        </mxCell>
        <mxCell id="hB2kX-DM1b2XkG8bsofA-84" value="TotalCost" style="shape=partialRectangle;top=0;left=0;right=0;bottom=0;html=1;align=left;verticalAlign=top;fillColor=none;spacingLeft=34;spacingRight=4;whiteSpace=wrap;overflow=hidden;rotatable=0;points=[[0,0.5],[1,0.5]];portConstraint=eastwest;dropTarget=0;fontStyle=0" vertex="1" parent="2e49270ec7c68f3f-8">
          <mxGeometry y="420" width="160" height="26" as="geometry"/>
        </mxCell>
        <mxCell id="hB2kX-DM1b2XkG8bsofA-85" value="" style="shape=partialRectangle;top=0;left=0;bottom=0;html=1;fillColor=none;align=left;verticalAlign=top;spacingLeft=4;spacingRight=4;whiteSpace=wrap;overflow=hidden;rotatable=0;points=[];portConstraint=eastwest;part=1;fontStyle=1" vertex="1" connectable="0" parent="hB2kX-DM1b2XkG8bsofA-84">
          <mxGeometry width="30" height="26" as="geometry"/>
        </mxCell>
        <mxCell id="hB2kX-DM1b2XkG8bsofA-86" value="PortionCost" style="shape=partialRectangle;top=0;left=0;right=0;bottom=0;html=1;align=left;verticalAlign=top;fillColor=none;spacingLeft=34;spacingRight=4;whiteSpace=wrap;overflow=hidden;rotatable=0;points=[[0,0.5],[1,0.5]];portConstraint=eastwest;dropTarget=0;fontStyle=0" vertex="1" parent="2e49270ec7c68f3f-8">
          <mxGeometry y="446" width="160" height="26" as="geometry"/>
        </mxCell>
        <mxCell id="hB2kX-DM1b2XkG8bsofA-87" value="" style="shape=partialRectangle;top=0;left=0;bottom=0;html=1;fillColor=none;align=left;verticalAlign=top;spacingLeft=4;spacingRight=4;whiteSpace=wrap;overflow=hidden;rotatable=0;points=[];portConstraint=eastwest;part=1;fontStyle=1" vertex="1" connectable="0" parent="hB2kX-DM1b2XkG8bsofA-86">
          <mxGeometry width="30" height="26" as="geometry"/>
        </mxCell>
        <mxCell id="3Pjmh9iLADuukuUgpzBT-333" value="Tips" style="shape=partialRectangle;top=0;left=0;right=0;bottom=0;html=1;align=left;verticalAlign=top;fillColor=none;spacingLeft=34;spacingRight=4;whiteSpace=wrap;overflow=hidden;rotatable=0;points=[[0,0.5],[1,0.5]];portConstraint=eastwest;dropTarget=0;fontStyle=0" parent="2e49270ec7c68f3f-8" vertex="1">
          <mxGeometry y="472" width="160" height="26" as="geometry"/>
        </mxCell>
        <mxCell id="3Pjmh9iLADuukuUgpzBT-334" value="" style="shape=partialRectangle;top=0;left=0;bottom=0;html=1;fillColor=none;align=left;verticalAlign=top;spacingLeft=4;spacingRight=4;whiteSpace=wrap;overflow=hidden;rotatable=0;points=[];portConstraint=eastwest;part=1;fontStyle=1" parent="3Pjmh9iLADuukuUgpzBT-333" vertex="1" connectable="0">
          <mxGeometry width="30" height="26" as="geometry"/>
        </mxCell>
        <mxCell id="hB2kX-DM1b2XkG8bsofA-7" value="UpdatedDate" style="shape=partialRectangle;top=0;left=0;right=0;bottom=0;html=1;align=left;verticalAlign=top;fillColor=none;spacingLeft=34;spacingRight=4;whiteSpace=wrap;overflow=hidden;rotatable=0;points=[[0,0.5],[1,0.5]];portConstraint=eastwest;dropTarget=0;" vertex="1" parent="2e49270ec7c68f3f-8">
          <mxGeometry y="498" width="160" height="26" as="geometry"/>
        </mxCell>
        <mxCell id="hB2kX-DM1b2XkG8bsofA-8" value="" style="shape=partialRectangle;top=0;left=0;bottom=0;html=1;fillColor=none;align=left;verticalAlign=top;spacingLeft=4;spacingRight=4;whiteSpace=wrap;overflow=hidden;rotatable=0;points=[];portConstraint=eastwest;part=1;" vertex="1" connectable="0" parent="hB2kX-DM1b2XkG8bsofA-7">
          <mxGeometry width="30" height="26" as="geometry"/>
        </mxCell>
        <mxCell id="hB2kX-DM1b2XkG8bsofA-5" value="CreatedDate" style="shape=partialRectangle;top=0;left=0;right=0;bottom=0;html=1;align=left;verticalAlign=top;fillColor=none;spacingLeft=34;spacingRight=4;whiteSpace=wrap;overflow=hidden;rotatable=0;points=[[0,0.5],[1,0.5]];portConstraint=eastwest;dropTarget=0;" vertex="1" parent="2e49270ec7c68f3f-8">
          <mxGeometry y="524" width="160" height="30" as="geometry"/>
        </mxCell>
        <mxCell id="hB2kX-DM1b2XkG8bsofA-6" value="" style="shape=partialRectangle;top=0;left=0;bottom=0;html=1;fillColor=none;align=left;verticalAlign=top;spacingLeft=4;spacingRight=4;whiteSpace=wrap;overflow=hidden;rotatable=0;points=[];portConstraint=eastwest;part=1;" vertex="1" connectable="0" parent="hB2kX-DM1b2XkG8bsofA-5">
          <mxGeometry width="30" height="29.999999999999996" as="geometry"/>
        </mxCell>
        <mxCell id="hB2kX-DM1b2XkG8bsofA-114" value="Ingredien" style="shape=partialRectangle;top=0;left=0;right=0;bottom=1;align=left;verticalAlign=middle;fillColor=none;spacingLeft=34;spacingRight=4;overflow=hidden;rotatable=0;points=[[0,0.5],[1,0.5]];portConstraint=eastwest;dropTarget=0;fontStyle=5;fontSize=12;" vertex="1" parent="2e49270ec7c68f3f-8">
          <mxGeometry y="554" width="160" height="30" as="geometry"/>
        </mxCell>
        <mxCell id="hB2kX-DM1b2XkG8bsofA-115" value="FK" style="shape=partialRectangle;top=0;left=0;bottom=0;fillColor=none;align=left;verticalAlign=middle;spacingLeft=4;spacingRight=4;overflow=hidden;rotatable=0;points=[];portConstraint=eastwest;part=1;fontSize=12;fontStyle=1" vertex="1" connectable="0" parent="hB2kX-DM1b2XkG8bsofA-114">
          <mxGeometry width="30" height="30" as="geometry"/>
        </mxCell>
        <mxCell id="hB2kX-DM1b2XkG8bsofA-148" value="Diet" style="shape=partialRectangle;top=0;left=0;right=0;bottom=0;html=1;align=left;verticalAlign=top;fillColor=none;spacingLeft=34;spacingRight=4;whiteSpace=wrap;overflow=hidden;rotatable=0;points=[[0,0.5],[1,0.5]];portConstraint=eastwest;dropTarget=0;fontStyle=1" vertex="1" parent="2e49270ec7c68f3f-8">
          <mxGeometry y="584" width="160" height="26" as="geometry"/>
        </mxCell>
        <mxCell id="hB2kX-DM1b2XkG8bsofA-149" value="FK" style="shape=partialRectangle;top=0;left=0;bottom=0;html=1;fillColor=none;align=left;verticalAlign=top;spacingLeft=4;spacingRight=4;whiteSpace=wrap;overflow=hidden;rotatable=0;points=[];portConstraint=eastwest;part=1;fontStyle=1" vertex="1" connectable="0" parent="hB2kX-DM1b2XkG8bsofA-148">
          <mxGeometry width="30" height="26" as="geometry"/>
        </mxCell>
        <mxCell id="2e49270ec7c68f3f-19" value="Product" style="swimlane;html=1;fontStyle=0;childLayout=stackLayout;horizontal=1;startSize=26;fillColor=#ffe6cc;horizontalStack=0;resizeParent=1;resizeLast=0;collapsible=1;marginBottom=0;swimlaneFillColor=#ffffff;align=center;rounded=0;shadow=0;comic=0;labelBackgroundColor=none;strokeWidth=1;fontFamily=Verdana;fontSize=14;strokeColor=#d79b00;" parent="1" vertex="1">
          <mxGeometry x="-290" y="42" width="160" height="472" as="geometry"/>
        </mxCell>
        <mxCell id="2e49270ec7c68f3f-20" value="IdProduct" style="shape=partialRectangle;top=0;left=0;right=0;bottom=1;html=1;align=left;verticalAlign=middle;fillColor=none;spacingLeft=34;spacingRight=4;whiteSpace=wrap;overflow=hidden;rotatable=0;points=[[0,0.5],[1,0.5]];portConstraint=eastwest;dropTarget=0;fontStyle=5;" parent="2e49270ec7c68f3f-19" vertex="1">
          <mxGeometry y="26" width="160" height="30" as="geometry"/>
        </mxCell>
        <mxCell id="2e49270ec7c68f3f-21" value="PK" style="shape=partialRectangle;top=0;left=0;bottom=0;html=1;fillColor=none;align=left;verticalAlign=middle;spacingLeft=4;spacingRight=4;whiteSpace=wrap;overflow=hidden;rotatable=0;points=[];portConstraint=eastwest;part=1;" parent="2e49270ec7c68f3f-20" vertex="1" connectable="0">
          <mxGeometry width="30" height="30" as="geometry"/>
        </mxCell>
        <mxCell id="2e49270ec7c68f3f-26" value="IdUnit" style="shape=partialRectangle;top=0;left=0;right=0;bottom=0;html=1;align=left;verticalAlign=top;fillColor=none;spacingLeft=34;spacingRight=4;whiteSpace=wrap;overflow=hidden;rotatable=0;points=[[0,0.5],[1,0.5]];portConstraint=eastwest;dropTarget=0;fontStyle=1" parent="2e49270ec7c68f3f-19" vertex="1">
          <mxGeometry y="56" width="160" height="26" as="geometry"/>
        </mxCell>
        <mxCell id="2e49270ec7c68f3f-27" value="FK" style="shape=partialRectangle;top=0;left=0;bottom=0;html=1;fillColor=none;align=left;verticalAlign=top;spacingLeft=4;spacingRight=4;whiteSpace=wrap;overflow=hidden;rotatable=0;points=[];portConstraint=eastwest;part=1;fontStyle=1" parent="2e49270ec7c68f3f-26" vertex="1" connectable="0">
          <mxGeometry width="30" height="26" as="geometry"/>
        </mxCell>
        <mxCell id="3Pjmh9iLADuukuUgpzBT-77" value="IdUser" style="shape=partialRectangle;top=0;left=0;right=0;bottom=1;align=left;verticalAlign=middle;fillColor=none;spacingLeft=34;spacingRight=4;overflow=hidden;rotatable=0;points=[[0,0.5],[1,0.5]];portConstraint=eastwest;dropTarget=0;fontStyle=5;fontSize=12;" parent="2e49270ec7c68f3f-19" vertex="1">
          <mxGeometry y="82" width="160" height="30" as="geometry"/>
        </mxCell>
        <mxCell id="3Pjmh9iLADuukuUgpzBT-78" value="FK" style="shape=partialRectangle;top=0;left=0;bottom=0;fillColor=none;align=left;verticalAlign=middle;spacingLeft=4;spacingRight=4;overflow=hidden;rotatable=0;points=[];portConstraint=eastwest;part=1;fontSize=12;fontStyle=1" parent="3Pjmh9iLADuukuUgpzBT-77" vertex="1" connectable="0">
          <mxGeometry width="30" height="30" as="geometry"/>
        </mxCell>
        <mxCell id="2e49270ec7c68f3f-22" value="Code" style="shape=partialRectangle;top=0;left=0;right=0;bottom=0;html=1;align=left;verticalAlign=top;fillColor=none;spacingLeft=34;spacingRight=4;whiteSpace=wrap;overflow=hidden;rotatable=0;points=[[0,0.5],[1,0.5]];portConstraint=eastwest;dropTarget=0;" parent="2e49270ec7c68f3f-19" vertex="1">
          <mxGeometry y="112" width="160" height="26" as="geometry"/>
        </mxCell>
        <mxCell id="2e49270ec7c68f3f-23" value="" style="shape=partialRectangle;top=0;left=0;bottom=0;html=1;fillColor=none;align=left;verticalAlign=top;spacingLeft=4;spacingRight=4;whiteSpace=wrap;overflow=hidden;rotatable=0;points=[];portConstraint=eastwest;part=1;" parent="2e49270ec7c68f3f-22" vertex="1" connectable="0">
          <mxGeometry width="30" height="26" as="geometry"/>
        </mxCell>
        <mxCell id="3Pjmh9iLADuukuUgpzBT-45" value="ExCode" style="shape=partialRectangle;top=0;left=0;right=0;bottom=0;html=1;align=left;verticalAlign=top;fillColor=none;spacingLeft=34;spacingRight=4;whiteSpace=wrap;overflow=hidden;rotatable=0;points=[[0,0.5],[1,0.5]];portConstraint=eastwest;dropTarget=0;" parent="2e49270ec7c68f3f-19" vertex="1">
          <mxGeometry y="138" width="160" height="26" as="geometry"/>
        </mxCell>
        <mxCell id="3Pjmh9iLADuukuUgpzBT-46" value="" style="shape=partialRectangle;top=0;left=0;bottom=0;html=1;fillColor=none;align=left;verticalAlign=top;spacingLeft=4;spacingRight=4;whiteSpace=wrap;overflow=hidden;rotatable=0;points=[];portConstraint=eastwest;part=1;" parent="3Pjmh9iLADuukuUgpzBT-45" vertex="1" connectable="0">
          <mxGeometry width="30" height="26" as="geometry"/>
        </mxCell>
        <mxCell id="2e49270ec7c68f3f-24" value="NameEng" style="shape=partialRectangle;top=0;left=0;right=0;bottom=0;html=1;align=left;verticalAlign=top;fillColor=none;spacingLeft=34;spacingRight=4;whiteSpace=wrap;overflow=hidden;rotatable=0;points=[[0,0.5],[1,0.5]];portConstraint=eastwest;dropTarget=0;" parent="2e49270ec7c68f3f-19" vertex="1">
          <mxGeometry y="164" width="160" height="26" as="geometry"/>
        </mxCell>
        <mxCell id="2e49270ec7c68f3f-25" value="" style="shape=partialRectangle;top=0;left=0;bottom=0;html=1;fillColor=none;align=left;verticalAlign=top;spacingLeft=4;spacingRight=4;whiteSpace=wrap;overflow=hidden;rotatable=0;points=[];portConstraint=eastwest;part=1;" parent="2e49270ec7c68f3f-24" vertex="1" connectable="0">
          <mxGeometry width="30" height="26" as="geometry"/>
        </mxCell>
        <mxCell id="3Pjmh9iLADuukuUgpzBT-51" value="NameFr" style="shape=partialRectangle;top=0;left=0;right=0;bottom=0;html=1;align=left;verticalAlign=top;fillColor=none;spacingLeft=34;spacingRight=4;whiteSpace=wrap;overflow=hidden;rotatable=0;points=[[0,0.5],[1,0.5]];portConstraint=eastwest;dropTarget=0;" parent="2e49270ec7c68f3f-19" vertex="1">
          <mxGeometry y="190" width="160" height="26" as="geometry"/>
        </mxCell>
        <mxCell id="3Pjmh9iLADuukuUgpzBT-52" value="" style="shape=partialRectangle;top=0;left=0;bottom=0;html=1;fillColor=none;align=left;verticalAlign=top;spacingLeft=4;spacingRight=4;whiteSpace=wrap;overflow=hidden;rotatable=0;points=[];portConstraint=eastwest;part=1;" parent="3Pjmh9iLADuukuUgpzBT-51" vertex="1" connectable="0">
          <mxGeometry width="30" height="26" as="geometry"/>
        </mxCell>
        <mxCell id="3Pjmh9iLADuukuUgpzBT-47" value="DescriptionEng" style="shape=partialRectangle;top=0;left=0;right=0;bottom=0;html=1;align=left;verticalAlign=top;fillColor=none;spacingLeft=34;spacingRight=4;whiteSpace=wrap;overflow=hidden;rotatable=0;points=[[0,0.5],[1,0.5]];portConstraint=eastwest;dropTarget=0;" parent="2e49270ec7c68f3f-19" vertex="1">
          <mxGeometry y="216" width="160" height="26" as="geometry"/>
        </mxCell>
        <mxCell id="3Pjmh9iLADuukuUgpzBT-48" value="" style="shape=partialRectangle;top=0;left=0;bottom=0;html=1;fillColor=none;align=left;verticalAlign=top;spacingLeft=4;spacingRight=4;whiteSpace=wrap;overflow=hidden;rotatable=0;points=[];portConstraint=eastwest;part=1;" parent="3Pjmh9iLADuukuUgpzBT-47" vertex="1" connectable="0">
          <mxGeometry width="30" height="26" as="geometry"/>
        </mxCell>
        <mxCell id="3Pjmh9iLADuukuUgpzBT-53" value="DescriptionFr" style="shape=partialRectangle;top=0;left=0;right=0;bottom=0;html=1;align=left;verticalAlign=top;fillColor=none;spacingLeft=34;spacingRight=4;whiteSpace=wrap;overflow=hidden;rotatable=0;points=[[0,0.5],[1,0.5]];portConstraint=eastwest;dropTarget=0;" parent="2e49270ec7c68f3f-19" vertex="1">
          <mxGeometry y="242" width="160" height="26" as="geometry"/>
        </mxCell>
        <mxCell id="3Pjmh9iLADuukuUgpzBT-54" value="" style="shape=partialRectangle;top=0;left=0;bottom=0;html=1;fillColor=none;align=left;verticalAlign=top;spacingLeft=4;spacingRight=4;whiteSpace=wrap;overflow=hidden;rotatable=0;points=[];portConstraint=eastwest;part=1;" parent="3Pjmh9iLADuukuUgpzBT-53" vertex="1" connectable="0">
          <mxGeometry width="30" height="26" as="geometry"/>
        </mxCell>
        <mxCell id="2e49270ec7c68f3f-28" value="" style="shape=partialRectangle;top=0;left=0;right=0;bottom=0;html=1;align=left;verticalAlign=top;fillColor=none;spacingLeft=34;spacingRight=4;whiteSpace=wrap;overflow=hidden;rotatable=0;points=[[0,0.5],[1,0.5]];portConstraint=eastwest;dropTarget=0;" parent="2e49270ec7c68f3f-19" vertex="1">
          <mxGeometry y="268" width="160" height="10" as="geometry"/>
        </mxCell>
        <mxCell id="2e49270ec7c68f3f-29" value="" style="shape=partialRectangle;top=0;left=0;bottom=0;html=1;fillColor=none;align=left;verticalAlign=top;spacingLeft=4;spacingRight=4;whiteSpace=wrap;overflow=hidden;rotatable=0;points=[];portConstraint=eastwest;part=1;" parent="2e49270ec7c68f3f-28" vertex="1" connectable="0">
          <mxGeometry width="30" height="10" as="geometry"/>
        </mxCell>
        <mxCell id="3Pjmh9iLADuukuUgpzBT-9" value="Price" style="shape=partialRectangle;top=0;left=0;right=0;bottom=0;html=1;align=left;verticalAlign=top;fillColor=none;spacingLeft=34;spacingRight=4;whiteSpace=wrap;overflow=hidden;rotatable=0;points=[[0,0.5],[1,0.5]];portConstraint=eastwest;dropTarget=0;" parent="2e49270ec7c68f3f-19" vertex="1">
          <mxGeometry y="278" width="160" height="26" as="geometry"/>
        </mxCell>
        <mxCell id="3Pjmh9iLADuukuUgpzBT-10" value="" style="shape=partialRectangle;top=0;left=0;bottom=0;html=1;fillColor=none;align=left;verticalAlign=top;spacingLeft=4;spacingRight=4;whiteSpace=wrap;overflow=hidden;rotatable=0;points=[];portConstraint=eastwest;part=1;" parent="3Pjmh9iLADuukuUgpzBT-9" vertex="1" connectable="0">
          <mxGeometry width="30" height="26" as="geometry"/>
        </mxCell>
        <mxCell id="3Pjmh9iLADuukuUgpzBT-11" value="ExPrice" style="shape=partialRectangle;top=0;left=0;right=0;bottom=0;html=1;align=left;verticalAlign=top;fillColor=none;spacingLeft=34;spacingRight=4;whiteSpace=wrap;overflow=hidden;rotatable=0;points=[[0,0.5],[1,0.5]];portConstraint=eastwest;dropTarget=0;" parent="2e49270ec7c68f3f-19" vertex="1">
          <mxGeometry y="304" width="160" height="26" as="geometry"/>
        </mxCell>
        <mxCell id="3Pjmh9iLADuukuUgpzBT-12" value="" style="shape=partialRectangle;top=0;left=0;bottom=0;html=1;fillColor=none;align=left;verticalAlign=top;spacingLeft=4;spacingRight=4;whiteSpace=wrap;overflow=hidden;rotatable=0;points=[];portConstraint=eastwest;part=1;" parent="3Pjmh9iLADuukuUgpzBT-11" vertex="1" connectable="0">
          <mxGeometry width="30" height="26" as="geometry"/>
        </mxCell>
        <mxCell id="3Pjmh9iLADuukuUgpzBT-43" value="IsArchive" style="shape=partialRectangle;top=0;left=0;right=0;bottom=0;html=1;align=left;verticalAlign=top;fillColor=none;spacingLeft=34;spacingRight=4;whiteSpace=wrap;overflow=hidden;rotatable=0;points=[[0,0.5],[1,0.5]];portConstraint=eastwest;dropTarget=0;" parent="2e49270ec7c68f3f-19" vertex="1">
          <mxGeometry y="330" width="160" height="26" as="geometry"/>
        </mxCell>
        <mxCell id="3Pjmh9iLADuukuUgpzBT-44" value="" style="shape=partialRectangle;top=0;left=0;bottom=0;html=1;fillColor=none;align=left;verticalAlign=top;spacingLeft=4;spacingRight=4;whiteSpace=wrap;overflow=hidden;rotatable=0;points=[];portConstraint=eastwest;part=1;" parent="3Pjmh9iLADuukuUgpzBT-43" vertex="1" connectable="0">
          <mxGeometry width="30" height="26" as="geometry"/>
        </mxCell>
        <mxCell id="3Pjmh9iLADuukuUgpzBT-1" value="CreatedDate" style="shape=partialRectangle;top=0;left=0;right=0;bottom=0;html=1;align=left;verticalAlign=top;fillColor=none;spacingLeft=34;spacingRight=4;whiteSpace=wrap;overflow=hidden;rotatable=0;points=[[0,0.5],[1,0.5]];portConstraint=eastwest;dropTarget=0;" parent="2e49270ec7c68f3f-19" vertex="1">
          <mxGeometry y="356" width="160" height="30" as="geometry"/>
        </mxCell>
        <mxCell id="3Pjmh9iLADuukuUgpzBT-2" value="" style="shape=partialRectangle;top=0;left=0;bottom=0;html=1;fillColor=none;align=left;verticalAlign=top;spacingLeft=4;spacingRight=4;whiteSpace=wrap;overflow=hidden;rotatable=0;points=[];portConstraint=eastwest;part=1;" parent="3Pjmh9iLADuukuUgpzBT-1" vertex="1" connectable="0">
          <mxGeometry width="30" height="29.999999999999996" as="geometry"/>
        </mxCell>
        <mxCell id="3Pjmh9iLADuukuUgpzBT-62" value="UpdatedDate" style="shape=partialRectangle;top=0;left=0;right=0;bottom=0;html=1;align=left;verticalAlign=top;fillColor=none;spacingLeft=34;spacingRight=4;whiteSpace=wrap;overflow=hidden;rotatable=0;points=[[0,0.5],[1,0.5]];portConstraint=eastwest;dropTarget=0;" parent="2e49270ec7c68f3f-19" vertex="1">
          <mxGeometry y="386" width="160" height="26" as="geometry"/>
        </mxCell>
        <mxCell id="3Pjmh9iLADuukuUgpzBT-63" value="" style="shape=partialRectangle;top=0;left=0;bottom=0;html=1;fillColor=none;align=left;verticalAlign=top;spacingLeft=4;spacingRight=4;whiteSpace=wrap;overflow=hidden;rotatable=0;points=[];portConstraint=eastwest;part=1;" parent="3Pjmh9iLADuukuUgpzBT-62" vertex="1" connectable="0">
          <mxGeometry width="30" height="26" as="geometry"/>
        </mxCell>
        <mxCell id="hB2kX-DM1b2XkG8bsofA-25" value="IdNutritional" style="shape=partialRectangle;top=0;left=0;right=0;bottom=1;align=left;verticalAlign=middle;fillColor=none;spacingLeft=34;spacingRight=4;overflow=hidden;rotatable=0;points=[[0,0.5],[1,0.5]];portConstraint=eastwest;dropTarget=0;fontStyle=5;fontSize=12;" vertex="1" parent="2e49270ec7c68f3f-19">
          <mxGeometry y="412" width="160" height="30" as="geometry"/>
        </mxCell>
        <mxCell id="hB2kX-DM1b2XkG8bsofA-26" value="FK" style="shape=partialRectangle;top=0;left=0;bottom=0;fillColor=none;align=left;verticalAlign=middle;spacingLeft=4;spacingRight=4;overflow=hidden;rotatable=0;points=[];portConstraint=eastwest;part=1;fontSize=12;" vertex="1" connectable="0" parent="hB2kX-DM1b2XkG8bsofA-25">
          <mxGeometry width="30" height="30" as="geometry"/>
        </mxCell>
        <mxCell id="3Pjmh9iLADuukuUgpzBT-94" value="IdTag" style="shape=partialRectangle;top=0;left=0;right=0;bottom=1;html=1;align=left;verticalAlign=middle;fillColor=none;spacingLeft=34;spacingRight=4;whiteSpace=wrap;overflow=hidden;rotatable=0;points=[[0,0.5],[1,0.5]];portConstraint=eastwest;dropTarget=0;fontStyle=5;" parent="2e49270ec7c68f3f-19" vertex="1">
          <mxGeometry y="442" width="160" height="30" as="geometry"/>
        </mxCell>
        <mxCell id="3Pjmh9iLADuukuUgpzBT-95" value="FK" style="shape=partialRectangle;top=0;left=0;bottom=0;html=1;fillColor=none;align=left;verticalAlign=middle;spacingLeft=4;spacingRight=4;whiteSpace=wrap;overflow=hidden;rotatable=0;points=[];portConstraint=eastwest;part=1;" parent="3Pjmh9iLADuukuUgpzBT-94" vertex="1" connectable="0">
          <mxGeometry width="30" height="30" as="geometry"/>
        </mxCell>
        <mxCell id="2e49270ec7c68f3f-30" value="Tag" style="swimlane;html=1;fontStyle=0;childLayout=stackLayout;horizontal=1;startSize=26;fillColor=#e0e0e0;horizontalStack=0;resizeParent=1;resizeLast=0;collapsible=1;marginBottom=0;swimlaneFillColor=#ffffff;align=center;rounded=0;shadow=0;comic=0;labelBackgroundColor=none;strokeWidth=1;fontFamily=Verdana;fontSize=14" parent="1" vertex="1">
          <mxGeometry x="-100" y="840" width="160" height="276" as="geometry"/>
        </mxCell>
        <mxCell id="2e49270ec7c68f3f-31" value="IdTag" style="shape=partialRectangle;top=0;left=0;right=0;bottom=1;html=1;align=left;verticalAlign=middle;fillColor=none;spacingLeft=34;spacingRight=4;whiteSpace=wrap;overflow=hidden;rotatable=0;points=[[0,0.5],[1,0.5]];portConstraint=eastwest;dropTarget=0;fontStyle=5;" parent="2e49270ec7c68f3f-30" vertex="1">
          <mxGeometry y="26" width="160" height="30" as="geometry"/>
        </mxCell>
        <mxCell id="2e49270ec7c68f3f-32" value="PK" style="shape=partialRectangle;top=0;left=0;bottom=0;html=1;fillColor=none;align=left;verticalAlign=middle;spacingLeft=4;spacingRight=4;whiteSpace=wrap;overflow=hidden;rotatable=0;points=[];portConstraint=eastwest;part=1;" parent="2e49270ec7c68f3f-31" vertex="1" connectable="0">
          <mxGeometry width="30" height="30" as="geometry"/>
        </mxCell>
        <mxCell id="3Pjmh9iLADuukuUgpzBT-102" value="IdMeal" style="shape=partialRectangle;top=0;left=0;right=0;bottom=1;html=1;align=left;verticalAlign=middle;fillColor=none;spacingLeft=34;spacingRight=4;whiteSpace=wrap;overflow=hidden;rotatable=0;points=[[0,0.5],[1,0.5]];portConstraint=eastwest;dropTarget=0;fontStyle=5;" parent="2e49270ec7c68f3f-30" vertex="1">
          <mxGeometry y="56" width="160" height="30" as="geometry"/>
        </mxCell>
        <mxCell id="3Pjmh9iLADuukuUgpzBT-103" value="FK" style="shape=partialRectangle;top=0;left=0;bottom=0;html=1;fillColor=none;align=left;verticalAlign=middle;spacingLeft=4;spacingRight=4;whiteSpace=wrap;overflow=hidden;rotatable=0;points=[];portConstraint=eastwest;part=1;" parent="3Pjmh9iLADuukuUgpzBT-102" vertex="1" connectable="0">
          <mxGeometry width="30" height="30" as="geometry"/>
        </mxCell>
        <mxCell id="3Pjmh9iLADuukuUgpzBT-100" value="IdProduct" style="shape=partialRectangle;top=0;left=0;right=0;bottom=1;html=1;align=left;verticalAlign=middle;fillColor=none;spacingLeft=34;spacingRight=4;whiteSpace=wrap;overflow=hidden;rotatable=0;points=[[0,0.5],[1,0.5]];portConstraint=eastwest;dropTarget=0;fontStyle=5;" parent="2e49270ec7c68f3f-30" vertex="1">
          <mxGeometry y="86" width="160" height="30" as="geometry"/>
        </mxCell>
        <mxCell id="3Pjmh9iLADuukuUgpzBT-101" value="FK" style="shape=partialRectangle;top=0;left=0;bottom=0;html=1;fillColor=none;align=left;verticalAlign=middle;spacingLeft=4;spacingRight=4;whiteSpace=wrap;overflow=hidden;rotatable=0;points=[];portConstraint=eastwest;part=1;" parent="3Pjmh9iLADuukuUgpzBT-100" vertex="1" connectable="0">
          <mxGeometry width="30" height="30" as="geometry"/>
        </mxCell>
        <mxCell id="3Pjmh9iLADuukuUgpzBT-131" value="Code" style="shape=partialRectangle;top=0;left=0;right=0;bottom=0;html=1;align=left;verticalAlign=top;fillColor=none;spacingLeft=34;spacingRight=4;whiteSpace=wrap;overflow=hidden;rotatable=0;points=[[0,0.5],[1,0.5]];portConstraint=eastwest;dropTarget=0;" parent="2e49270ec7c68f3f-30" vertex="1">
          <mxGeometry y="116" width="160" height="26" as="geometry"/>
        </mxCell>
        <mxCell id="3Pjmh9iLADuukuUgpzBT-132" value="" style="shape=partialRectangle;top=0;left=0;bottom=0;html=1;fillColor=none;align=left;verticalAlign=top;spacingLeft=4;spacingRight=4;whiteSpace=wrap;overflow=hidden;rotatable=0;points=[];portConstraint=eastwest;part=1;" parent="3Pjmh9iLADuukuUgpzBT-131" vertex="1" connectable="0">
          <mxGeometry width="30" height="26" as="geometry"/>
        </mxCell>
        <mxCell id="2e49270ec7c68f3f-35" value="Code" style="shape=partialRectangle;top=0;left=0;right=0;bottom=0;html=1;align=left;verticalAlign=top;fillColor=none;spacingLeft=34;spacingRight=4;whiteSpace=wrap;overflow=hidden;rotatable=0;points=[[0,0.5],[1,0.5]];portConstraint=eastwest;dropTarget=0;" parent="2e49270ec7c68f3f-30" vertex="1">
          <mxGeometry y="142" width="160" height="26" as="geometry"/>
        </mxCell>
        <mxCell id="2e49270ec7c68f3f-36" value="" style="shape=partialRectangle;top=0;left=0;bottom=0;html=1;fillColor=none;align=left;verticalAlign=top;spacingLeft=4;spacingRight=4;whiteSpace=wrap;overflow=hidden;rotatable=0;points=[];portConstraint=eastwest;part=1;" parent="2e49270ec7c68f3f-35" vertex="1" connectable="0">
          <mxGeometry width="30" height="26" as="geometry"/>
        </mxCell>
        <mxCell id="2e49270ec7c68f3f-33" value="TagEng" style="shape=partialRectangle;top=0;left=0;right=0;bottom=0;html=1;align=left;verticalAlign=top;fillColor=none;spacingLeft=34;spacingRight=4;whiteSpace=wrap;overflow=hidden;rotatable=0;points=[[0,0.5],[1,0.5]];portConstraint=eastwest;dropTarget=0;" parent="2e49270ec7c68f3f-30" vertex="1">
          <mxGeometry y="168" width="160" height="26" as="geometry"/>
        </mxCell>
        <mxCell id="2e49270ec7c68f3f-34" value="" style="shape=partialRectangle;top=0;left=0;bottom=0;html=1;fillColor=none;align=left;verticalAlign=top;spacingLeft=4;spacingRight=4;whiteSpace=wrap;overflow=hidden;rotatable=0;points=[];portConstraint=eastwest;part=1;" parent="2e49270ec7c68f3f-33" vertex="1" connectable="0">
          <mxGeometry width="30" height="26" as="geometry"/>
        </mxCell>
        <mxCell id="2e49270ec7c68f3f-37" value="TagFr" style="shape=partialRectangle;top=0;left=0;right=0;bottom=0;html=1;align=left;verticalAlign=top;fillColor=none;spacingLeft=34;spacingRight=4;whiteSpace=wrap;overflow=hidden;rotatable=0;points=[[0,0.5],[1,0.5]];portConstraint=eastwest;dropTarget=0;" parent="2e49270ec7c68f3f-30" vertex="1">
          <mxGeometry y="194" width="160" height="26" as="geometry"/>
        </mxCell>
        <mxCell id="2e49270ec7c68f3f-38" value="" style="shape=partialRectangle;top=0;left=0;bottom=0;html=1;fillColor=none;align=left;verticalAlign=top;spacingLeft=4;spacingRight=4;whiteSpace=wrap;overflow=hidden;rotatable=0;points=[];portConstraint=eastwest;part=1;" parent="2e49270ec7c68f3f-37" vertex="1" connectable="0">
          <mxGeometry width="30" height="26" as="geometry"/>
        </mxCell>
        <mxCell id="3Pjmh9iLADuukuUgpzBT-96" value="CreatedDate" style="shape=partialRectangle;top=0;left=0;right=0;bottom=0;html=1;align=left;verticalAlign=top;fillColor=none;spacingLeft=34;spacingRight=4;whiteSpace=wrap;overflow=hidden;rotatable=0;points=[[0,0.5],[1,0.5]];portConstraint=eastwest;dropTarget=0;" parent="2e49270ec7c68f3f-30" vertex="1">
          <mxGeometry y="220" width="160" height="30" as="geometry"/>
        </mxCell>
        <mxCell id="3Pjmh9iLADuukuUgpzBT-97" value="" style="shape=partialRectangle;top=0;left=0;bottom=0;html=1;fillColor=none;align=left;verticalAlign=top;spacingLeft=4;spacingRight=4;whiteSpace=wrap;overflow=hidden;rotatable=0;points=[];portConstraint=eastwest;part=1;" parent="3Pjmh9iLADuukuUgpzBT-96" vertex="1" connectable="0">
          <mxGeometry width="30" height="29.999999999999996" as="geometry"/>
        </mxCell>
        <mxCell id="3Pjmh9iLADuukuUgpzBT-98" value="UpdatedDate" style="shape=partialRectangle;top=0;left=0;right=0;bottom=0;html=1;align=left;verticalAlign=top;fillColor=none;spacingLeft=34;spacingRight=4;whiteSpace=wrap;overflow=hidden;rotatable=0;points=[[0,0.5],[1,0.5]];portConstraint=eastwest;dropTarget=0;" parent="2e49270ec7c68f3f-30" vertex="1">
          <mxGeometry y="250" width="160" height="26" as="geometry"/>
        </mxCell>
        <mxCell id="3Pjmh9iLADuukuUgpzBT-99" value="" style="shape=partialRectangle;top=0;left=0;bottom=0;html=1;fillColor=none;align=left;verticalAlign=top;spacingLeft=4;spacingRight=4;whiteSpace=wrap;overflow=hidden;rotatable=0;points=[];portConstraint=eastwest;part=1;" parent="3Pjmh9iLADuukuUgpzBT-98" vertex="1" connectable="0">
          <mxGeometry width="30" height="26" as="geometry"/>
        </mxCell>
        <mxCell id="2e49270ec7c68f3f-57" value="" style="edgeStyle=orthogonalEdgeStyle;html=1;endArrow=ERmany;startArrow=ERmany;labelBackgroundColor=none;fontFamily=Verdana;fontSize=14;exitX=0;exitY=0.5;exitDx=0;exitDy=0;entryX=1;entryY=0.5;entryDx=0;entryDy=0;" parent="1" source="3Pjmh9iLADuukuUgpzBT-88" target="2e49270ec7c68f3f-20" edge="1">
          <mxGeometry width="100" height="100" relative="1" as="geometry">
            <mxPoint x="230" y="290" as="sourcePoint"/>
            <mxPoint x="420" y="155" as="targetPoint"/>
            <Array as="points">
              <mxPoint x="370" y="330"/>
              <mxPoint x="240" y="330"/>
              <mxPoint x="240" y="340"/>
              <mxPoint x="-20" y="340"/>
              <mxPoint x="-20" y="83"/>
            </Array>
          </mxGeometry>
        </mxCell>
        <mxCell id="2e49270ec7c68f3f-80" value="Unit" style="swimlane;html=1;fontStyle=0;childLayout=stackLayout;horizontal=1;startSize=26;fillColor=#ffe6cc;horizontalStack=0;resizeParent=1;resizeLast=0;collapsible=1;marginBottom=0;swimlaneFillColor=#ffffff;align=center;rounded=0;shadow=0;comic=0;labelBackgroundColor=none;strokeWidth=1;fontFamily=Verdana;fontSize=14;strokeColor=#d79b00;" parent="1" vertex="1">
          <mxGeometry x="160" y="42" width="160" height="258" as="geometry"/>
        </mxCell>
        <mxCell id="2e49270ec7c68f3f-81" value="IdUnit" style="shape=partialRectangle;top=0;left=0;right=0;bottom=1;html=1;align=left;verticalAlign=middle;fillColor=none;spacingLeft=34;spacingRight=4;whiteSpace=wrap;overflow=hidden;rotatable=0;points=[[0,0.5],[1,0.5]];portConstraint=eastwest;dropTarget=0;fontStyle=5;" parent="2e49270ec7c68f3f-80" vertex="1">
          <mxGeometry y="26" width="160" height="30" as="geometry"/>
        </mxCell>
        <mxCell id="2e49270ec7c68f3f-82" value="PK" style="shape=partialRectangle;top=0;left=0;bottom=0;html=1;fillColor=none;align=left;verticalAlign=middle;spacingLeft=4;spacingRight=4;whiteSpace=wrap;overflow=hidden;rotatable=0;points=[];portConstraint=eastwest;part=1;fontStyle=1" parent="2e49270ec7c68f3f-81" vertex="1" connectable="0">
          <mxGeometry width="30" height="30" as="geometry"/>
        </mxCell>
        <mxCell id="3Pjmh9iLADuukuUgpzBT-75" value="IdUser" style="shape=partialRectangle;top=0;left=0;right=0;bottom=1;align=left;verticalAlign=middle;fillColor=none;spacingLeft=34;spacingRight=4;overflow=hidden;rotatable=0;points=[[0,0.5],[1,0.5]];portConstraint=eastwest;dropTarget=0;fontStyle=5;fontSize=12;" parent="2e49270ec7c68f3f-80" vertex="1">
          <mxGeometry y="56" width="160" height="30" as="geometry"/>
        </mxCell>
        <mxCell id="3Pjmh9iLADuukuUgpzBT-76" value="FK" style="shape=partialRectangle;top=0;left=0;bottom=0;fillColor=none;align=left;verticalAlign=middle;spacingLeft=4;spacingRight=4;overflow=hidden;rotatable=0;points=[];portConstraint=eastwest;part=1;fontSize=12;fontStyle=1" parent="3Pjmh9iLADuukuUgpzBT-75" vertex="1" connectable="0">
          <mxGeometry width="30" height="30" as="geometry"/>
        </mxCell>
        <mxCell id="2e49270ec7c68f3f-83" value="Code" style="shape=partialRectangle;top=0;left=0;right=0;bottom=0;html=1;align=left;verticalAlign=top;fillColor=none;spacingLeft=34;spacingRight=4;whiteSpace=wrap;overflow=hidden;rotatable=0;points=[[0,0.5],[1,0.5]];portConstraint=eastwest;dropTarget=0;" parent="2e49270ec7c68f3f-80" vertex="1">
          <mxGeometry y="86" width="160" height="26" as="geometry"/>
        </mxCell>
        <mxCell id="2e49270ec7c68f3f-84" value="" style="shape=partialRectangle;top=0;left=0;bottom=0;html=1;fillColor=none;align=left;verticalAlign=top;spacingLeft=4;spacingRight=4;whiteSpace=wrap;overflow=hidden;rotatable=0;points=[];portConstraint=eastwest;part=1;" parent="2e49270ec7c68f3f-83" vertex="1" connectable="0">
          <mxGeometry width="30" height="26" as="geometry"/>
        </mxCell>
        <mxCell id="2e49270ec7c68f3f-85" value="NameEng" style="shape=partialRectangle;top=0;left=0;right=0;bottom=0;html=1;align=left;verticalAlign=top;fillColor=none;spacingLeft=34;spacingRight=4;whiteSpace=wrap;overflow=hidden;rotatable=0;points=[[0,0.5],[1,0.5]];portConstraint=eastwest;dropTarget=0;" parent="2e49270ec7c68f3f-80" vertex="1">
          <mxGeometry y="112" width="160" height="26" as="geometry"/>
        </mxCell>
        <mxCell id="2e49270ec7c68f3f-86" value="" style="shape=partialRectangle;top=0;left=0;bottom=0;html=1;fillColor=none;align=left;verticalAlign=top;spacingLeft=4;spacingRight=4;whiteSpace=wrap;overflow=hidden;rotatable=0;points=[];portConstraint=eastwest;part=1;" parent="2e49270ec7c68f3f-85" vertex="1" connectable="0">
          <mxGeometry width="30" height="26" as="geometry"/>
        </mxCell>
        <mxCell id="3Pjmh9iLADuukuUgpzBT-55" value="NameFr" style="shape=partialRectangle;top=0;left=0;right=0;bottom=0;html=1;align=left;verticalAlign=top;fillColor=none;spacingLeft=34;spacingRight=4;whiteSpace=wrap;overflow=hidden;rotatable=0;points=[[0,0.5],[1,0.5]];portConstraint=eastwest;dropTarget=0;" parent="2e49270ec7c68f3f-80" vertex="1">
          <mxGeometry y="138" width="160" height="26" as="geometry"/>
        </mxCell>
        <mxCell id="3Pjmh9iLADuukuUgpzBT-56" value="" style="shape=partialRectangle;top=0;left=0;bottom=0;html=1;fillColor=none;align=left;verticalAlign=top;spacingLeft=4;spacingRight=4;whiteSpace=wrap;overflow=hidden;rotatable=0;points=[];portConstraint=eastwest;part=1;" parent="3Pjmh9iLADuukuUgpzBT-55" vertex="1" connectable="0">
          <mxGeometry width="30" height="26" as="geometry"/>
        </mxCell>
        <mxCell id="2e49270ec7c68f3f-89" value="" style="shape=partialRectangle;top=0;left=0;right=0;bottom=0;html=1;align=left;verticalAlign=top;fillColor=none;spacingLeft=34;spacingRight=4;whiteSpace=wrap;overflow=hidden;rotatable=0;points=[[0,0.5],[1,0.5]];portConstraint=eastwest;dropTarget=0;" parent="2e49270ec7c68f3f-80" vertex="1">
          <mxGeometry y="164" width="160" height="10" as="geometry"/>
        </mxCell>
        <mxCell id="2e49270ec7c68f3f-90" value="" style="shape=partialRectangle;top=0;left=0;bottom=0;html=1;fillColor=none;align=left;verticalAlign=top;spacingLeft=4;spacingRight=4;whiteSpace=wrap;overflow=hidden;rotatable=0;points=[];portConstraint=eastwest;part=1;" parent="2e49270ec7c68f3f-89" vertex="1" connectable="0">
          <mxGeometry width="30" height="10" as="geometry"/>
        </mxCell>
        <mxCell id="3Pjmh9iLADuukuUgpzBT-60" value="CreatedDate" style="shape=partialRectangle;top=0;left=0;right=0;bottom=0;html=1;align=left;verticalAlign=top;fillColor=none;spacingLeft=34;spacingRight=4;whiteSpace=wrap;overflow=hidden;rotatable=0;points=[[0,0.5],[1,0.5]];portConstraint=eastwest;dropTarget=0;" parent="2e49270ec7c68f3f-80" vertex="1">
          <mxGeometry y="174" width="160" height="30" as="geometry"/>
        </mxCell>
        <mxCell id="3Pjmh9iLADuukuUgpzBT-61" value="" style="shape=partialRectangle;top=0;left=0;bottom=0;html=1;fillColor=none;align=left;verticalAlign=top;spacingLeft=4;spacingRight=4;whiteSpace=wrap;overflow=hidden;rotatable=0;points=[];portConstraint=eastwest;part=1;" parent="3Pjmh9iLADuukuUgpzBT-60" vertex="1" connectable="0">
          <mxGeometry width="30" height="29.999999999999996" as="geometry"/>
        </mxCell>
        <mxCell id="3Pjmh9iLADuukuUgpzBT-3" value="UpdatedDate" style="shape=partialRectangle;top=0;left=0;right=0;bottom=0;html=1;align=left;verticalAlign=top;fillColor=none;spacingLeft=34;spacingRight=4;whiteSpace=wrap;overflow=hidden;rotatable=0;points=[[0,0.5],[1,0.5]];portConstraint=eastwest;dropTarget=0;" parent="2e49270ec7c68f3f-80" vertex="1">
          <mxGeometry y="204" width="160" height="26" as="geometry"/>
        </mxCell>
        <mxCell id="3Pjmh9iLADuukuUgpzBT-4" value="" style="shape=partialRectangle;top=0;left=0;bottom=0;html=1;fillColor=none;align=left;verticalAlign=top;spacingLeft=4;spacingRight=4;whiteSpace=wrap;overflow=hidden;rotatable=0;points=[];portConstraint=eastwest;part=1;" parent="3Pjmh9iLADuukuUgpzBT-3" vertex="1" connectable="0">
          <mxGeometry width="30" height="26" as="geometry"/>
        </mxCell>
        <mxCell id="3Pjmh9iLADuukuUgpzBT-5" value="IsArchive" style="shape=partialRectangle;top=0;left=0;right=0;bottom=0;html=1;align=left;verticalAlign=top;fillColor=none;spacingLeft=34;spacingRight=4;whiteSpace=wrap;overflow=hidden;rotatable=0;points=[[0,0.5],[1,0.5]];portConstraint=eastwest;dropTarget=0;" parent="2e49270ec7c68f3f-80" vertex="1">
          <mxGeometry y="230" width="160" height="26" as="geometry"/>
        </mxCell>
        <mxCell id="3Pjmh9iLADuukuUgpzBT-6" value="" style="shape=partialRectangle;top=0;left=0;bottom=0;html=1;fillColor=none;align=left;verticalAlign=top;spacingLeft=4;spacingRight=4;whiteSpace=wrap;overflow=hidden;rotatable=0;points=[];portConstraint=eastwest;part=1;" parent="3Pjmh9iLADuukuUgpzBT-5" vertex="1" connectable="0">
          <mxGeometry width="30" height="26" as="geometry"/>
        </mxCell>
        <mxCell id="3Pjmh9iLADuukuUgpzBT-40" value="" style="edgeStyle=entityRelationEdgeStyle;fontSize=12;html=1;endArrow=ERmandOne;entryX=0;entryY=0.5;entryDx=0;entryDy=0;exitX=1;exitY=0.5;exitDx=0;exitDy=0;" parent="1" source="2e49270ec7c68f3f-20" target="2e49270ec7c68f3f-81" edge="1">
          <mxGeometry width="100" height="100" relative="1" as="geometry">
            <mxPoint x="-70" y="290" as="sourcePoint"/>
            <mxPoint x="30" y="190" as="targetPoint"/>
          </mxGeometry>
        </mxCell>
        <mxCell id="3Pjmh9iLADuukuUgpzBT-64" value="User" style="swimlane;fontStyle=0;childLayout=stackLayout;horizontal=1;startSize=21;fillColor=#dae8fc;horizontalStack=0;resizeParent=1;resizeParentMax=0;resizeLast=0;collapsible=1;marginBottom=0;swimlaneFillColor=#ffffff;align=center;fontSize=14;strokeColor=#6c8ebf;" parent="1" vertex="1">
          <mxGeometry x="-70" y="401" width="160" height="341" as="geometry"/>
        </mxCell>
        <mxCell id="3Pjmh9iLADuukuUgpzBT-65" value="IdUser" style="shape=partialRectangle;top=0;left=0;right=0;bottom=1;align=left;verticalAlign=middle;fillColor=none;spacingLeft=34;spacingRight=4;overflow=hidden;rotatable=0;points=[[0,0.5],[1,0.5]];portConstraint=eastwest;dropTarget=0;fontStyle=5;fontSize=12;" parent="3Pjmh9iLADuukuUgpzBT-64" vertex="1">
          <mxGeometry y="21" width="160" height="30" as="geometry"/>
        </mxCell>
        <mxCell id="3Pjmh9iLADuukuUgpzBT-66" value="PK" style="shape=partialRectangle;top=0;left=0;bottom=0;fillColor=none;align=left;verticalAlign=middle;spacingLeft=4;spacingRight=4;overflow=hidden;rotatable=0;points=[];portConstraint=eastwest;part=1;fontSize=12;" parent="3Pjmh9iLADuukuUgpzBT-65" vertex="1" connectable="0">
          <mxGeometry width="30" height="30" as="geometry"/>
        </mxCell>
        <mxCell id="3Pjmh9iLADuukuUgpzBT-169" value="IdRole" style="shape=partialRectangle;top=0;left=0;right=0;bottom=1;align=left;verticalAlign=middle;fillColor=none;spacingLeft=34;spacingRight=4;overflow=hidden;rotatable=0;points=[[0,0.5],[1,0.5]];portConstraint=eastwest;dropTarget=0;fontStyle=5;fontSize=12;" parent="3Pjmh9iLADuukuUgpzBT-64" vertex="1">
          <mxGeometry y="51" width="160" height="30" as="geometry"/>
        </mxCell>
        <mxCell id="3Pjmh9iLADuukuUgpzBT-170" value="FK" style="shape=partialRectangle;top=0;left=0;bottom=0;fillColor=none;align=left;verticalAlign=middle;spacingLeft=4;spacingRight=4;overflow=hidden;rotatable=0;points=[];portConstraint=eastwest;part=1;fontSize=12;" parent="3Pjmh9iLADuukuUgpzBT-169" vertex="1" connectable="0">
          <mxGeometry width="30" height="30" as="geometry"/>
        </mxCell>
        <mxCell id="3Pjmh9iLADuukuUgpzBT-372" value="IdPlan" style="shape=partialRectangle;top=0;left=0;right=0;bottom=1;html=1;align=left;verticalAlign=middle;fillColor=none;spacingLeft=34;spacingRight=4;whiteSpace=wrap;overflow=hidden;rotatable=0;points=[[0,0.5],[1,0.5]];portConstraint=eastwest;dropTarget=0;fontStyle=5;" parent="3Pjmh9iLADuukuUgpzBT-64" vertex="1">
          <mxGeometry y="81" width="160" height="30" as="geometry"/>
        </mxCell>
        <mxCell id="3Pjmh9iLADuukuUgpzBT-373" value="FK" style="shape=partialRectangle;top=0;left=0;bottom=0;html=1;fillColor=none;align=left;verticalAlign=middle;spacingLeft=4;spacingRight=4;whiteSpace=wrap;overflow=hidden;rotatable=0;points=[];portConstraint=eastwest;part=1;" parent="3Pjmh9iLADuukuUgpzBT-372" vertex="1" connectable="0">
          <mxGeometry width="30" height="30" as="geometry"/>
        </mxCell>
        <mxCell id="3Pjmh9iLADuukuUgpzBT-69" value="LastName" style="shape=partialRectangle;top=0;left=0;right=0;bottom=0;align=left;verticalAlign=top;fillColor=none;spacingLeft=34;spacingRight=4;overflow=hidden;rotatable=0;points=[[0,0.5],[1,0.5]];portConstraint=eastwest;dropTarget=0;fontSize=12;" parent="3Pjmh9iLADuukuUgpzBT-64" vertex="1">
          <mxGeometry y="111" width="160" height="26" as="geometry"/>
        </mxCell>
        <mxCell id="3Pjmh9iLADuukuUgpzBT-70" value="" style="shape=partialRectangle;top=0;left=0;bottom=0;fillColor=none;align=left;verticalAlign=top;spacingLeft=4;spacingRight=4;overflow=hidden;rotatable=0;points=[];portConstraint=eastwest;part=1;fontSize=12;" parent="3Pjmh9iLADuukuUgpzBT-69" vertex="1" connectable="0">
          <mxGeometry width="30" height="26" as="geometry"/>
        </mxCell>
        <mxCell id="3Pjmh9iLADuukuUgpzBT-71" value="FirstName" style="shape=partialRectangle;top=0;left=0;right=0;bottom=0;align=left;verticalAlign=top;fillColor=none;spacingLeft=34;spacingRight=4;overflow=hidden;rotatable=0;points=[[0,0.5],[1,0.5]];portConstraint=eastwest;dropTarget=0;fontSize=12;" parent="3Pjmh9iLADuukuUgpzBT-64" vertex="1">
          <mxGeometry y="137" width="160" height="26" as="geometry"/>
        </mxCell>
        <mxCell id="3Pjmh9iLADuukuUgpzBT-72" value="" style="shape=partialRectangle;top=0;left=0;bottom=0;fillColor=none;align=left;verticalAlign=top;spacingLeft=4;spacingRight=4;overflow=hidden;rotatable=0;points=[];portConstraint=eastwest;part=1;fontSize=12;" parent="3Pjmh9iLADuukuUgpzBT-71" vertex="1" connectable="0">
          <mxGeometry width="30" height="26" as="geometry"/>
        </mxCell>
        <mxCell id="hB2kX-DM1b2XkG8bsofA-17" value="IdMeal" style="shape=partialRectangle;top=0;left=0;right=0;bottom=1;align=left;verticalAlign=middle;fillColor=none;spacingLeft=34;spacingRight=4;overflow=hidden;rotatable=0;points=[[0,0.5],[1,0.5]];portConstraint=eastwest;dropTarget=0;fontStyle=5;fontSize=12;" vertex="1" parent="3Pjmh9iLADuukuUgpzBT-64">
          <mxGeometry y="163" width="160" height="30" as="geometry"/>
        </mxCell>
        <mxCell id="hB2kX-DM1b2XkG8bsofA-18" value="FK" style="shape=partialRectangle;top=0;left=0;bottom=0;fillColor=none;align=left;verticalAlign=middle;spacingLeft=4;spacingRight=4;overflow=hidden;rotatable=0;points=[];portConstraint=eastwest;part=1;fontSize=12;" vertex="1" connectable="0" parent="hB2kX-DM1b2XkG8bsofA-17">
          <mxGeometry width="30" height="30" as="geometry"/>
        </mxCell>
        <mxCell id="3Pjmh9iLADuukuUgpzBT-374" value="IdFav" style="shape=partialRectangle;top=0;left=0;right=0;bottom=1;align=left;verticalAlign=middle;fillColor=none;spacingLeft=34;spacingRight=4;overflow=hidden;rotatable=0;points=[[0,0.5],[1,0.5]];portConstraint=eastwest;dropTarget=0;fontStyle=5;fontSize=12;" parent="3Pjmh9iLADuukuUgpzBT-64" vertex="1">
          <mxGeometry y="193" width="160" height="30" as="geometry"/>
        </mxCell>
        <mxCell id="3Pjmh9iLADuukuUgpzBT-375" value="FK" style="shape=partialRectangle;top=0;left=0;bottom=0;fillColor=none;align=left;verticalAlign=middle;spacingLeft=4;spacingRight=4;overflow=hidden;rotatable=0;points=[];portConstraint=eastwest;part=1;fontSize=12;" parent="3Pjmh9iLADuukuUgpzBT-374" vertex="1" connectable="0">
          <mxGeometry width="30" height="30" as="geometry"/>
        </mxCell>
        <mxCell id="3Pjmh9iLADuukuUgpzBT-73" value="" style="shape=partialRectangle;top=0;left=0;right=0;bottom=0;align=left;verticalAlign=top;fillColor=none;spacingLeft=34;spacingRight=4;overflow=hidden;rotatable=0;points=[[0,0.5],[1,0.5]];portConstraint=eastwest;dropTarget=0;fontSize=12;" parent="3Pjmh9iLADuukuUgpzBT-64" vertex="1">
          <mxGeometry y="223" width="160" height="10" as="geometry"/>
        </mxCell>
        <mxCell id="3Pjmh9iLADuukuUgpzBT-74" value="" style="shape=partialRectangle;top=0;left=0;bottom=0;fillColor=none;align=left;verticalAlign=top;spacingLeft=4;spacingRight=4;overflow=hidden;rotatable=0;points=[];portConstraint=eastwest;part=1;fontSize=12;" parent="3Pjmh9iLADuukuUgpzBT-73" vertex="1" connectable="0">
          <mxGeometry width="30" height="10" as="geometry"/>
        </mxCell>
        <mxCell id="3Pjmh9iLADuukuUgpzBT-79" value="Role" style="shape=partialRectangle;top=0;left=0;right=0;bottom=0;align=left;verticalAlign=top;fillColor=none;spacingLeft=34;spacingRight=4;overflow=hidden;rotatable=0;points=[[0,0.5],[1,0.5]];portConstraint=eastwest;dropTarget=0;fontSize=12;" parent="3Pjmh9iLADuukuUgpzBT-64" vertex="1">
          <mxGeometry y="233" width="160" height="26" as="geometry"/>
        </mxCell>
        <mxCell id="3Pjmh9iLADuukuUgpzBT-80" value="" style="shape=partialRectangle;top=0;left=0;bottom=0;fillColor=none;align=left;verticalAlign=top;spacingLeft=4;spacingRight=4;overflow=hidden;rotatable=0;points=[];portConstraint=eastwest;part=1;fontSize=12;" parent="3Pjmh9iLADuukuUgpzBT-79" vertex="1" connectable="0">
          <mxGeometry width="30" height="26" as="geometry"/>
        </mxCell>
        <mxCell id="hB2kX-DM1b2XkG8bsofA-23" value="CreatedDate" style="shape=partialRectangle;top=0;left=0;right=0;bottom=0;html=1;align=left;verticalAlign=top;fillColor=none;spacingLeft=34;spacingRight=4;whiteSpace=wrap;overflow=hidden;rotatable=0;points=[[0,0.5],[1,0.5]];portConstraint=eastwest;dropTarget=0;" vertex="1" parent="3Pjmh9iLADuukuUgpzBT-64">
          <mxGeometry y="259" width="160" height="30" as="geometry"/>
        </mxCell>
        <mxCell id="hB2kX-DM1b2XkG8bsofA-24" value="" style="shape=partialRectangle;top=0;left=0;bottom=0;html=1;fillColor=none;align=left;verticalAlign=top;spacingLeft=4;spacingRight=4;whiteSpace=wrap;overflow=hidden;rotatable=0;points=[];portConstraint=eastwest;part=1;" vertex="1" connectable="0" parent="hB2kX-DM1b2XkG8bsofA-23">
          <mxGeometry width="30" height="29.999999999999996" as="geometry"/>
        </mxCell>
        <mxCell id="hB2kX-DM1b2XkG8bsofA-21" value="UpdatedDate" style="shape=partialRectangle;top=0;left=0;right=0;bottom=0;html=1;align=left;verticalAlign=top;fillColor=none;spacingLeft=34;spacingRight=4;whiteSpace=wrap;overflow=hidden;rotatable=0;points=[[0,0.5],[1,0.5]];portConstraint=eastwest;dropTarget=0;" vertex="1" parent="3Pjmh9iLADuukuUgpzBT-64">
          <mxGeometry y="289" width="160" height="26" as="geometry"/>
        </mxCell>
        <mxCell id="hB2kX-DM1b2XkG8bsofA-22" value="" style="shape=partialRectangle;top=0;left=0;bottom=0;html=1;fillColor=none;align=left;verticalAlign=top;spacingLeft=4;spacingRight=4;whiteSpace=wrap;overflow=hidden;rotatable=0;points=[];portConstraint=eastwest;part=1;" vertex="1" connectable="0" parent="hB2kX-DM1b2XkG8bsofA-21">
          <mxGeometry width="30" height="26" as="geometry"/>
        </mxCell>
        <mxCell id="3Pjmh9iLADuukuUgpzBT-378" value="" style="shape=partialRectangle;top=0;left=0;right=0;bottom=0;align=left;verticalAlign=top;fillColor=none;spacingLeft=34;spacingRight=4;overflow=hidden;rotatable=0;points=[[0,0.5],[1,0.5]];portConstraint=eastwest;dropTarget=0;fontSize=12;" parent="3Pjmh9iLADuukuUgpzBT-64" vertex="1">
          <mxGeometry y="315" width="160" height="26" as="geometry"/>
        </mxCell>
        <mxCell id="3Pjmh9iLADuukuUgpzBT-379" value="" style="shape=partialRectangle;top=0;left=0;bottom=0;fillColor=none;align=left;verticalAlign=top;spacingLeft=4;spacingRight=4;overflow=hidden;rotatable=0;points=[];portConstraint=eastwest;part=1;fontSize=12;" parent="3Pjmh9iLADuukuUgpzBT-378" vertex="1" connectable="0">
          <mxGeometry width="30" height="26" as="geometry"/>
        </mxCell>
        <mxCell id="3Pjmh9iLADuukuUgpzBT-111" value="" style="edgeStyle=entityRelationEdgeStyle;fontSize=12;html=1;endArrow=ERzeroToMany;startArrow=ERmandOne;exitX=1;exitY=0.5;exitDx=0;exitDy=0;" parent="1" source="3Pjmh9iLADuukuUgpzBT-104" target="2e49270ec7c68f3f-31" edge="1">
          <mxGeometry width="100" height="100" relative="1" as="geometry">
            <mxPoint x="422" y="113" as="sourcePoint"/>
            <mxPoint x="590" y="100" as="targetPoint"/>
          </mxGeometry>
        </mxCell>
        <mxCell id="3Pjmh9iLADuukuUgpzBT-150" value="Role" style="swimlane;fontStyle=0;childLayout=stackLayout;horizontal=1;startSize=26;fillColor=#e0e0e0;horizontalStack=0;resizeParent=1;resizeParentMax=0;resizeLast=0;collapsible=1;marginBottom=0;swimlaneFillColor=#ffffff;align=center;fontSize=14;" parent="1" vertex="1">
          <mxGeometry x="190" y="510" width="160" height="148" as="geometry"/>
        </mxCell>
        <mxCell id="3Pjmh9iLADuukuUgpzBT-151" value="IdRole" style="shape=partialRectangle;top=0;left=0;right=0;bottom=1;align=left;verticalAlign=middle;fillColor=none;spacingLeft=34;spacingRight=4;overflow=hidden;rotatable=0;points=[[0,0.5],[1,0.5]];portConstraint=eastwest;dropTarget=0;fontStyle=5;fontSize=12;" parent="3Pjmh9iLADuukuUgpzBT-150" vertex="1">
          <mxGeometry y="26" width="160" height="30" as="geometry"/>
        </mxCell>
        <mxCell id="3Pjmh9iLADuukuUgpzBT-152" value="PK" style="shape=partialRectangle;top=0;left=0;bottom=0;fillColor=none;align=left;verticalAlign=middle;spacingLeft=4;spacingRight=4;overflow=hidden;rotatable=0;points=[];portConstraint=eastwest;part=1;fontSize=12;" parent="3Pjmh9iLADuukuUgpzBT-151" vertex="1" connectable="0">
          <mxGeometry width="30" height="30" as="geometry"/>
        </mxCell>
        <mxCell id="3Pjmh9iLADuukuUgpzBT-163" value="IdUser" style="shape=partialRectangle;top=0;left=0;right=0;bottom=1;align=left;verticalAlign=middle;fillColor=none;spacingLeft=34;spacingRight=4;overflow=hidden;rotatable=0;points=[[0,0.5],[1,0.5]];portConstraint=eastwest;dropTarget=0;fontStyle=5;fontSize=12;" parent="3Pjmh9iLADuukuUgpzBT-150" vertex="1">
          <mxGeometry y="56" width="160" height="30" as="geometry"/>
        </mxCell>
        <mxCell id="3Pjmh9iLADuukuUgpzBT-164" value="FK" style="shape=partialRectangle;top=0;left=0;bottom=0;fillColor=none;align=left;verticalAlign=middle;spacingLeft=4;spacingRight=4;overflow=hidden;rotatable=0;points=[];portConstraint=eastwest;part=1;fontSize=12;" parent="3Pjmh9iLADuukuUgpzBT-163" vertex="1" connectable="0">
          <mxGeometry width="30" height="30" as="geometry"/>
        </mxCell>
        <mxCell id="3Pjmh9iLADuukuUgpzBT-153" value="Code" style="shape=partialRectangle;top=0;left=0;right=0;bottom=0;align=left;verticalAlign=top;fillColor=none;spacingLeft=34;spacingRight=4;overflow=hidden;rotatable=0;points=[[0,0.5],[1,0.5]];portConstraint=eastwest;dropTarget=0;fontSize=12;" parent="3Pjmh9iLADuukuUgpzBT-150" vertex="1">
          <mxGeometry y="86" width="160" height="26" as="geometry"/>
        </mxCell>
        <mxCell id="3Pjmh9iLADuukuUgpzBT-154" value="" style="shape=partialRectangle;top=0;left=0;bottom=0;fillColor=none;align=left;verticalAlign=top;spacingLeft=4;spacingRight=4;overflow=hidden;rotatable=0;points=[];portConstraint=eastwest;part=1;fontSize=12;" parent="3Pjmh9iLADuukuUgpzBT-153" vertex="1" connectable="0">
          <mxGeometry width="30" height="26" as="geometry"/>
        </mxCell>
        <mxCell id="3Pjmh9iLADuukuUgpzBT-157" value="NameEng" style="shape=partialRectangle;top=0;left=0;right=0;bottom=0;align=left;verticalAlign=top;fillColor=none;spacingLeft=34;spacingRight=4;overflow=hidden;rotatable=0;points=[[0,0.5],[1,0.5]];portConstraint=eastwest;dropTarget=0;fontSize=12;" parent="3Pjmh9iLADuukuUgpzBT-150" vertex="1">
          <mxGeometry y="112" width="160" height="26" as="geometry"/>
        </mxCell>
        <mxCell id="3Pjmh9iLADuukuUgpzBT-158" value="" style="shape=partialRectangle;top=0;left=0;bottom=0;fillColor=none;align=left;verticalAlign=top;spacingLeft=4;spacingRight=4;overflow=hidden;rotatable=0;points=[];portConstraint=eastwest;part=1;fontSize=12;" parent="3Pjmh9iLADuukuUgpzBT-157" vertex="1" connectable="0">
          <mxGeometry width="30" height="26" as="geometry"/>
        </mxCell>
        <mxCell id="3Pjmh9iLADuukuUgpzBT-159" value="" style="shape=partialRectangle;top=0;left=0;right=0;bottom=0;align=left;verticalAlign=top;fillColor=none;spacingLeft=34;spacingRight=4;overflow=hidden;rotatable=0;points=[[0,0.5],[1,0.5]];portConstraint=eastwest;dropTarget=0;fontSize=12;" parent="3Pjmh9iLADuukuUgpzBT-150" vertex="1">
          <mxGeometry y="138" width="160" height="10" as="geometry"/>
        </mxCell>
        <mxCell id="3Pjmh9iLADuukuUgpzBT-160" value="" style="shape=partialRectangle;top=0;left=0;bottom=0;fillColor=none;align=left;verticalAlign=top;spacingLeft=4;spacingRight=4;overflow=hidden;rotatable=0;points=[];portConstraint=eastwest;part=1;fontSize=12;" parent="3Pjmh9iLADuukuUgpzBT-159" vertex="1" connectable="0">
          <mxGeometry width="30" height="10" as="geometry"/>
        </mxCell>
        <mxCell id="3Pjmh9iLADuukuUgpzBT-165" value="" style="edgeStyle=entityRelationEdgeStyle;fontSize=12;html=1;endArrow=ERoneToMany;startArrow=ERmandOne;entryX=0;entryY=0.5;entryDx=0;entryDy=0;exitX=1;exitY=0.5;exitDx=0;exitDy=0;" parent="1" source="3Pjmh9iLADuukuUgpzBT-169" target="3Pjmh9iLADuukuUgpzBT-151" edge="1">
          <mxGeometry width="100" height="100" relative="1" as="geometry">
            <mxPoint x="60" y="860" as="sourcePoint"/>
            <mxPoint x="160" y="760" as="targetPoint"/>
          </mxGeometry>
        </mxCell>
        <mxCell id="3Pjmh9iLADuukuUgpzBT-166" value="Entity" style="swimlane;childLayout=stackLayout;horizontal=1;startSize=30;horizontalStack=0;fillColor=#008cff;fontColor=#FFFFFF;rounded=1;fontSize=14;fontStyle=0;strokeWidth=2;resizeParent=0;resizeLast=1;shadow=0;dashed=0;align=center;" parent="1" vertex="1">
          <mxGeometry x="260" y="690" width="90" height="90" as="geometry"/>
        </mxCell>
        <mxCell id="3Pjmh9iLADuukuUgpzBT-167" value="+Admin&#xa;+Client&#xa;+MealDesigner" style="align=left;strokeColor=none;fillColor=none;spacingLeft=4;fontSize=12;verticalAlign=top;resizable=0;rotatable=0;part=1;" parent="3Pjmh9iLADuukuUgpzBT-166" vertex="1">
          <mxGeometry y="30" width="90" height="60" as="geometry"/>
        </mxCell>
        <mxCell id="3Pjmh9iLADuukuUgpzBT-168" value="" style="edgeStyle=entityRelationEdgeStyle;fontSize=12;html=1;endArrow=ERmandOne;startArrow=ERmandOne;" parent="1" source="3Pjmh9iLADuukuUgpzBT-153" target="3Pjmh9iLADuukuUgpzBT-167" edge="1">
          <mxGeometry width="100" height="100" relative="1" as="geometry">
            <mxPoint x="370" y="830" as="sourcePoint"/>
            <mxPoint x="470" y="730" as="targetPoint"/>
          </mxGeometry>
        </mxCell>
        <mxCell id="3Pjmh9iLADuukuUgpzBT-172" value="" style="edgeStyle=entityRelationEdgeStyle;fontSize=12;html=1;endArrow=ERzeroToMany;startArrow=ERmandOne;entryX=0;entryY=0.5;entryDx=0;entryDy=0;" parent="1" source="3Pjmh9iLADuukuUgpzBT-65" target="3Pjmh9iLADuukuUgpzBT-75" edge="1">
          <mxGeometry width="100" height="100" relative="1" as="geometry">
            <mxPoint x="160" y="541" as="sourcePoint"/>
            <mxPoint x="290" y="153" as="targetPoint"/>
          </mxGeometry>
        </mxCell>
        <mxCell id="3Pjmh9iLADuukuUgpzBT-173" value="" style="edgeStyle=entityRelationEdgeStyle;fontSize=12;html=1;endArrow=ERzeroToMany;startArrow=ERmandOne;" parent="1" source="3Pjmh9iLADuukuUgpzBT-65" target="3Pjmh9iLADuukuUgpzBT-77" edge="1">
          <mxGeometry width="100" height="100" relative="1" as="geometry">
            <mxPoint x="-100" y="603" as="sourcePoint"/>
            <mxPoint x="-220" y="190" as="targetPoint"/>
          </mxGeometry>
        </mxCell>
        <mxCell id="3Pjmh9iLADuukuUgpzBT-175" value="" style="edgeStyle=entityRelationEdgeStyle;fontSize=12;html=1;endArrow=ERzeroToMany;startArrow=ERmandOne;" parent="1" source="3Pjmh9iLADuukuUgpzBT-94" target="2e49270ec7c68f3f-31" edge="1">
          <mxGeometry width="100" height="100" relative="1" as="geometry">
            <mxPoint x="-250" y="662" as="sourcePoint"/>
            <mxPoint x="-150" y="562" as="targetPoint"/>
          </mxGeometry>
        </mxCell>
        <mxCell id="3Pjmh9iLADuukuUgpzBT-177" value="" style="edgeStyle=entityRelationEdgeStyle;fontSize=12;html=1;endArrow=ERoneToMany;startArrow=ERmandOne;" parent="1" source="2e49270ec7c68f3f-26" target="2e49270ec7c68f3f-81" edge="1">
          <mxGeometry width="100" height="100" relative="1" as="geometry">
            <mxPoint x="-40" y="400" as="sourcePoint"/>
            <mxPoint x="60" y="300" as="targetPoint"/>
          </mxGeometry>
        </mxCell>
        <mxCell id="3Pjmh9iLADuukuUgpzBT-178" value="Category" style="swimlane;fontStyle=0;childLayout=stackLayout;horizontal=1;startSize=26;fillColor=#ffe6cc;horizontalStack=0;resizeParent=1;resizeParentMax=0;resizeLast=0;collapsible=1;marginBottom=0;swimlaneFillColor=#ffffff;align=center;fontSize=14;strokeColor=#d79b00;" parent="1" vertex="1">
          <mxGeometry x="690" y="199" width="160" height="118" as="geometry"/>
        </mxCell>
        <mxCell id="3Pjmh9iLADuukuUgpzBT-179" value="IdCategory" style="shape=partialRectangle;top=0;left=0;right=0;bottom=1;align=left;verticalAlign=middle;fillColor=none;spacingLeft=34;spacingRight=4;overflow=hidden;rotatable=0;points=[[0,0.5],[1,0.5]];portConstraint=eastwest;dropTarget=0;fontStyle=5;fontSize=12;" parent="3Pjmh9iLADuukuUgpzBT-178" vertex="1">
          <mxGeometry y="26" width="160" height="30" as="geometry"/>
        </mxCell>
        <mxCell id="3Pjmh9iLADuukuUgpzBT-180" value="PK" style="shape=partialRectangle;top=0;left=0;bottom=0;fillColor=none;align=left;verticalAlign=middle;spacingLeft=4;spacingRight=4;overflow=hidden;rotatable=0;points=[];portConstraint=eastwest;part=1;fontSize=12;" parent="3Pjmh9iLADuukuUgpzBT-179" vertex="1" connectable="0">
          <mxGeometry width="30" height="30" as="geometry"/>
        </mxCell>
        <mxCell id="3Pjmh9iLADuukuUgpzBT-181" value="Code" style="shape=partialRectangle;top=0;left=0;right=0;bottom=0;align=left;verticalAlign=top;fillColor=none;spacingLeft=34;spacingRight=4;overflow=hidden;rotatable=0;points=[[0,0.5],[1,0.5]];portConstraint=eastwest;dropTarget=0;fontSize=12;" parent="3Pjmh9iLADuukuUgpzBT-178" vertex="1">
          <mxGeometry y="56" width="160" height="26" as="geometry"/>
        </mxCell>
        <mxCell id="3Pjmh9iLADuukuUgpzBT-182" value="" style="shape=partialRectangle;top=0;left=0;bottom=0;fillColor=none;align=left;verticalAlign=top;spacingLeft=4;spacingRight=4;overflow=hidden;rotatable=0;points=[];portConstraint=eastwest;part=1;fontSize=12;" parent="3Pjmh9iLADuukuUgpzBT-181" vertex="1" connectable="0">
          <mxGeometry width="30" height="26" as="geometry"/>
        </mxCell>
        <mxCell id="3Pjmh9iLADuukuUgpzBT-183" value="Name" style="shape=partialRectangle;top=0;left=0;right=0;bottom=0;align=left;verticalAlign=top;fillColor=none;spacingLeft=34;spacingRight=4;overflow=hidden;rotatable=0;points=[[0,0.5],[1,0.5]];portConstraint=eastwest;dropTarget=0;fontSize=12;" parent="3Pjmh9iLADuukuUgpzBT-178" vertex="1">
          <mxGeometry y="82" width="160" height="26" as="geometry"/>
        </mxCell>
        <mxCell id="3Pjmh9iLADuukuUgpzBT-184" value="" style="shape=partialRectangle;top=0;left=0;bottom=0;fillColor=none;align=left;verticalAlign=top;spacingLeft=4;spacingRight=4;overflow=hidden;rotatable=0;points=[];portConstraint=eastwest;part=1;fontSize=12;" parent="3Pjmh9iLADuukuUgpzBT-183" vertex="1" connectable="0">
          <mxGeometry width="30" height="26" as="geometry"/>
        </mxCell>
        <mxCell id="3Pjmh9iLADuukuUgpzBT-187" value="" style="shape=partialRectangle;top=0;left=0;right=0;bottom=0;align=left;verticalAlign=top;fillColor=none;spacingLeft=34;spacingRight=4;overflow=hidden;rotatable=0;points=[[0,0.5],[1,0.5]];portConstraint=eastwest;dropTarget=0;fontSize=12;" parent="3Pjmh9iLADuukuUgpzBT-178" vertex="1">
          <mxGeometry y="108" width="160" height="10" as="geometry"/>
        </mxCell>
        <mxCell id="3Pjmh9iLADuukuUgpzBT-188" value="" style="shape=partialRectangle;top=0;left=0;bottom=0;fillColor=none;align=left;verticalAlign=top;spacingLeft=4;spacingRight=4;overflow=hidden;rotatable=0;points=[];portConstraint=eastwest;part=1;fontSize=12;" parent="3Pjmh9iLADuukuUgpzBT-187" vertex="1" connectable="0">
          <mxGeometry width="30" height="10" as="geometry"/>
        </mxCell>
        <mxCell id="3Pjmh9iLADuukuUgpzBT-190" value="Entity" style="swimlane;childLayout=stackLayout;horizontal=1;startSize=30;horizontalStack=0;fillColor=#008cff;fontColor=#FFFFFF;rounded=1;fontSize=14;fontStyle=0;strokeWidth=2;resizeParent=0;resizeLast=1;shadow=0;dashed=0;align=center;" parent="1" vertex="1">
          <mxGeometry x="910" y="213" width="160" height="137" as="geometry"/>
        </mxCell>
        <mxCell id="3Pjmh9iLADuukuUgpzBT-191" value="+Breakfast&#xa;+Lunch&#xa;+Dinner&#xa;+Snack&#xa;+Breads&#xa;+Beverage" style="align=left;strokeColor=none;fillColor=none;spacingLeft=4;fontSize=12;verticalAlign=top;resizable=0;rotatable=0;part=1;" parent="3Pjmh9iLADuukuUgpzBT-190" vertex="1">
          <mxGeometry y="30" width="160" height="107" as="geometry"/>
        </mxCell>
        <mxCell id="3Pjmh9iLADuukuUgpzBT-195" value="" style="edgeStyle=entityRelationEdgeStyle;fontSize=12;html=1;endArrow=ERzeroToMany;startArrow=ERmandOne;" parent="1" source="3Pjmh9iLADuukuUgpzBT-65" target="3Pjmh9iLADuukuUgpzBT-75" edge="1">
          <mxGeometry width="100" height="100" relative="1" as="geometry">
            <mxPoint x="170" y="546" as="sourcePoint"/>
            <mxPoint x="50" y="133" as="targetPoint"/>
          </mxGeometry>
        </mxCell>
        <mxCell id="3Pjmh9iLADuukuUgpzBT-196" value="GV use Mains for&amp;nbsp;&lt;br&gt;&lt;span style=&quot;text-align: left ; white-space: nowrap&quot;&gt;+Lunch&lt;/span&gt;&lt;br style=&quot;padding: 0px ; margin: 0px ; text-align: left ; white-space: nowrap&quot;&gt;&lt;span style=&quot;text-align: left ; white-space: nowrap&quot;&gt;+Dinner&lt;/span&gt;" style="shape=note;size=20;whiteSpace=wrap;html=1;fillColor=#FFFF99;" parent="1" vertex="1">
          <mxGeometry x="910" y="110" width="140" height="70" as="geometry"/>
        </mxCell>
        <mxCell id="3Pjmh9iLADuukuUgpzBT-197" value="" style="edgeStyle=entityRelationEdgeStyle;fontSize=12;html=1;endArrow=ERmany;startArrow=ERmany;entryX=0;entryY=0.5;entryDx=0;entryDy=0;" parent="1" source="3Pjmh9iLADuukuUgpzBT-193" target="3Pjmh9iLADuukuUgpzBT-179" edge="1">
          <mxGeometry width="100" height="100" relative="1" as="geometry">
            <mxPoint x="730" y="550" as="sourcePoint"/>
            <mxPoint x="830" y="450" as="targetPoint"/>
          </mxGeometry>
        </mxCell>
        <mxCell id="3Pjmh9iLADuukuUgpzBT-198" value="" style="edgeStyle=entityRelationEdgeStyle;fontSize=12;html=1;endArrow=ERmandOne;startArrow=ERmandOne;" parent="1" source="3Pjmh9iLADuukuUgpzBT-181" target="3Pjmh9iLADuukuUgpzBT-191" edge="1">
          <mxGeometry width="100" height="100" relative="1" as="geometry">
            <mxPoint x="720" y="520" as="sourcePoint"/>
            <mxPoint x="820" y="420" as="targetPoint"/>
          </mxGeometry>
        </mxCell>
        <mxCell id="3Pjmh9iLADuukuUgpzBT-199" value="Photo" style="swimlane;fontStyle=0;childLayout=stackLayout;horizontal=1;startSize=26;fillColor=#e0e0e0;horizontalStack=0;resizeParent=1;resizeParentMax=0;resizeLast=0;collapsible=1;marginBottom=0;swimlaneFillColor=#ffffff;align=center;fontSize=14;strokeColor=#0A0A04;" parent="1" vertex="1">
          <mxGeometry x="690" y="370" width="160" height="200" as="geometry"/>
        </mxCell>
        <mxCell id="3Pjmh9iLADuukuUgpzBT-200" value="IdPhoto" style="shape=partialRectangle;top=0;left=0;right=0;bottom=1;align=left;verticalAlign=middle;fillColor=none;spacingLeft=34;spacingRight=4;overflow=hidden;rotatable=0;points=[[0,0.5],[1,0.5]];portConstraint=eastwest;dropTarget=0;fontStyle=5;fontSize=12;" parent="3Pjmh9iLADuukuUgpzBT-199" vertex="1">
          <mxGeometry y="26" width="160" height="30" as="geometry"/>
        </mxCell>
        <mxCell id="3Pjmh9iLADuukuUgpzBT-201" value="PK" style="shape=partialRectangle;top=0;left=0;bottom=0;fillColor=none;align=left;verticalAlign=middle;spacingLeft=4;spacingRight=4;overflow=hidden;rotatable=0;points=[];portConstraint=eastwest;part=1;fontSize=12;" parent="3Pjmh9iLADuukuUgpzBT-200" vertex="1" connectable="0">
          <mxGeometry width="30" height="30" as="geometry"/>
        </mxCell>
        <mxCell id="3Pjmh9iLADuukuUgpzBT-202" value="Name" style="shape=partialRectangle;top=0;left=0;right=0;bottom=0;align=left;verticalAlign=top;fillColor=none;spacingLeft=34;spacingRight=4;overflow=hidden;rotatable=0;points=[[0,0.5],[1,0.5]];portConstraint=eastwest;dropTarget=0;fontSize=12;" parent="3Pjmh9iLADuukuUgpzBT-199" vertex="1">
          <mxGeometry y="56" width="160" height="26" as="geometry"/>
        </mxCell>
        <mxCell id="3Pjmh9iLADuukuUgpzBT-203" value="" style="shape=partialRectangle;top=0;left=0;bottom=0;fillColor=none;align=left;verticalAlign=top;spacingLeft=4;spacingRight=4;overflow=hidden;rotatable=0;points=[];portConstraint=eastwest;part=1;fontSize=12;" parent="3Pjmh9iLADuukuUgpzBT-202" vertex="1" connectable="0">
          <mxGeometry width="30" height="26" as="geometry"/>
        </mxCell>
        <mxCell id="3Pjmh9iLADuukuUgpzBT-232" value="Description" style="shape=partialRectangle;top=0;left=0;right=0;bottom=0;align=left;verticalAlign=top;fillColor=none;spacingLeft=34;spacingRight=4;overflow=hidden;rotatable=0;points=[[0,0.5],[1,0.5]];portConstraint=eastwest;dropTarget=0;fontSize=12;" parent="3Pjmh9iLADuukuUgpzBT-199" vertex="1">
          <mxGeometry y="82" width="160" height="26" as="geometry"/>
        </mxCell>
        <mxCell id="3Pjmh9iLADuukuUgpzBT-233" value="" style="shape=partialRectangle;top=0;left=0;bottom=0;fillColor=none;align=left;verticalAlign=top;spacingLeft=4;spacingRight=4;overflow=hidden;rotatable=0;points=[];portConstraint=eastwest;part=1;fontSize=12;" parent="3Pjmh9iLADuukuUgpzBT-232" vertex="1" connectable="0">
          <mxGeometry width="30" height="26" as="geometry"/>
        </mxCell>
        <mxCell id="hB2kX-DM1b2XkG8bsofA-11" value="CreatedDate" style="shape=partialRectangle;top=0;left=0;right=0;bottom=0;html=1;align=left;verticalAlign=top;fillColor=none;spacingLeft=34;spacingRight=4;whiteSpace=wrap;overflow=hidden;rotatable=0;points=[[0,0.5],[1,0.5]];portConstraint=eastwest;dropTarget=0;" vertex="1" parent="3Pjmh9iLADuukuUgpzBT-199">
          <mxGeometry y="108" width="160" height="30" as="geometry"/>
        </mxCell>
        <mxCell id="hB2kX-DM1b2XkG8bsofA-12" value="" style="shape=partialRectangle;top=0;left=0;bottom=0;html=1;fillColor=none;align=left;verticalAlign=top;spacingLeft=4;spacingRight=4;whiteSpace=wrap;overflow=hidden;rotatable=0;points=[];portConstraint=eastwest;part=1;" vertex="1" connectable="0" parent="hB2kX-DM1b2XkG8bsofA-11">
          <mxGeometry width="30" height="29.999999999999996" as="geometry"/>
        </mxCell>
        <mxCell id="hB2kX-DM1b2XkG8bsofA-9" value="UpdatedDate" style="shape=partialRectangle;top=0;left=0;right=0;bottom=0;html=1;align=left;verticalAlign=top;fillColor=none;spacingLeft=34;spacingRight=4;whiteSpace=wrap;overflow=hidden;rotatable=0;points=[[0,0.5],[1,0.5]];portConstraint=eastwest;dropTarget=0;" vertex="1" parent="3Pjmh9iLADuukuUgpzBT-199">
          <mxGeometry y="138" width="160" height="26" as="geometry"/>
        </mxCell>
        <mxCell id="hB2kX-DM1b2XkG8bsofA-10" value="" style="shape=partialRectangle;top=0;left=0;bottom=0;html=1;fillColor=none;align=left;verticalAlign=top;spacingLeft=4;spacingRight=4;whiteSpace=wrap;overflow=hidden;rotatable=0;points=[];portConstraint=eastwest;part=1;" vertex="1" connectable="0" parent="hB2kX-DM1b2XkG8bsofA-9">
          <mxGeometry width="30" height="26" as="geometry"/>
        </mxCell>
        <mxCell id="3Pjmh9iLADuukuUgpzBT-204" value="Link" style="shape=partialRectangle;top=0;left=0;right=0;bottom=0;align=left;verticalAlign=top;fillColor=none;spacingLeft=34;spacingRight=4;overflow=hidden;rotatable=0;points=[[0,0.5],[1,0.5]];portConstraint=eastwest;dropTarget=0;fontSize=12;" parent="3Pjmh9iLADuukuUgpzBT-199" vertex="1">
          <mxGeometry y="164" width="160" height="26" as="geometry"/>
        </mxCell>
        <mxCell id="3Pjmh9iLADuukuUgpzBT-205" value="" style="shape=partialRectangle;top=0;left=0;bottom=0;fillColor=none;align=left;verticalAlign=top;spacingLeft=4;spacingRight=4;overflow=hidden;rotatable=0;points=[];portConstraint=eastwest;part=1;fontSize=12;" parent="3Pjmh9iLADuukuUgpzBT-204" vertex="1" connectable="0">
          <mxGeometry width="30" height="26" as="geometry"/>
        </mxCell>
        <mxCell id="3Pjmh9iLADuukuUgpzBT-208" value="" style="shape=partialRectangle;top=0;left=0;right=0;bottom=0;align=left;verticalAlign=top;fillColor=none;spacingLeft=34;spacingRight=4;overflow=hidden;rotatable=0;points=[[0,0.5],[1,0.5]];portConstraint=eastwest;dropTarget=0;fontSize=12;" parent="3Pjmh9iLADuukuUgpzBT-199" vertex="1">
          <mxGeometry y="190" width="160" height="10" as="geometry"/>
        </mxCell>
        <mxCell id="3Pjmh9iLADuukuUgpzBT-209" value="" style="shape=partialRectangle;top=0;left=0;bottom=0;fillColor=none;align=left;verticalAlign=top;spacingLeft=4;spacingRight=4;overflow=hidden;rotatable=0;points=[];portConstraint=eastwest;part=1;fontSize=12;" parent="3Pjmh9iLADuukuUgpzBT-208" vertex="1" connectable="0">
          <mxGeometry width="30" height="10" as="geometry"/>
        </mxCell>
        <mxCell id="3Pjmh9iLADuukuUgpzBT-212" value="" style="edgeStyle=entityRelationEdgeStyle;fontSize=12;html=1;endArrow=ERzeroToMany;startArrow=ERmandOne;" parent="1" source="3Pjmh9iLADuukuUgpzBT-210" target="3Pjmh9iLADuukuUgpzBT-200" edge="1">
          <mxGeometry width="100" height="100" relative="1" as="geometry">
            <mxPoint x="680" y="670" as="sourcePoint"/>
            <mxPoint x="780" y="570" as="targetPoint"/>
          </mxGeometry>
        </mxCell>
        <mxCell id="3Pjmh9iLADuukuUgpzBT-218" value="Video" style="swimlane;fontStyle=0;childLayout=stackLayout;horizontal=1;startSize=26;fillColor=#e0e0e0;horizontalStack=0;resizeParent=1;resizeParentMax=0;resizeLast=0;collapsible=1;marginBottom=0;swimlaneFillColor=#ffffff;align=center;fontSize=14;strokeColor=#0A0A04;" parent="1" vertex="1">
          <mxGeometry x="910" y="500" width="160" height="200" as="geometry"/>
        </mxCell>
        <mxCell id="3Pjmh9iLADuukuUgpzBT-219" value="IdVideo" style="shape=partialRectangle;top=0;left=0;right=0;bottom=1;align=left;verticalAlign=middle;fillColor=none;spacingLeft=34;spacingRight=4;overflow=hidden;rotatable=0;points=[[0,0.5],[1,0.5]];portConstraint=eastwest;dropTarget=0;fontStyle=5;fontSize=12;" parent="3Pjmh9iLADuukuUgpzBT-218" vertex="1">
          <mxGeometry y="26" width="160" height="30" as="geometry"/>
        </mxCell>
        <mxCell id="3Pjmh9iLADuukuUgpzBT-220" value="PK" style="shape=partialRectangle;top=0;left=0;bottom=0;fillColor=none;align=left;verticalAlign=middle;spacingLeft=4;spacingRight=4;overflow=hidden;rotatable=0;points=[];portConstraint=eastwest;part=1;fontSize=12;" parent="3Pjmh9iLADuukuUgpzBT-219" vertex="1" connectable="0">
          <mxGeometry width="30" height="30" as="geometry"/>
        </mxCell>
        <mxCell id="3Pjmh9iLADuukuUgpzBT-234" value="Name" style="shape=partialRectangle;top=0;left=0;right=0;bottom=0;align=left;verticalAlign=top;fillColor=none;spacingLeft=34;spacingRight=4;overflow=hidden;rotatable=0;points=[[0,0.5],[1,0.5]];portConstraint=eastwest;dropTarget=0;fontSize=12;" parent="3Pjmh9iLADuukuUgpzBT-218" vertex="1">
          <mxGeometry y="56" width="160" height="26" as="geometry"/>
        </mxCell>
        <mxCell id="3Pjmh9iLADuukuUgpzBT-235" value="" style="shape=partialRectangle;top=0;left=0;bottom=0;fillColor=none;align=left;verticalAlign=top;spacingLeft=4;spacingRight=4;overflow=hidden;rotatable=0;points=[];portConstraint=eastwest;part=1;fontSize=12;" parent="3Pjmh9iLADuukuUgpzBT-234" vertex="1" connectable="0">
          <mxGeometry width="30" height="26" as="geometry"/>
        </mxCell>
        <mxCell id="3Pjmh9iLADuukuUgpzBT-221" value="Description" style="shape=partialRectangle;top=0;left=0;right=0;bottom=0;align=left;verticalAlign=top;fillColor=none;spacingLeft=34;spacingRight=4;overflow=hidden;rotatable=0;points=[[0,0.5],[1,0.5]];portConstraint=eastwest;dropTarget=0;fontSize=12;" parent="3Pjmh9iLADuukuUgpzBT-218" vertex="1">
          <mxGeometry y="82" width="160" height="26" as="geometry"/>
        </mxCell>
        <mxCell id="3Pjmh9iLADuukuUgpzBT-222" value="" style="shape=partialRectangle;top=0;left=0;bottom=0;fillColor=none;align=left;verticalAlign=top;spacingLeft=4;spacingRight=4;overflow=hidden;rotatable=0;points=[];portConstraint=eastwest;part=1;fontSize=12;" parent="3Pjmh9iLADuukuUgpzBT-221" vertex="1" connectable="0">
          <mxGeometry width="30" height="26" as="geometry"/>
        </mxCell>
        <mxCell id="3Pjmh9iLADuukuUgpzBT-223" value="URL" style="shape=partialRectangle;top=0;left=0;right=0;bottom=0;align=left;verticalAlign=top;fillColor=none;spacingLeft=34;spacingRight=4;overflow=hidden;rotatable=0;points=[[0,0.5],[1,0.5]];portConstraint=eastwest;dropTarget=0;fontSize=12;" parent="3Pjmh9iLADuukuUgpzBT-218" vertex="1">
          <mxGeometry y="108" width="160" height="26" as="geometry"/>
        </mxCell>
        <mxCell id="3Pjmh9iLADuukuUgpzBT-224" value="" style="shape=partialRectangle;top=0;left=0;bottom=0;fillColor=none;align=left;verticalAlign=top;spacingLeft=4;spacingRight=4;overflow=hidden;rotatable=0;points=[];portConstraint=eastwest;part=1;fontSize=12;" parent="3Pjmh9iLADuukuUgpzBT-223" vertex="1" connectable="0">
          <mxGeometry width="30" height="26" as="geometry"/>
        </mxCell>
        <mxCell id="hB2kX-DM1b2XkG8bsofA-13" value="UpdatedDate" style="shape=partialRectangle;top=0;left=0;right=0;bottom=0;html=1;align=left;verticalAlign=top;fillColor=none;spacingLeft=34;spacingRight=4;whiteSpace=wrap;overflow=hidden;rotatable=0;points=[[0,0.5],[1,0.5]];portConstraint=eastwest;dropTarget=0;" vertex="1" parent="3Pjmh9iLADuukuUgpzBT-218">
          <mxGeometry y="134" width="160" height="26" as="geometry"/>
        </mxCell>
        <mxCell id="hB2kX-DM1b2XkG8bsofA-14" value="" style="shape=partialRectangle;top=0;left=0;bottom=0;html=1;fillColor=none;align=left;verticalAlign=top;spacingLeft=4;spacingRight=4;whiteSpace=wrap;overflow=hidden;rotatable=0;points=[];portConstraint=eastwest;part=1;" vertex="1" connectable="0" parent="hB2kX-DM1b2XkG8bsofA-13">
          <mxGeometry width="30" height="26" as="geometry"/>
        </mxCell>
        <mxCell id="hB2kX-DM1b2XkG8bsofA-15" value="CreatedDate" style="shape=partialRectangle;top=0;left=0;right=0;bottom=0;html=1;align=left;verticalAlign=top;fillColor=none;spacingLeft=34;spacingRight=4;whiteSpace=wrap;overflow=hidden;rotatable=0;points=[[0,0.5],[1,0.5]];portConstraint=eastwest;dropTarget=0;" vertex="1" parent="3Pjmh9iLADuukuUgpzBT-218">
          <mxGeometry y="160" width="160" height="30" as="geometry"/>
        </mxCell>
        <mxCell id="hB2kX-DM1b2XkG8bsofA-16" value="" style="shape=partialRectangle;top=0;left=0;bottom=0;html=1;fillColor=none;align=left;verticalAlign=top;spacingLeft=4;spacingRight=4;whiteSpace=wrap;overflow=hidden;rotatable=0;points=[];portConstraint=eastwest;part=1;" vertex="1" connectable="0" parent="hB2kX-DM1b2XkG8bsofA-15">
          <mxGeometry width="30" height="29.999999999999996" as="geometry"/>
        </mxCell>
        <mxCell id="3Pjmh9iLADuukuUgpzBT-225" value="" style="shape=partialRectangle;top=0;left=0;right=0;bottom=0;align=left;verticalAlign=top;fillColor=none;spacingLeft=34;spacingRight=4;overflow=hidden;rotatable=0;points=[[0,0.5],[1,0.5]];portConstraint=eastwest;dropTarget=0;fontSize=12;" parent="3Pjmh9iLADuukuUgpzBT-218" vertex="1">
          <mxGeometry y="190" width="160" height="10" as="geometry"/>
        </mxCell>
        <mxCell id="3Pjmh9iLADuukuUgpzBT-226" value="" style="shape=partialRectangle;top=0;left=0;bottom=0;fillColor=none;align=left;verticalAlign=top;spacingLeft=4;spacingRight=4;overflow=hidden;rotatable=0;points=[];portConstraint=eastwest;part=1;fontSize=12;" parent="3Pjmh9iLADuukuUgpzBT-225" vertex="1" connectable="0">
          <mxGeometry width="30" height="10" as="geometry"/>
        </mxCell>
        <mxCell id="3Pjmh9iLADuukuUgpzBT-231" value="" style="edgeStyle=entityRelationEdgeStyle;fontSize=12;html=1;endArrow=ERzeroToMany;startArrow=ERmandOne;" parent="1" source="3Pjmh9iLADuukuUgpzBT-227" target="3Pjmh9iLADuukuUgpzBT-219" edge="1">
          <mxGeometry width="100" height="100" relative="1" as="geometry">
            <mxPoint x="560" y="460" as="sourcePoint"/>
            <mxPoint x="690" y="480" as="targetPoint"/>
          </mxGeometry>
        </mxCell>
        <mxCell id="3Pjmh9iLADuukuUgpzBT-242" value="Nutrition" style="swimlane;fontStyle=0;childLayout=stackLayout;horizontal=1;startSize=26;fillColor=#e0e0e0;horizontalStack=0;resizeParent=1;resizeParentMax=0;resizeLast=0;collapsible=1;marginBottom=0;swimlaneFillColor=#ffffff;align=center;fontSize=14;strokeColor=#0A0A04;" parent="1" vertex="1">
          <mxGeometry x="-510" y="710" width="160" height="1056" as="geometry"/>
        </mxCell>
        <mxCell id="3Pjmh9iLADuukuUgpzBT-243" value="IdNutritional" style="shape=partialRectangle;top=0;left=0;right=0;bottom=1;align=left;verticalAlign=middle;fillColor=none;spacingLeft=34;spacingRight=4;overflow=hidden;rotatable=0;points=[[0,0.5],[1,0.5]];portConstraint=eastwest;dropTarget=0;fontStyle=5;fontSize=12;" parent="3Pjmh9iLADuukuUgpzBT-242" vertex="1">
          <mxGeometry y="26" width="160" height="30" as="geometry"/>
        </mxCell>
        <mxCell id="3Pjmh9iLADuukuUgpzBT-244" value="PK" style="shape=partialRectangle;top=0;left=0;bottom=0;fillColor=none;align=left;verticalAlign=middle;spacingLeft=4;spacingRight=4;overflow=hidden;rotatable=0;points=[];portConstraint=eastwest;part=1;fontSize=12;" parent="3Pjmh9iLADuukuUgpzBT-243" vertex="1" connectable="0">
          <mxGeometry width="30" height="30" as="geometry"/>
        </mxCell>
        <mxCell id="3Pjmh9iLADuukuUgpzBT-253" value="ServingsPerContainer" style="shape=partialRectangle;top=0;left=0;right=0;bottom=0;align=left;verticalAlign=top;fillColor=none;spacingLeft=34;spacingRight=4;overflow=hidden;rotatable=0;points=[[0,0.5],[1,0.5]];portConstraint=eastwest;dropTarget=0;fontSize=12;" parent="3Pjmh9iLADuukuUgpzBT-242" vertex="1">
          <mxGeometry y="56" width="160" height="26" as="geometry"/>
        </mxCell>
        <mxCell id="3Pjmh9iLADuukuUgpzBT-254" value="" style="shape=partialRectangle;top=0;left=0;bottom=0;fillColor=none;align=left;verticalAlign=top;spacingLeft=4;spacingRight=4;overflow=hidden;rotatable=0;points=[];portConstraint=eastwest;part=1;fontSize=12;" parent="3Pjmh9iLADuukuUgpzBT-253" vertex="1" connectable="0">
          <mxGeometry width="30" height="26" as="geometry"/>
        </mxCell>
        <mxCell id="3Pjmh9iLADuukuUgpzBT-245" value="ServingSize" style="shape=partialRectangle;top=0;left=0;right=0;bottom=0;align=left;verticalAlign=top;fillColor=none;spacingLeft=34;spacingRight=4;overflow=hidden;rotatable=0;points=[[0,0.5],[1,0.5]];portConstraint=eastwest;dropTarget=0;fontSize=12;" parent="3Pjmh9iLADuukuUgpzBT-242" vertex="1">
          <mxGeometry y="82" width="160" height="26" as="geometry"/>
        </mxCell>
        <mxCell id="3Pjmh9iLADuukuUgpzBT-246" value="" style="shape=partialRectangle;top=0;left=0;bottom=0;fillColor=none;align=left;verticalAlign=top;spacingLeft=4;spacingRight=4;overflow=hidden;rotatable=0;points=[];portConstraint=eastwest;part=1;fontSize=12;" parent="3Pjmh9iLADuukuUgpzBT-245" vertex="1" connectable="0">
          <mxGeometry width="30" height="26" as="geometry"/>
        </mxCell>
        <mxCell id="3Pjmh9iLADuukuUgpzBT-247" value="ServingSizeUnit" style="shape=partialRectangle;top=0;left=0;right=0;bottom=0;align=left;verticalAlign=top;fillColor=none;spacingLeft=34;spacingRight=4;overflow=hidden;rotatable=0;points=[[0,0.5],[1,0.5]];portConstraint=eastwest;dropTarget=0;fontSize=12;" parent="3Pjmh9iLADuukuUgpzBT-242" vertex="1">
          <mxGeometry y="108" width="160" height="26" as="geometry"/>
        </mxCell>
        <mxCell id="3Pjmh9iLADuukuUgpzBT-248" value="" style="shape=partialRectangle;top=0;left=0;bottom=0;fillColor=none;align=left;verticalAlign=top;spacingLeft=4;spacingRight=4;overflow=hidden;rotatable=0;points=[];portConstraint=eastwest;part=1;fontSize=12;" parent="3Pjmh9iLADuukuUgpzBT-247" vertex="1" connectable="0">
          <mxGeometry width="30" height="26" as="geometry"/>
        </mxCell>
        <mxCell id="3Pjmh9iLADuukuUgpzBT-275" value="ServingSizeText" style="shape=partialRectangle;top=0;left=0;right=0;bottom=0;align=left;verticalAlign=top;fillColor=none;spacingLeft=34;spacingRight=4;overflow=hidden;rotatable=0;points=[[0,0.5],[1,0.5]];portConstraint=eastwest;dropTarget=0;fontSize=12;" parent="3Pjmh9iLADuukuUgpzBT-242" vertex="1">
          <mxGeometry y="134" width="160" height="26" as="geometry"/>
        </mxCell>
        <mxCell id="3Pjmh9iLADuukuUgpzBT-276" value="" style="shape=partialRectangle;top=0;left=0;bottom=0;fillColor=none;align=left;verticalAlign=top;spacingLeft=4;spacingRight=4;overflow=hidden;rotatable=0;points=[];portConstraint=eastwest;part=1;fontSize=12;" parent="3Pjmh9iLADuukuUgpzBT-275" vertex="1" connectable="0">
          <mxGeometry width="30" height="26" as="geometry"/>
        </mxCell>
        <mxCell id="3Pjmh9iLADuukuUgpzBT-249" value="Calories" style="shape=partialRectangle;top=0;left=0;right=0;bottom=0;align=left;verticalAlign=top;fillColor=none;spacingLeft=34;spacingRight=4;overflow=hidden;rotatable=0;points=[[0,0.5],[1,0.5]];portConstraint=eastwest;dropTarget=0;fontSize=12;" parent="3Pjmh9iLADuukuUgpzBT-242" vertex="1">
          <mxGeometry y="160" width="160" height="26" as="geometry"/>
        </mxCell>
        <mxCell id="3Pjmh9iLADuukuUgpzBT-250" value="" style="shape=partialRectangle;top=0;left=0;bottom=0;fillColor=none;align=left;verticalAlign=top;spacingLeft=4;spacingRight=4;overflow=hidden;rotatable=0;points=[];portConstraint=eastwest;part=1;fontSize=12;" parent="3Pjmh9iLADuukuUgpzBT-249" vertex="1" connectable="0">
          <mxGeometry width="30" height="26" as="geometry"/>
        </mxCell>
        <mxCell id="3Pjmh9iLADuukuUgpzBT-251" value="" style="shape=partialRectangle;top=0;left=0;right=0;bottom=0;align=left;verticalAlign=top;fillColor=none;spacingLeft=34;spacingRight=4;overflow=hidden;rotatable=0;points=[[0,0.5],[1,0.5]];portConstraint=eastwest;dropTarget=0;fontSize=12;" parent="3Pjmh9iLADuukuUgpzBT-242" vertex="1">
          <mxGeometry y="186" width="160" height="10" as="geometry"/>
        </mxCell>
        <mxCell id="3Pjmh9iLADuukuUgpzBT-252" value="" style="shape=partialRectangle;top=0;left=0;bottom=0;fillColor=none;align=left;verticalAlign=top;spacingLeft=4;spacingRight=4;overflow=hidden;rotatable=0;points=[];portConstraint=eastwest;part=1;fontSize=12;" parent="3Pjmh9iLADuukuUgpzBT-251" vertex="1" connectable="0">
          <mxGeometry width="30" height="10" as="geometry"/>
        </mxCell>
        <mxCell id="3Pjmh9iLADuukuUgpzBT-255" value="TotalFat" style="shape=partialRectangle;top=0;left=0;right=0;bottom=0;align=left;verticalAlign=top;fillColor=none;spacingLeft=34;spacingRight=4;overflow=hidden;rotatable=0;points=[[0,0.5],[1,0.5]];portConstraint=eastwest;dropTarget=0;fontSize=12;" parent="3Pjmh9iLADuukuUgpzBT-242" vertex="1">
          <mxGeometry y="196" width="160" height="26" as="geometry"/>
        </mxCell>
        <mxCell id="3Pjmh9iLADuukuUgpzBT-256" value="" style="shape=partialRectangle;top=0;left=0;bottom=0;fillColor=none;align=left;verticalAlign=top;spacingLeft=4;spacingRight=4;overflow=hidden;rotatable=0;points=[];portConstraint=eastwest;part=1;fontSize=12;" parent="3Pjmh9iLADuukuUgpzBT-255" vertex="1" connectable="0">
          <mxGeometry width="30" height="26" as="geometry"/>
        </mxCell>
        <mxCell id="3Pjmh9iLADuukuUgpzBT-283" value="TotalFatUnit" style="shape=partialRectangle;top=0;left=0;right=0;bottom=0;align=left;verticalAlign=top;fillColor=none;spacingLeft=34;spacingRight=4;overflow=hidden;rotatable=0;points=[[0,0.5],[1,0.5]];portConstraint=eastwest;dropTarget=0;fontSize=12;" parent="3Pjmh9iLADuukuUgpzBT-242" vertex="1">
          <mxGeometry y="222" width="160" height="26" as="geometry"/>
        </mxCell>
        <mxCell id="3Pjmh9iLADuukuUgpzBT-284" value="" style="shape=partialRectangle;top=0;left=0;bottom=0;fillColor=none;align=left;verticalAlign=top;spacingLeft=4;spacingRight=4;overflow=hidden;rotatable=0;points=[];portConstraint=eastwest;part=1;fontSize=12;" parent="3Pjmh9iLADuukuUgpzBT-283" vertex="1" connectable="0">
          <mxGeometry width="30" height="26" as="geometry"/>
        </mxCell>
        <mxCell id="3Pjmh9iLADuukuUgpzBT-273" value="TotalFatP" style="shape=partialRectangle;top=0;left=0;right=0;bottom=0;align=left;verticalAlign=top;fillColor=none;spacingLeft=34;spacingRight=4;overflow=hidden;rotatable=0;points=[[0,0.5],[1,0.5]];portConstraint=eastwest;dropTarget=0;fontSize=12;" parent="3Pjmh9iLADuukuUgpzBT-242" vertex="1">
          <mxGeometry y="248" width="160" height="26" as="geometry"/>
        </mxCell>
        <mxCell id="3Pjmh9iLADuukuUgpzBT-274" value="" style="shape=partialRectangle;top=0;left=0;bottom=0;fillColor=none;align=left;verticalAlign=top;spacingLeft=4;spacingRight=4;overflow=hidden;rotatable=0;points=[];portConstraint=eastwest;part=1;fontSize=12;" parent="3Pjmh9iLADuukuUgpzBT-273" vertex="1" connectable="0">
          <mxGeometry width="30" height="26" as="geometry"/>
        </mxCell>
        <mxCell id="3Pjmh9iLADuukuUgpzBT-257" value="SaturatedFat" style="shape=partialRectangle;top=0;left=0;right=0;bottom=0;align=left;verticalAlign=top;fillColor=none;spacingLeft=34;spacingRight=4;overflow=hidden;rotatable=0;points=[[0,0.5],[1,0.5]];portConstraint=eastwest;dropTarget=0;fontSize=12;" parent="3Pjmh9iLADuukuUgpzBT-242" vertex="1">
          <mxGeometry y="274" width="160" height="26" as="geometry"/>
        </mxCell>
        <mxCell id="3Pjmh9iLADuukuUgpzBT-258" value="" style="shape=partialRectangle;top=0;left=0;bottom=0;fillColor=none;align=left;verticalAlign=top;spacingLeft=4;spacingRight=4;overflow=hidden;rotatable=0;points=[];portConstraint=eastwest;part=1;fontSize=12;" parent="3Pjmh9iLADuukuUgpzBT-257" vertex="1" connectable="0">
          <mxGeometry width="30" height="26" as="geometry"/>
        </mxCell>
        <mxCell id="3Pjmh9iLADuukuUgpzBT-271" value="SaturatedFatUnit" style="shape=partialRectangle;top=0;left=0;right=0;bottom=0;align=left;verticalAlign=top;fillColor=none;spacingLeft=34;spacingRight=4;overflow=hidden;rotatable=0;points=[[0,0.5],[1,0.5]];portConstraint=eastwest;dropTarget=0;fontSize=12;" parent="3Pjmh9iLADuukuUgpzBT-242" vertex="1">
          <mxGeometry y="300" width="160" height="26" as="geometry"/>
        </mxCell>
        <mxCell id="3Pjmh9iLADuukuUgpzBT-272" value="" style="shape=partialRectangle;top=0;left=0;bottom=0;fillColor=none;align=left;verticalAlign=top;spacingLeft=4;spacingRight=4;overflow=hidden;rotatable=0;points=[];portConstraint=eastwest;part=1;fontSize=12;" parent="3Pjmh9iLADuukuUgpzBT-271" vertex="1" connectable="0">
          <mxGeometry width="30" height="26" as="geometry"/>
        </mxCell>
        <mxCell id="3Pjmh9iLADuukuUgpzBT-269" value="SaturatedFatP" style="shape=partialRectangle;top=0;left=0;right=0;bottom=0;align=left;verticalAlign=top;fillColor=none;spacingLeft=34;spacingRight=4;overflow=hidden;rotatable=0;points=[[0,0.5],[1,0.5]];portConstraint=eastwest;dropTarget=0;fontSize=12;" parent="3Pjmh9iLADuukuUgpzBT-242" vertex="1">
          <mxGeometry y="326" width="160" height="26" as="geometry"/>
        </mxCell>
        <mxCell id="3Pjmh9iLADuukuUgpzBT-270" value="" style="shape=partialRectangle;top=0;left=0;bottom=0;fillColor=none;align=left;verticalAlign=top;spacingLeft=4;spacingRight=4;overflow=hidden;rotatable=0;points=[];portConstraint=eastwest;part=1;fontSize=12;" parent="3Pjmh9iLADuukuUgpzBT-269" vertex="1" connectable="0">
          <mxGeometry width="30" height="26" as="geometry"/>
        </mxCell>
        <mxCell id="3Pjmh9iLADuukuUgpzBT-259" value="TransFat" style="shape=partialRectangle;top=0;left=0;right=0;bottom=0;align=left;verticalAlign=top;fillColor=none;spacingLeft=34;spacingRight=4;overflow=hidden;rotatable=0;points=[[0,0.5],[1,0.5]];portConstraint=eastwest;dropTarget=0;fontSize=12;" parent="3Pjmh9iLADuukuUgpzBT-242" vertex="1">
          <mxGeometry y="352" width="160" height="26" as="geometry"/>
        </mxCell>
        <mxCell id="3Pjmh9iLADuukuUgpzBT-260" value="" style="shape=partialRectangle;top=0;left=0;bottom=0;fillColor=none;align=left;verticalAlign=top;spacingLeft=4;spacingRight=4;overflow=hidden;rotatable=0;points=[];portConstraint=eastwest;part=1;fontSize=12;" parent="3Pjmh9iLADuukuUgpzBT-259" vertex="1" connectable="0">
          <mxGeometry width="30" height="26" as="geometry"/>
        </mxCell>
        <mxCell id="3Pjmh9iLADuukuUgpzBT-287" value="TransFatUnit" style="shape=partialRectangle;top=0;left=0;right=0;bottom=0;align=left;verticalAlign=top;fillColor=none;spacingLeft=34;spacingRight=4;overflow=hidden;rotatable=0;points=[[0,0.5],[1,0.5]];portConstraint=eastwest;dropTarget=0;fontSize=12;" parent="3Pjmh9iLADuukuUgpzBT-242" vertex="1">
          <mxGeometry y="378" width="160" height="26" as="geometry"/>
        </mxCell>
        <mxCell id="3Pjmh9iLADuukuUgpzBT-288" value="" style="shape=partialRectangle;top=0;left=0;bottom=0;fillColor=none;align=left;verticalAlign=top;spacingLeft=4;spacingRight=4;overflow=hidden;rotatable=0;points=[];portConstraint=eastwest;part=1;fontSize=12;" parent="3Pjmh9iLADuukuUgpzBT-287" vertex="1" connectable="0">
          <mxGeometry width="30" height="26" as="geometry"/>
        </mxCell>
        <mxCell id="3Pjmh9iLADuukuUgpzBT-261" value="Cholesterol" style="shape=partialRectangle;top=0;left=0;right=0;bottom=0;align=left;verticalAlign=top;fillColor=none;spacingLeft=34;spacingRight=4;overflow=hidden;rotatable=0;points=[[0,0.5],[1,0.5]];portConstraint=eastwest;dropTarget=0;fontSize=12;" parent="3Pjmh9iLADuukuUgpzBT-242" vertex="1">
          <mxGeometry y="404" width="160" height="26" as="geometry"/>
        </mxCell>
        <mxCell id="3Pjmh9iLADuukuUgpzBT-262" value="" style="shape=partialRectangle;top=0;left=0;bottom=0;fillColor=none;align=left;verticalAlign=top;spacingLeft=4;spacingRight=4;overflow=hidden;rotatable=0;points=[];portConstraint=eastwest;part=1;fontSize=12;" parent="3Pjmh9iLADuukuUgpzBT-261" vertex="1" connectable="0">
          <mxGeometry width="30" height="26" as="geometry"/>
        </mxCell>
        <mxCell id="3Pjmh9iLADuukuUgpzBT-289" value="CholesterolUnit" style="shape=partialRectangle;top=0;left=0;right=0;bottom=0;align=left;verticalAlign=top;fillColor=none;spacingLeft=34;spacingRight=4;overflow=hidden;rotatable=0;points=[[0,0.5],[1,0.5]];portConstraint=eastwest;dropTarget=0;fontSize=12;" parent="3Pjmh9iLADuukuUgpzBT-242" vertex="1">
          <mxGeometry y="430" width="160" height="26" as="geometry"/>
        </mxCell>
        <mxCell id="3Pjmh9iLADuukuUgpzBT-290" value="" style="shape=partialRectangle;top=0;left=0;bottom=0;fillColor=none;align=left;verticalAlign=top;spacingLeft=4;spacingRight=4;overflow=hidden;rotatable=0;points=[];portConstraint=eastwest;part=1;fontSize=12;" parent="3Pjmh9iLADuukuUgpzBT-289" vertex="1" connectable="0">
          <mxGeometry width="30" height="26" as="geometry"/>
        </mxCell>
        <mxCell id="3Pjmh9iLADuukuUgpzBT-279" value="CholesterolP" style="shape=partialRectangle;top=0;left=0;right=0;bottom=0;align=left;verticalAlign=top;fillColor=none;spacingLeft=34;spacingRight=4;overflow=hidden;rotatable=0;points=[[0,0.5],[1,0.5]];portConstraint=eastwest;dropTarget=0;fontSize=12;" parent="3Pjmh9iLADuukuUgpzBT-242" vertex="1">
          <mxGeometry y="456" width="160" height="26" as="geometry"/>
        </mxCell>
        <mxCell id="3Pjmh9iLADuukuUgpzBT-280" value="" style="shape=partialRectangle;top=0;left=0;bottom=0;fillColor=none;align=left;verticalAlign=top;spacingLeft=4;spacingRight=4;overflow=hidden;rotatable=0;points=[];portConstraint=eastwest;part=1;fontSize=12;" parent="3Pjmh9iLADuukuUgpzBT-279" vertex="1" connectable="0">
          <mxGeometry width="30" height="26" as="geometry"/>
        </mxCell>
        <mxCell id="3Pjmh9iLADuukuUgpzBT-263" value="Sodium" style="shape=partialRectangle;top=0;left=0;right=0;bottom=0;align=left;verticalAlign=top;fillColor=none;spacingLeft=34;spacingRight=4;overflow=hidden;rotatable=0;points=[[0,0.5],[1,0.5]];portConstraint=eastwest;dropTarget=0;fontSize=12;" parent="3Pjmh9iLADuukuUgpzBT-242" vertex="1">
          <mxGeometry y="482" width="160" height="26" as="geometry"/>
        </mxCell>
        <mxCell id="3Pjmh9iLADuukuUgpzBT-264" value="" style="shape=partialRectangle;top=0;left=0;bottom=0;fillColor=none;align=left;verticalAlign=top;spacingLeft=4;spacingRight=4;overflow=hidden;rotatable=0;points=[];portConstraint=eastwest;part=1;fontSize=12;" parent="3Pjmh9iLADuukuUgpzBT-263" vertex="1" connectable="0">
          <mxGeometry width="30" height="26" as="geometry"/>
        </mxCell>
        <mxCell id="3Pjmh9iLADuukuUgpzBT-281" value="SodiumUnit" style="shape=partialRectangle;top=0;left=0;right=0;bottom=0;align=left;verticalAlign=top;fillColor=none;spacingLeft=34;spacingRight=4;overflow=hidden;rotatable=0;points=[[0,0.5],[1,0.5]];portConstraint=eastwest;dropTarget=0;fontSize=12;" parent="3Pjmh9iLADuukuUgpzBT-242" vertex="1">
          <mxGeometry y="508" width="160" height="26" as="geometry"/>
        </mxCell>
        <mxCell id="3Pjmh9iLADuukuUgpzBT-282" value="" style="shape=partialRectangle;top=0;left=0;bottom=0;fillColor=none;align=left;verticalAlign=top;spacingLeft=4;spacingRight=4;overflow=hidden;rotatable=0;points=[];portConstraint=eastwest;part=1;fontSize=12;" parent="3Pjmh9iLADuukuUgpzBT-281" vertex="1" connectable="0">
          <mxGeometry width="30" height="26" as="geometry"/>
        </mxCell>
        <mxCell id="3Pjmh9iLADuukuUgpzBT-291" value="SodiumP" style="shape=partialRectangle;top=0;left=0;right=0;bottom=0;align=left;verticalAlign=top;fillColor=none;spacingLeft=34;spacingRight=4;overflow=hidden;rotatable=0;points=[[0,0.5],[1,0.5]];portConstraint=eastwest;dropTarget=0;fontSize=12;" parent="3Pjmh9iLADuukuUgpzBT-242" vertex="1">
          <mxGeometry y="534" width="160" height="26" as="geometry"/>
        </mxCell>
        <mxCell id="3Pjmh9iLADuukuUgpzBT-292" value="" style="shape=partialRectangle;top=0;left=0;bottom=0;fillColor=none;align=left;verticalAlign=top;spacingLeft=4;spacingRight=4;overflow=hidden;rotatable=0;points=[];portConstraint=eastwest;part=1;fontSize=12;" parent="3Pjmh9iLADuukuUgpzBT-291" vertex="1" connectable="0">
          <mxGeometry width="30" height="26" as="geometry"/>
        </mxCell>
        <mxCell id="3Pjmh9iLADuukuUgpzBT-265" value="TotalCarbogydrate" style="shape=partialRectangle;top=0;left=0;right=0;bottom=0;align=left;verticalAlign=top;fillColor=none;spacingLeft=34;spacingRight=4;overflow=hidden;rotatable=0;points=[[0,0.5],[1,0.5]];portConstraint=eastwest;dropTarget=0;fontSize=12;" parent="3Pjmh9iLADuukuUgpzBT-242" vertex="1">
          <mxGeometry y="560" width="160" height="26" as="geometry"/>
        </mxCell>
        <mxCell id="3Pjmh9iLADuukuUgpzBT-266" value="" style="shape=partialRectangle;top=0;left=0;bottom=0;fillColor=none;align=left;verticalAlign=top;spacingLeft=4;spacingRight=4;overflow=hidden;rotatable=0;points=[];portConstraint=eastwest;part=1;fontSize=12;" parent="3Pjmh9iLADuukuUgpzBT-265" vertex="1" connectable="0">
          <mxGeometry width="30" height="26" as="geometry"/>
        </mxCell>
        <mxCell id="3Pjmh9iLADuukuUgpzBT-267" value="TotalCarbogydrateUnit" style="shape=partialRectangle;top=0;left=0;right=0;bottom=0;align=left;verticalAlign=top;fillColor=none;spacingLeft=34;spacingRight=4;overflow=hidden;rotatable=0;points=[[0,0.5],[1,0.5]];portConstraint=eastwest;dropTarget=0;fontSize=12;" parent="3Pjmh9iLADuukuUgpzBT-242" vertex="1">
          <mxGeometry y="586" width="160" height="26" as="geometry"/>
        </mxCell>
        <mxCell id="3Pjmh9iLADuukuUgpzBT-268" value="" style="shape=partialRectangle;top=0;left=0;bottom=0;fillColor=none;align=left;verticalAlign=top;spacingLeft=4;spacingRight=4;overflow=hidden;rotatable=0;points=[];portConstraint=eastwest;part=1;fontSize=12;" parent="3Pjmh9iLADuukuUgpzBT-267" vertex="1" connectable="0">
          <mxGeometry width="30" height="26" as="geometry"/>
        </mxCell>
        <mxCell id="3Pjmh9iLADuukuUgpzBT-293" value="TotalCarbogydrateP" style="shape=partialRectangle;top=0;left=0;right=0;bottom=0;align=left;verticalAlign=top;fillColor=none;spacingLeft=34;spacingRight=4;overflow=hidden;rotatable=0;points=[[0,0.5],[1,0.5]];portConstraint=eastwest;dropTarget=0;fontSize=12;" parent="3Pjmh9iLADuukuUgpzBT-242" vertex="1">
          <mxGeometry y="612" width="160" height="26" as="geometry"/>
        </mxCell>
        <mxCell id="3Pjmh9iLADuukuUgpzBT-294" value="" style="shape=partialRectangle;top=0;left=0;bottom=0;fillColor=none;align=left;verticalAlign=top;spacingLeft=4;spacingRight=4;overflow=hidden;rotatable=0;points=[];portConstraint=eastwest;part=1;fontSize=12;" parent="3Pjmh9iLADuukuUgpzBT-293" vertex="1" connectable="0">
          <mxGeometry width="30" height="26" as="geometry"/>
        </mxCell>
        <mxCell id="3Pjmh9iLADuukuUgpzBT-285" value="DietaryFiber" style="shape=partialRectangle;top=0;left=0;right=0;bottom=0;align=left;verticalAlign=top;fillColor=none;spacingLeft=34;spacingRight=4;overflow=hidden;rotatable=0;points=[[0,0.5],[1,0.5]];portConstraint=eastwest;dropTarget=0;fontSize=12;" parent="3Pjmh9iLADuukuUgpzBT-242" vertex="1">
          <mxGeometry y="638" width="160" height="26" as="geometry"/>
        </mxCell>
        <mxCell id="3Pjmh9iLADuukuUgpzBT-286" value="" style="shape=partialRectangle;top=0;left=0;bottom=0;fillColor=none;align=left;verticalAlign=top;spacingLeft=4;spacingRight=4;overflow=hidden;rotatable=0;points=[];portConstraint=eastwest;part=1;fontSize=12;" parent="3Pjmh9iLADuukuUgpzBT-285" vertex="1" connectable="0">
          <mxGeometry width="30" height="26" as="geometry"/>
        </mxCell>
        <mxCell id="3Pjmh9iLADuukuUgpzBT-295" value="DietaryFiberUnit" style="shape=partialRectangle;top=0;left=0;right=0;bottom=0;align=left;verticalAlign=top;fillColor=none;spacingLeft=34;spacingRight=4;overflow=hidden;rotatable=0;points=[[0,0.5],[1,0.5]];portConstraint=eastwest;dropTarget=0;fontSize=12;" parent="3Pjmh9iLADuukuUgpzBT-242" vertex="1">
          <mxGeometry y="664" width="160" height="26" as="geometry"/>
        </mxCell>
        <mxCell id="3Pjmh9iLADuukuUgpzBT-296" value="" style="shape=partialRectangle;top=0;left=0;bottom=0;fillColor=none;align=left;verticalAlign=top;spacingLeft=4;spacingRight=4;overflow=hidden;rotatable=0;points=[];portConstraint=eastwest;part=1;fontSize=12;" parent="3Pjmh9iLADuukuUgpzBT-295" vertex="1" connectable="0">
          <mxGeometry width="30" height="26" as="geometry"/>
        </mxCell>
        <mxCell id="3Pjmh9iLADuukuUgpzBT-297" value="DietaryFiberP" style="shape=partialRectangle;top=0;left=0;right=0;bottom=0;align=left;verticalAlign=top;fillColor=none;spacingLeft=34;spacingRight=4;overflow=hidden;rotatable=0;points=[[0,0.5],[1,0.5]];portConstraint=eastwest;dropTarget=0;fontSize=12;" parent="3Pjmh9iLADuukuUgpzBT-242" vertex="1">
          <mxGeometry y="690" width="160" height="26" as="geometry"/>
        </mxCell>
        <mxCell id="3Pjmh9iLADuukuUgpzBT-298" value="" style="shape=partialRectangle;top=0;left=0;bottom=0;fillColor=none;align=left;verticalAlign=top;spacingLeft=4;spacingRight=4;overflow=hidden;rotatable=0;points=[];portConstraint=eastwest;part=1;fontSize=12;" parent="3Pjmh9iLADuukuUgpzBT-297" vertex="1" connectable="0">
          <mxGeometry width="30" height="26" as="geometry"/>
        </mxCell>
        <mxCell id="3Pjmh9iLADuukuUgpzBT-299" value="TotalSugar" style="shape=partialRectangle;top=0;left=0;right=0;bottom=0;align=left;verticalAlign=top;fillColor=none;spacingLeft=34;spacingRight=4;overflow=hidden;rotatable=0;points=[[0,0.5],[1,0.5]];portConstraint=eastwest;dropTarget=0;fontSize=12;" parent="3Pjmh9iLADuukuUgpzBT-242" vertex="1">
          <mxGeometry y="716" width="160" height="26" as="geometry"/>
        </mxCell>
        <mxCell id="3Pjmh9iLADuukuUgpzBT-300" value="" style="shape=partialRectangle;top=0;left=0;bottom=0;fillColor=none;align=left;verticalAlign=top;spacingLeft=4;spacingRight=4;overflow=hidden;rotatable=0;points=[];portConstraint=eastwest;part=1;fontSize=12;" parent="3Pjmh9iLADuukuUgpzBT-299" vertex="1" connectable="0">
          <mxGeometry width="30" height="26" as="geometry"/>
        </mxCell>
        <mxCell id="3Pjmh9iLADuukuUgpzBT-301" value="TotalSugarUnit" style="shape=partialRectangle;top=0;left=0;right=0;bottom=0;align=left;verticalAlign=top;fillColor=none;spacingLeft=34;spacingRight=4;overflow=hidden;rotatable=0;points=[[0,0.5],[1,0.5]];portConstraint=eastwest;dropTarget=0;fontSize=12;" parent="3Pjmh9iLADuukuUgpzBT-242" vertex="1">
          <mxGeometry y="742" width="160" height="26" as="geometry"/>
        </mxCell>
        <mxCell id="3Pjmh9iLADuukuUgpzBT-302" value="" style="shape=partialRectangle;top=0;left=0;bottom=0;fillColor=none;align=left;verticalAlign=top;spacingLeft=4;spacingRight=4;overflow=hidden;rotatable=0;points=[];portConstraint=eastwest;part=1;fontSize=12;" parent="3Pjmh9iLADuukuUgpzBT-301" vertex="1" connectable="0">
          <mxGeometry width="30" height="26" as="geometry"/>
        </mxCell>
        <mxCell id="3Pjmh9iLADuukuUgpzBT-303" value="Protein" style="shape=partialRectangle;top=0;left=0;right=0;bottom=0;align=left;verticalAlign=top;fillColor=none;spacingLeft=34;spacingRight=4;overflow=hidden;rotatable=0;points=[[0,0.5],[1,0.5]];portConstraint=eastwest;dropTarget=0;fontSize=12;" parent="3Pjmh9iLADuukuUgpzBT-242" vertex="1">
          <mxGeometry y="768" width="160" height="24" as="geometry"/>
        </mxCell>
        <mxCell id="3Pjmh9iLADuukuUgpzBT-304" value="" style="shape=partialRectangle;top=0;left=0;bottom=0;fillColor=none;align=left;verticalAlign=top;spacingLeft=4;spacingRight=4;overflow=hidden;rotatable=0;points=[];portConstraint=eastwest;part=1;fontSize=12;" parent="3Pjmh9iLADuukuUgpzBT-303" vertex="1" connectable="0">
          <mxGeometry width="30" height="24" as="geometry"/>
        </mxCell>
        <mxCell id="3Pjmh9iLADuukuUgpzBT-305" value="ProteinUnit" style="shape=partialRectangle;top=0;left=0;right=0;bottom=0;align=left;verticalAlign=top;fillColor=none;spacingLeft=34;spacingRight=4;overflow=hidden;rotatable=0;points=[[0,0.5],[1,0.5]];portConstraint=eastwest;dropTarget=0;fontSize=12;" parent="3Pjmh9iLADuukuUgpzBT-242" vertex="1">
          <mxGeometry y="792" width="160" height="24" as="geometry"/>
        </mxCell>
        <mxCell id="3Pjmh9iLADuukuUgpzBT-306" value="" style="shape=partialRectangle;top=0;left=0;bottom=0;fillColor=none;align=left;verticalAlign=top;spacingLeft=4;spacingRight=4;overflow=hidden;rotatable=0;points=[];portConstraint=eastwest;part=1;fontSize=12;" parent="3Pjmh9iLADuukuUgpzBT-305" vertex="1" connectable="0">
          <mxGeometry width="30" height="24" as="geometry"/>
        </mxCell>
        <mxCell id="3Pjmh9iLADuukuUgpzBT-307" value="VitA" style="shape=partialRectangle;top=0;left=0;right=0;bottom=0;align=left;verticalAlign=top;fillColor=none;spacingLeft=34;spacingRight=4;overflow=hidden;rotatable=0;points=[[0,0.5],[1,0.5]];portConstraint=eastwest;dropTarget=0;fontSize=12;" parent="3Pjmh9iLADuukuUgpzBT-242" vertex="1">
          <mxGeometry y="816" width="160" height="24" as="geometry"/>
        </mxCell>
        <mxCell id="3Pjmh9iLADuukuUgpzBT-308" value="" style="shape=partialRectangle;top=0;left=0;bottom=0;fillColor=none;align=left;verticalAlign=top;spacingLeft=4;spacingRight=4;overflow=hidden;rotatable=0;points=[];portConstraint=eastwest;part=1;fontSize=12;" parent="3Pjmh9iLADuukuUgpzBT-307" vertex="1" connectable="0">
          <mxGeometry width="30" height="24" as="geometry"/>
        </mxCell>
        <mxCell id="3Pjmh9iLADuukuUgpzBT-309" value="VitC" style="shape=partialRectangle;top=0;left=0;right=0;bottom=0;align=left;verticalAlign=top;fillColor=none;spacingLeft=34;spacingRight=4;overflow=hidden;rotatable=0;points=[[0,0.5],[1,0.5]];portConstraint=eastwest;dropTarget=0;fontSize=12;" parent="3Pjmh9iLADuukuUgpzBT-242" vertex="1">
          <mxGeometry y="840" width="160" height="24" as="geometry"/>
        </mxCell>
        <mxCell id="3Pjmh9iLADuukuUgpzBT-310" value="" style="shape=partialRectangle;top=0;left=0;bottom=0;fillColor=none;align=left;verticalAlign=top;spacingLeft=4;spacingRight=4;overflow=hidden;rotatable=0;points=[];portConstraint=eastwest;part=1;fontSize=12;" parent="3Pjmh9iLADuukuUgpzBT-309" vertex="1" connectable="0">
          <mxGeometry width="30" height="24" as="geometry"/>
        </mxCell>
        <mxCell id="3Pjmh9iLADuukuUgpzBT-315" value="VitD" style="shape=partialRectangle;top=0;left=0;right=0;bottom=0;align=left;verticalAlign=top;fillColor=none;spacingLeft=34;spacingRight=4;overflow=hidden;rotatable=0;points=[[0,0.5],[1,0.5]];portConstraint=eastwest;dropTarget=0;fontSize=12;" parent="3Pjmh9iLADuukuUgpzBT-242" vertex="1">
          <mxGeometry y="864" width="160" height="24" as="geometry"/>
        </mxCell>
        <mxCell id="3Pjmh9iLADuukuUgpzBT-316" value="" style="shape=partialRectangle;top=0;left=0;bottom=0;fillColor=none;align=left;verticalAlign=top;spacingLeft=4;spacingRight=4;overflow=hidden;rotatable=0;points=[];portConstraint=eastwest;part=1;fontSize=12;" parent="3Pjmh9iLADuukuUgpzBT-315" vertex="1" connectable="0">
          <mxGeometry width="30" height="24" as="geometry"/>
        </mxCell>
        <mxCell id="3Pjmh9iLADuukuUgpzBT-319" value="VitB6" style="shape=partialRectangle;top=0;left=0;right=0;bottom=0;align=left;verticalAlign=top;fillColor=none;spacingLeft=34;spacingRight=4;overflow=hidden;rotatable=0;points=[[0,0.5],[1,0.5]];portConstraint=eastwest;dropTarget=0;fontSize=12;" parent="3Pjmh9iLADuukuUgpzBT-242" vertex="1">
          <mxGeometry y="888" width="160" height="24" as="geometry"/>
        </mxCell>
        <mxCell id="3Pjmh9iLADuukuUgpzBT-320" value="" style="shape=partialRectangle;top=0;left=0;bottom=0;fillColor=none;align=left;verticalAlign=top;spacingLeft=4;spacingRight=4;overflow=hidden;rotatable=0;points=[];portConstraint=eastwest;part=1;fontSize=12;" parent="3Pjmh9iLADuukuUgpzBT-319" vertex="1" connectable="0">
          <mxGeometry width="30" height="24" as="geometry"/>
        </mxCell>
        <mxCell id="3Pjmh9iLADuukuUgpzBT-321" value="VitB12" style="shape=partialRectangle;top=0;left=0;right=0;bottom=0;align=left;verticalAlign=top;fillColor=none;spacingLeft=34;spacingRight=4;overflow=hidden;rotatable=0;points=[[0,0.5],[1,0.5]];portConstraint=eastwest;dropTarget=0;fontSize=12;" parent="3Pjmh9iLADuukuUgpzBT-242" vertex="1">
          <mxGeometry y="912" width="160" height="24" as="geometry"/>
        </mxCell>
        <mxCell id="3Pjmh9iLADuukuUgpzBT-322" value="" style="shape=partialRectangle;top=0;left=0;bottom=0;fillColor=none;align=left;verticalAlign=top;spacingLeft=4;spacingRight=4;overflow=hidden;rotatable=0;points=[];portConstraint=eastwest;part=1;fontSize=12;" parent="3Pjmh9iLADuukuUgpzBT-321" vertex="1" connectable="0">
          <mxGeometry width="30" height="24" as="geometry"/>
        </mxCell>
        <mxCell id="3Pjmh9iLADuukuUgpzBT-323" value="VitK" style="shape=partialRectangle;top=0;left=0;right=0;bottom=0;align=left;verticalAlign=top;fillColor=none;spacingLeft=34;spacingRight=4;overflow=hidden;rotatable=0;points=[[0,0.5],[1,0.5]];portConstraint=eastwest;dropTarget=0;fontSize=12;" parent="3Pjmh9iLADuukuUgpzBT-242" vertex="1">
          <mxGeometry y="936" width="160" height="24" as="geometry"/>
        </mxCell>
        <mxCell id="3Pjmh9iLADuukuUgpzBT-324" value="" style="shape=partialRectangle;top=0;left=0;bottom=0;fillColor=none;align=left;verticalAlign=top;spacingLeft=4;spacingRight=4;overflow=hidden;rotatable=0;points=[];portConstraint=eastwest;part=1;fontSize=12;" parent="3Pjmh9iLADuukuUgpzBT-323" vertex="1" connectable="0">
          <mxGeometry width="30" height="24" as="geometry"/>
        </mxCell>
        <mxCell id="3Pjmh9iLADuukuUgpzBT-325" value="VitE" style="shape=partialRectangle;top=0;left=0;right=0;bottom=0;align=left;verticalAlign=top;fillColor=none;spacingLeft=34;spacingRight=4;overflow=hidden;rotatable=0;points=[[0,0.5],[1,0.5]];portConstraint=eastwest;dropTarget=0;fontSize=12;" parent="3Pjmh9iLADuukuUgpzBT-242" vertex="1">
          <mxGeometry y="960" width="160" height="24" as="geometry"/>
        </mxCell>
        <mxCell id="3Pjmh9iLADuukuUgpzBT-326" value="" style="shape=partialRectangle;top=0;left=0;bottom=0;fillColor=none;align=left;verticalAlign=top;spacingLeft=4;spacingRight=4;overflow=hidden;rotatable=0;points=[];portConstraint=eastwest;part=1;fontSize=12;" parent="3Pjmh9iLADuukuUgpzBT-325" vertex="1" connectable="0">
          <mxGeometry width="30" height="24" as="geometry"/>
        </mxCell>
        <mxCell id="3Pjmh9iLADuukuUgpzBT-311" value="Calcium" style="shape=partialRectangle;top=0;left=0;right=0;bottom=0;align=left;verticalAlign=top;fillColor=none;spacingLeft=34;spacingRight=4;overflow=hidden;rotatable=0;points=[[0,0.5],[1,0.5]];portConstraint=eastwest;dropTarget=0;fontSize=12;" parent="3Pjmh9iLADuukuUgpzBT-242" vertex="1">
          <mxGeometry y="984" width="160" height="24" as="geometry"/>
        </mxCell>
        <mxCell id="3Pjmh9iLADuukuUgpzBT-312" value="" style="shape=partialRectangle;top=0;left=0;bottom=0;fillColor=none;align=left;verticalAlign=top;spacingLeft=4;spacingRight=4;overflow=hidden;rotatable=0;points=[];portConstraint=eastwest;part=1;fontSize=12;" parent="3Pjmh9iLADuukuUgpzBT-311" vertex="1" connectable="0">
          <mxGeometry width="30" height="24" as="geometry"/>
        </mxCell>
        <mxCell id="3Pjmh9iLADuukuUgpzBT-313" value="Iron" style="shape=partialRectangle;top=0;left=0;right=0;bottom=0;align=left;verticalAlign=top;fillColor=none;spacingLeft=34;spacingRight=4;overflow=hidden;rotatable=0;points=[[0,0.5],[1,0.5]];portConstraint=eastwest;dropTarget=0;fontSize=12;" parent="3Pjmh9iLADuukuUgpzBT-242" vertex="1">
          <mxGeometry y="1008" width="160" height="24" as="geometry"/>
        </mxCell>
        <mxCell id="3Pjmh9iLADuukuUgpzBT-314" value="" style="shape=partialRectangle;top=0;left=0;bottom=0;fillColor=none;align=left;verticalAlign=top;spacingLeft=4;spacingRight=4;overflow=hidden;rotatable=0;points=[];portConstraint=eastwest;part=1;fontSize=12;" parent="3Pjmh9iLADuukuUgpzBT-313" vertex="1" connectable="0">
          <mxGeometry width="30" height="24" as="geometry"/>
        </mxCell>
        <mxCell id="3Pjmh9iLADuukuUgpzBT-317" value="Potassium" style="shape=partialRectangle;top=0;left=0;right=0;bottom=0;align=left;verticalAlign=top;fillColor=none;spacingLeft=34;spacingRight=4;overflow=hidden;rotatable=0;points=[[0,0.5],[1,0.5]];portConstraint=eastwest;dropTarget=0;fontSize=12;" parent="3Pjmh9iLADuukuUgpzBT-242" vertex="1">
          <mxGeometry y="1032" width="160" height="24" as="geometry"/>
        </mxCell>
        <mxCell id="3Pjmh9iLADuukuUgpzBT-318" value="" style="shape=partialRectangle;top=0;left=0;bottom=0;fillColor=none;align=left;verticalAlign=top;spacingLeft=4;spacingRight=4;overflow=hidden;rotatable=0;points=[];portConstraint=eastwest;part=1;fontSize=12;" parent="3Pjmh9iLADuukuUgpzBT-317" vertex="1" connectable="0">
          <mxGeometry width="30" height="24" as="geometry"/>
        </mxCell>
        <mxCell id="3Pjmh9iLADuukuUgpzBT-328" value="" style="edgeStyle=entityRelationEdgeStyle;fontSize=12;html=1;endArrow=ERzeroToOne;startArrow=ERmandOne;" parent="1" source="3Pjmh9iLADuukuUgpzBT-229" target="3Pjmh9iLADuukuUgpzBT-243" edge="1">
          <mxGeometry width="100" height="100" relative="1" as="geometry">
            <mxPoint x="540" y="680" as="sourcePoint"/>
            <mxPoint x="660" y="806" as="targetPoint"/>
          </mxGeometry>
        </mxCell>
        <mxCell id="3Pjmh9iLADuukuUgpzBT-335" value="Favorite" style="swimlane;fontStyle=0;childLayout=stackLayout;horizontal=1;startSize=26;horizontalStack=0;resizeParent=1;resizeParentMax=0;resizeLast=0;collapsible=1;marginBottom=0;swimlaneFillColor=#ffffff;align=center;fontSize=14;" parent="1" vertex="1">
          <mxGeometry x="440" y="950" width="160" height="156" as="geometry"/>
        </mxCell>
        <mxCell id="3Pjmh9iLADuukuUgpzBT-336" value="IdFav" style="shape=partialRectangle;top=0;left=0;right=0;bottom=1;align=left;verticalAlign=middle;fillColor=none;spacingLeft=34;spacingRight=4;overflow=hidden;rotatable=0;points=[[0,0.5],[1,0.5]];portConstraint=eastwest;dropTarget=0;fontStyle=5;fontSize=12;" parent="3Pjmh9iLADuukuUgpzBT-335" vertex="1">
          <mxGeometry y="26" width="160" height="30" as="geometry"/>
        </mxCell>
        <mxCell id="3Pjmh9iLADuukuUgpzBT-337" value="PK" style="shape=partialRectangle;top=0;left=0;bottom=0;fillColor=none;align=left;verticalAlign=middle;spacingLeft=4;spacingRight=4;overflow=hidden;rotatable=0;points=[];portConstraint=eastwest;part=1;fontSize=12;" parent="3Pjmh9iLADuukuUgpzBT-336" vertex="1" connectable="0">
          <mxGeometry width="30" height="30" as="geometry"/>
        </mxCell>
        <mxCell id="3Pjmh9iLADuukuUgpzBT-338" value="IdUser" style="shape=partialRectangle;top=0;left=0;right=0;bottom=1;align=left;verticalAlign=middle;fillColor=none;spacingLeft=34;spacingRight=4;overflow=hidden;rotatable=0;points=[[0,0.5],[1,0.5]];portConstraint=eastwest;dropTarget=0;fontStyle=5;fontSize=12;" parent="3Pjmh9iLADuukuUgpzBT-335" vertex="1">
          <mxGeometry y="56" width="160" height="30" as="geometry"/>
        </mxCell>
        <mxCell id="3Pjmh9iLADuukuUgpzBT-339" value="FK" style="shape=partialRectangle;top=0;left=0;bottom=0;fillColor=none;align=left;verticalAlign=middle;spacingLeft=4;spacingRight=4;overflow=hidden;rotatable=0;points=[];portConstraint=eastwest;part=1;fontSize=12;" parent="3Pjmh9iLADuukuUgpzBT-338" vertex="1" connectable="0">
          <mxGeometry width="30" height="30" as="geometry"/>
        </mxCell>
        <mxCell id="3Pjmh9iLADuukuUgpzBT-344" value="" style="shape=partialRectangle;top=0;left=0;right=0;bottom=0;align=left;verticalAlign=top;fillColor=none;spacingLeft=34;spacingRight=4;overflow=hidden;rotatable=0;points=[[0,0.5],[1,0.5]];portConstraint=eastwest;dropTarget=0;fontSize=12;" parent="3Pjmh9iLADuukuUgpzBT-335" vertex="1">
          <mxGeometry y="86" width="160" height="10" as="geometry"/>
        </mxCell>
        <mxCell id="3Pjmh9iLADuukuUgpzBT-345" value="" style="shape=partialRectangle;top=0;left=0;bottom=0;fillColor=none;align=left;verticalAlign=top;spacingLeft=4;spacingRight=4;overflow=hidden;rotatable=0;points=[];portConstraint=eastwest;part=1;fontSize=12;" parent="3Pjmh9iLADuukuUgpzBT-344" vertex="1" connectable="0">
          <mxGeometry width="30" height="10" as="geometry"/>
        </mxCell>
        <mxCell id="3Pjmh9iLADuukuUgpzBT-348" value="IdMeal" style="shape=partialRectangle;top=0;left=0;right=0;bottom=1;align=left;verticalAlign=middle;fillColor=none;spacingLeft=34;spacingRight=4;overflow=hidden;rotatable=0;points=[[0,0.5],[1,0.5]];portConstraint=eastwest;dropTarget=0;fontStyle=5;fontSize=12;" parent="3Pjmh9iLADuukuUgpzBT-335" vertex="1">
          <mxGeometry y="96" width="160" height="30" as="geometry"/>
        </mxCell>
        <mxCell id="3Pjmh9iLADuukuUgpzBT-349" value="FK" style="shape=partialRectangle;top=0;left=0;bottom=0;fillColor=none;align=left;verticalAlign=middle;spacingLeft=4;spacingRight=4;overflow=hidden;rotatable=0;points=[];portConstraint=eastwest;part=1;fontSize=12;" parent="3Pjmh9iLADuukuUgpzBT-348" vertex="1" connectable="0">
          <mxGeometry width="30" height="30" as="geometry"/>
        </mxCell>
        <mxCell id="3Pjmh9iLADuukuUgpzBT-351" value="IdPlan" style="shape=partialRectangle;top=0;left=0;right=0;bottom=1;align=left;verticalAlign=middle;fillColor=none;spacingLeft=34;spacingRight=4;overflow=hidden;rotatable=0;points=[[0,0.5],[1,0.5]];portConstraint=eastwest;dropTarget=0;fontStyle=5;fontSize=12;" parent="3Pjmh9iLADuukuUgpzBT-335" vertex="1">
          <mxGeometry y="126" width="160" height="30" as="geometry"/>
        </mxCell>
        <mxCell id="3Pjmh9iLADuukuUgpzBT-352" value="FK" style="shape=partialRectangle;top=0;left=0;bottom=0;fillColor=none;align=left;verticalAlign=middle;spacingLeft=4;spacingRight=4;overflow=hidden;rotatable=0;points=[];portConstraint=eastwest;part=1;fontSize=12;" parent="3Pjmh9iLADuukuUgpzBT-351" vertex="1" connectable="0">
          <mxGeometry width="30" height="30" as="geometry"/>
        </mxCell>
        <mxCell id="3Pjmh9iLADuukuUgpzBT-347" value="" style="edgeStyle=entityRelationEdgeStyle;fontSize=12;html=1;endArrow=ERzeroToMany;startArrow=ERzeroToOne;entryX=0;entryY=0.5;entryDx=0;entryDy=0;" parent="1" source="3Pjmh9iLADuukuUgpzBT-374" target="3Pjmh9iLADuukuUgpzBT-336" edge="1">
          <mxGeometry width="100" height="100" relative="1" as="geometry">
            <mxPoint x="110" y="530" as="sourcePoint"/>
            <mxPoint x="370" y="1000" as="targetPoint"/>
          </mxGeometry>
        </mxCell>
        <mxCell id="3Pjmh9iLADuukuUgpzBT-350" value="" style="edgeStyle=entityRelationEdgeStyle;fontSize=12;html=1;endArrow=ERmandOne;startArrow=ERmandOne;" parent="1" source="3Pjmh9iLADuukuUgpzBT-348" target="2e49270ec7c68f3f-9" edge="1">
          <mxGeometry width="100" height="100" relative="1" as="geometry">
            <mxPoint x="610" y="1030" as="sourcePoint"/>
            <mxPoint x="710" y="930" as="targetPoint"/>
          </mxGeometry>
        </mxCell>
        <mxCell id="3Pjmh9iLADuukuUgpzBT-353" value="Plan" style="swimlane;html=1;fontStyle=0;childLayout=stackLayout;horizontal=1;startSize=26;fillColor=#e0e0e0;horizontalStack=0;resizeParent=1;resizeLast=0;collapsible=1;marginBottom=0;swimlaneFillColor=#ffffff;align=center;rounded=0;shadow=0;comic=0;labelBackgroundColor=none;strokeWidth=1;fontFamily=Verdana;fontSize=14" parent="1" vertex="1">
          <mxGeometry x="170" y="940" width="160" height="306" as="geometry"/>
        </mxCell>
        <mxCell id="3Pjmh9iLADuukuUgpzBT-354" value="IdPlan" style="shape=partialRectangle;top=0;left=0;right=0;bottom=1;html=1;align=left;verticalAlign=middle;fillColor=none;spacingLeft=34;spacingRight=4;whiteSpace=wrap;overflow=hidden;rotatable=0;points=[[0,0.5],[1,0.5]];portConstraint=eastwest;dropTarget=0;fontStyle=5;" parent="3Pjmh9iLADuukuUgpzBT-353" vertex="1">
          <mxGeometry y="26" width="160" height="30" as="geometry"/>
        </mxCell>
        <mxCell id="3Pjmh9iLADuukuUgpzBT-355" value="PK" style="shape=partialRectangle;top=0;left=0;bottom=0;html=1;fillColor=none;align=left;verticalAlign=middle;spacingLeft=4;spacingRight=4;whiteSpace=wrap;overflow=hidden;rotatable=0;points=[];portConstraint=eastwest;part=1;" parent="3Pjmh9iLADuukuUgpzBT-354" vertex="1" connectable="0">
          <mxGeometry width="30" height="30" as="geometry"/>
        </mxCell>
        <mxCell id="3Pjmh9iLADuukuUgpzBT-356" value="IdMeal" style="shape=partialRectangle;top=0;left=0;right=0;bottom=1;html=1;align=left;verticalAlign=middle;fillColor=none;spacingLeft=34;spacingRight=4;whiteSpace=wrap;overflow=hidden;rotatable=0;points=[[0,0.5],[1,0.5]];portConstraint=eastwest;dropTarget=0;fontStyle=5;" parent="3Pjmh9iLADuukuUgpzBT-353" vertex="1">
          <mxGeometry y="56" width="160" height="30" as="geometry"/>
        </mxCell>
        <mxCell id="3Pjmh9iLADuukuUgpzBT-357" value="FK" style="shape=partialRectangle;top=0;left=0;bottom=0;html=1;fillColor=none;align=left;verticalAlign=middle;spacingLeft=4;spacingRight=4;whiteSpace=wrap;overflow=hidden;rotatable=0;points=[];portConstraint=eastwest;part=1;" parent="3Pjmh9iLADuukuUgpzBT-356" vertex="1" connectable="0">
          <mxGeometry width="30" height="30" as="geometry"/>
        </mxCell>
        <mxCell id="hB2kX-DM1b2XkG8bsofA-1" value="NameEng" style="shape=partialRectangle;top=0;left=0;right=0;bottom=0;align=left;verticalAlign=top;fillColor=none;spacingLeft=34;spacingRight=4;overflow=hidden;rotatable=0;points=[[0,0.5],[1,0.5]];portConstraint=eastwest;dropTarget=0;fontSize=12;" vertex="1" parent="3Pjmh9iLADuukuUgpzBT-353">
          <mxGeometry y="86" width="160" height="26" as="geometry"/>
        </mxCell>
        <mxCell id="hB2kX-DM1b2XkG8bsofA-2" value="" style="shape=partialRectangle;top=0;left=0;bottom=0;fillColor=none;align=left;verticalAlign=top;spacingLeft=4;spacingRight=4;overflow=hidden;rotatable=0;points=[];portConstraint=eastwest;part=1;fontSize=12;" vertex="1" connectable="0" parent="hB2kX-DM1b2XkG8bsofA-1">
          <mxGeometry width="30" height="26" as="geometry"/>
        </mxCell>
        <mxCell id="hB2kX-DM1b2XkG8bsofA-3" value="NameFr" style="shape=partialRectangle;top=0;left=0;right=0;bottom=0;align=left;verticalAlign=top;fillColor=none;spacingLeft=34;spacingRight=4;overflow=hidden;rotatable=0;points=[[0,0.5],[1,0.5]];portConstraint=eastwest;dropTarget=0;fontSize=12;" vertex="1" parent="3Pjmh9iLADuukuUgpzBT-353">
          <mxGeometry y="112" width="160" height="26" as="geometry"/>
        </mxCell>
        <mxCell id="hB2kX-DM1b2XkG8bsofA-4" value="" style="shape=partialRectangle;top=0;left=0;bottom=0;fillColor=none;align=left;verticalAlign=top;spacingLeft=4;spacingRight=4;overflow=hidden;rotatable=0;points=[];portConstraint=eastwest;part=1;fontSize=12;" vertex="1" connectable="0" parent="hB2kX-DM1b2XkG8bsofA-3">
          <mxGeometry width="30" height="26" as="geometry"/>
        </mxCell>
        <mxCell id="3Pjmh9iLADuukuUgpzBT-368" value="CreatedDate" style="shape=partialRectangle;top=0;left=0;right=0;bottom=0;html=1;align=left;verticalAlign=top;fillColor=none;spacingLeft=34;spacingRight=4;whiteSpace=wrap;overflow=hidden;rotatable=0;points=[[0,0.5],[1,0.5]];portConstraint=eastwest;dropTarget=0;" parent="3Pjmh9iLADuukuUgpzBT-353" vertex="1">
          <mxGeometry y="138" width="160" height="30" as="geometry"/>
        </mxCell>
        <mxCell id="3Pjmh9iLADuukuUgpzBT-369" value="" style="shape=partialRectangle;top=0;left=0;bottom=0;html=1;fillColor=none;align=left;verticalAlign=top;spacingLeft=4;spacingRight=4;whiteSpace=wrap;overflow=hidden;rotatable=0;points=[];portConstraint=eastwest;part=1;" parent="3Pjmh9iLADuukuUgpzBT-368" vertex="1" connectable="0">
          <mxGeometry width="30" height="29.999999999999996" as="geometry"/>
        </mxCell>
        <mxCell id="3Pjmh9iLADuukuUgpzBT-370" value="UpdatedDate" style="shape=partialRectangle;top=0;left=0;right=0;bottom=0;html=1;align=left;verticalAlign=top;fillColor=none;spacingLeft=34;spacingRight=4;whiteSpace=wrap;overflow=hidden;rotatable=0;points=[[0,0.5],[1,0.5]];portConstraint=eastwest;dropTarget=0;" parent="3Pjmh9iLADuukuUgpzBT-353" vertex="1">
          <mxGeometry y="168" width="160" height="26" as="geometry"/>
        </mxCell>
        <mxCell id="3Pjmh9iLADuukuUgpzBT-371" value="" style="shape=partialRectangle;top=0;left=0;bottom=0;html=1;fillColor=none;align=left;verticalAlign=top;spacingLeft=4;spacingRight=4;whiteSpace=wrap;overflow=hidden;rotatable=0;points=[];portConstraint=eastwest;part=1;" parent="3Pjmh9iLADuukuUgpzBT-370" vertex="1" connectable="0">
          <mxGeometry width="30" height="26" as="geometry"/>
        </mxCell>
        <mxCell id="3Pjmh9iLADuukuUgpzBT-386" value="DescriptionEng" style="shape=partialRectangle;top=0;left=0;right=0;bottom=0;align=left;verticalAlign=top;fillColor=none;spacingLeft=34;spacingRight=4;overflow=hidden;rotatable=0;points=[[0,0.5],[1,0.5]];portConstraint=eastwest;dropTarget=0;fontSize=12;" parent="3Pjmh9iLADuukuUgpzBT-353" vertex="1">
          <mxGeometry y="194" width="160" height="26" as="geometry"/>
        </mxCell>
        <mxCell id="3Pjmh9iLADuukuUgpzBT-387" value="" style="shape=partialRectangle;top=0;left=0;bottom=0;fillColor=none;align=left;verticalAlign=top;spacingLeft=4;spacingRight=4;overflow=hidden;rotatable=0;points=[];portConstraint=eastwest;part=1;fontSize=12;" parent="3Pjmh9iLADuukuUgpzBT-386" vertex="1" connectable="0">
          <mxGeometry width="30" height="26" as="geometry"/>
        </mxCell>
        <mxCell id="3Pjmh9iLADuukuUgpzBT-388" value="DescriptionFr" style="shape=partialRectangle;top=0;left=0;right=0;bottom=0;align=left;verticalAlign=top;fillColor=none;spacingLeft=34;spacingRight=4;overflow=hidden;rotatable=0;points=[[0,0.5],[1,0.5]];portConstraint=eastwest;dropTarget=0;fontSize=12;" parent="3Pjmh9iLADuukuUgpzBT-353" vertex="1">
          <mxGeometry y="220" width="160" height="26" as="geometry"/>
        </mxCell>
        <mxCell id="3Pjmh9iLADuukuUgpzBT-389" value="" style="shape=partialRectangle;top=0;left=0;bottom=0;fillColor=none;align=left;verticalAlign=top;spacingLeft=4;spacingRight=4;overflow=hidden;rotatable=0;points=[];portConstraint=eastwest;part=1;fontSize=12;" parent="3Pjmh9iLADuukuUgpzBT-388" vertex="1" connectable="0">
          <mxGeometry width="30" height="26" as="geometry"/>
        </mxCell>
        <mxCell id="hB2kX-DM1b2XkG8bsofA-77" value="IdList" style="shape=partialRectangle;top=0;left=0;right=0;bottom=1;align=left;verticalAlign=middle;fillColor=none;spacingLeft=34;spacingRight=4;overflow=hidden;rotatable=0;points=[[0,0.5],[1,0.5]];portConstraint=eastwest;dropTarget=0;fontStyle=5;fontSize=12;" vertex="1" parent="3Pjmh9iLADuukuUgpzBT-353">
          <mxGeometry y="246" width="160" height="30" as="geometry"/>
        </mxCell>
        <mxCell id="hB2kX-DM1b2XkG8bsofA-78" value="PK" style="shape=partialRectangle;top=0;left=0;bottom=0;fillColor=none;align=left;verticalAlign=middle;spacingLeft=4;spacingRight=4;overflow=hidden;rotatable=0;points=[];portConstraint=eastwest;part=1;fontSize=12;" vertex="1" connectable="0" parent="hB2kX-DM1b2XkG8bsofA-77">
          <mxGeometry width="30" height="30" as="geometry"/>
        </mxCell>
        <mxCell id="3Pjmh9iLADuukuUgpzBT-380" value="" style="edgeStyle=entityRelationEdgeStyle;fontSize=12;html=1;endArrow=ERzeroToMany;startArrow=ERmandOne;entryX=0;entryY=0.5;entryDx=0;entryDy=0;" parent="1" source="3Pjmh9iLADuukuUgpzBT-372" target="3Pjmh9iLADuukuUgpzBT-354" edge="1">
          <mxGeometry width="100" height="100" relative="1" as="geometry">
            <mxPoint x="140" y="850" as="sourcePoint"/>
            <mxPoint x="240" y="750" as="targetPoint"/>
          </mxGeometry>
        </mxCell>
        <mxCell id="3Pjmh9iLADuukuUgpzBT-381" value="" style="edgeStyle=entityRelationEdgeStyle;fontSize=12;html=1;endArrow=ERoneToMany;startArrow=ERmandOne;" parent="1" source="3Pjmh9iLADuukuUgpzBT-356" target="2e49270ec7c68f3f-9" edge="1">
          <mxGeometry width="100" height="100" relative="1" as="geometry">
            <mxPoint x="380" y="1230" as="sourcePoint"/>
            <mxPoint x="420" y="820" as="targetPoint"/>
          </mxGeometry>
        </mxCell>
        <mxCell id="hB2kX-DM1b2XkG8bsofA-20" value="" style="edgeStyle=entityRelationEdgeStyle;fontSize=12;html=1;endArrow=ERzeroToMany;startArrow=ERzeroToOne;" edge="1" parent="1" source="hB2kX-DM1b2XkG8bsofA-17" target="2e49270ec7c68f3f-9">
          <mxGeometry width="100" height="100" relative="1" as="geometry">
            <mxPoint x="220" y="470" as="sourcePoint"/>
            <mxPoint x="320" y="370" as="targetPoint"/>
          </mxGeometry>
        </mxCell>
        <mxCell id="hB2kX-DM1b2XkG8bsofA-33" value="" style="edgeStyle=entityRelationEdgeStyle;fontSize=12;html=1;endArrow=ERzeroToMany;startArrow=ERmandOne;" edge="1" parent="1" source="hB2kX-DM1b2XkG8bsofA-25" target="3Pjmh9iLADuukuUgpzBT-243">
          <mxGeometry width="100" height="100" relative="1" as="geometry">
            <mxPoint x="-130" y="437" as="sourcePoint"/>
            <mxPoint x="-240" y="890" as="targetPoint"/>
          </mxGeometry>
        </mxCell>
        <mxCell id="hB2kX-DM1b2XkG8bsofA-35" value="Shoppinglist" style="swimlane;fontStyle=0;childLayout=stackLayout;horizontal=1;startSize=26;fillColor=#e0e0e0;horizontalStack=0;resizeParent=1;resizeParentMax=0;resizeLast=0;collapsible=1;marginBottom=0;swimlaneFillColor=#ffffff;align=center;fontSize=14;" vertex="1" parent="1">
          <mxGeometry x="660" y="1106" width="160" height="292" as="geometry"/>
        </mxCell>
        <mxCell id="hB2kX-DM1b2XkG8bsofA-36" value="IdList" style="shape=partialRectangle;top=0;left=0;right=0;bottom=1;align=left;verticalAlign=middle;fillColor=none;spacingLeft=34;spacingRight=4;overflow=hidden;rotatable=0;points=[[0,0.5],[1,0.5]];portConstraint=eastwest;dropTarget=0;fontStyle=5;fontSize=12;" vertex="1" parent="hB2kX-DM1b2XkG8bsofA-35">
          <mxGeometry y="26" width="160" height="30" as="geometry"/>
        </mxCell>
        <mxCell id="hB2kX-DM1b2XkG8bsofA-37" value="PK" style="shape=partialRectangle;top=0;left=0;bottom=0;fillColor=none;align=left;verticalAlign=middle;spacingLeft=4;spacingRight=4;overflow=hidden;rotatable=0;points=[];portConstraint=eastwest;part=1;fontSize=12;" vertex="1" connectable="0" parent="hB2kX-DM1b2XkG8bsofA-36">
          <mxGeometry width="30" height="30" as="geometry"/>
        </mxCell>
        <mxCell id="hB2kX-DM1b2XkG8bsofA-74" value="UpdatedDate" style="shape=partialRectangle;top=0;left=0;right=0;bottom=0;html=1;align=left;verticalAlign=top;fillColor=none;spacingLeft=34;spacingRight=4;whiteSpace=wrap;overflow=hidden;rotatable=0;points=[[0,0.5],[1,0.5]];portConstraint=eastwest;dropTarget=0;" vertex="1" parent="hB2kX-DM1b2XkG8bsofA-35">
          <mxGeometry y="56" width="160" height="26" as="geometry"/>
        </mxCell>
        <mxCell id="hB2kX-DM1b2XkG8bsofA-75" value="" style="shape=partialRectangle;top=0;left=0;bottom=0;html=1;fillColor=none;align=left;verticalAlign=top;spacingLeft=4;spacingRight=4;whiteSpace=wrap;overflow=hidden;rotatable=0;points=[];portConstraint=eastwest;part=1;" vertex="1" connectable="0" parent="hB2kX-DM1b2XkG8bsofA-74">
          <mxGeometry width="30" height="26" as="geometry"/>
        </mxCell>
        <mxCell id="hB2kX-DM1b2XkG8bsofA-72" value="CreatedDate" style="shape=partialRectangle;top=0;left=0;right=0;bottom=0;html=1;align=left;verticalAlign=top;fillColor=none;spacingLeft=34;spacingRight=4;whiteSpace=wrap;overflow=hidden;rotatable=0;points=[[0,0.5],[1,0.5]];portConstraint=eastwest;dropTarget=0;" vertex="1" parent="hB2kX-DM1b2XkG8bsofA-35">
          <mxGeometry y="82" width="160" height="30" as="geometry"/>
        </mxCell>
        <mxCell id="hB2kX-DM1b2XkG8bsofA-73" value="" style="shape=partialRectangle;top=0;left=0;bottom=0;html=1;fillColor=none;align=left;verticalAlign=top;spacingLeft=4;spacingRight=4;whiteSpace=wrap;overflow=hidden;rotatable=0;points=[];portConstraint=eastwest;part=1;" vertex="1" connectable="0" parent="hB2kX-DM1b2XkG8bsofA-72">
          <mxGeometry width="30" height="29.999999999999996" as="geometry"/>
        </mxCell>
        <mxCell id="hB2kX-DM1b2XkG8bsofA-53" value="XML" style="shape=partialRectangle;top=0;left=0;right=0;bottom=1;align=left;verticalAlign=middle;fillColor=none;spacingLeft=34;spacingRight=4;overflow=hidden;rotatable=0;points=[[0,0.5],[1,0.5]];portConstraint=eastwest;dropTarget=0;fontStyle=4;fontSize=12;" vertex="1" parent="hB2kX-DM1b2XkG8bsofA-35">
          <mxGeometry y="112" width="160" height="30" as="geometry"/>
        </mxCell>
        <mxCell id="hB2kX-DM1b2XkG8bsofA-54" value="" style="shape=partialRectangle;top=0;left=0;bottom=0;fillColor=none;align=left;verticalAlign=middle;spacingLeft=4;spacingRight=4;overflow=hidden;rotatable=0;points=[];portConstraint=eastwest;part=1;fontSize=12;" vertex="1" connectable="0" parent="hB2kX-DM1b2XkG8bsofA-53">
          <mxGeometry width="30" height="30" as="geometry"/>
        </mxCell>
        <mxCell id="hB2kX-DM1b2XkG8bsofA-38" value="IdUser" style="shape=partialRectangle;top=0;left=0;right=0;bottom=1;align=left;verticalAlign=middle;fillColor=none;spacingLeft=34;spacingRight=4;overflow=hidden;rotatable=0;points=[[0,0.5],[1,0.5]];portConstraint=eastwest;dropTarget=0;fontStyle=5;fontSize=12;" vertex="1" parent="hB2kX-DM1b2XkG8bsofA-35">
          <mxGeometry y="142" width="160" height="30" as="geometry"/>
        </mxCell>
        <mxCell id="hB2kX-DM1b2XkG8bsofA-39" value="FK" style="shape=partialRectangle;top=0;left=0;bottom=0;fillColor=none;align=left;verticalAlign=middle;spacingLeft=4;spacingRight=4;overflow=hidden;rotatable=0;points=[];portConstraint=eastwest;part=1;fontSize=12;" vertex="1" connectable="0" parent="hB2kX-DM1b2XkG8bsofA-38">
          <mxGeometry width="30" height="30" as="geometry"/>
        </mxCell>
        <mxCell id="hB2kX-DM1b2XkG8bsofA-44" value="IdPlan" style="shape=partialRectangle;top=0;left=0;right=0;bottom=1;align=left;verticalAlign=middle;fillColor=none;spacingLeft=34;spacingRight=4;overflow=hidden;rotatable=0;points=[[0,0.5],[1,0.5]];portConstraint=eastwest;dropTarget=0;fontStyle=5;fontSize=12;" vertex="1" parent="hB2kX-DM1b2XkG8bsofA-35">
          <mxGeometry y="172" width="160" height="30" as="geometry"/>
        </mxCell>
        <mxCell id="hB2kX-DM1b2XkG8bsofA-45" value="FK" style="shape=partialRectangle;top=0;left=0;bottom=0;fillColor=none;align=left;verticalAlign=middle;spacingLeft=4;spacingRight=4;overflow=hidden;rotatable=0;points=[];portConstraint=eastwest;part=1;fontSize=12;" vertex="1" connectable="0" parent="hB2kX-DM1b2XkG8bsofA-44">
          <mxGeometry width="30" height="30" as="geometry"/>
        </mxCell>
        <mxCell id="hB2kX-DM1b2XkG8bsofA-46" value="ItemId" style="shape=partialRectangle;top=0;left=0;right=0;bottom=1;align=left;verticalAlign=middle;fillColor=none;spacingLeft=34;spacingRight=4;overflow=hidden;rotatable=0;points=[[0,0.5],[1,0.5]];portConstraint=eastwest;dropTarget=0;fontStyle=5;fontSize=12;" vertex="1" parent="hB2kX-DM1b2XkG8bsofA-35">
          <mxGeometry y="202" width="160" height="30" as="geometry"/>
        </mxCell>
        <mxCell id="hB2kX-DM1b2XkG8bsofA-47" value="FK" style="shape=partialRectangle;top=0;left=0;bottom=0;fillColor=none;align=left;verticalAlign=middle;spacingLeft=4;spacingRight=4;overflow=hidden;rotatable=0;points=[];portConstraint=eastwest;part=1;fontSize=12;" vertex="1" connectable="0" parent="hB2kX-DM1b2XkG8bsofA-46">
          <mxGeometry width="30" height="30" as="geometry"/>
        </mxCell>
        <mxCell id="hB2kX-DM1b2XkG8bsofA-110" value="TotalCost" style="shape=partialRectangle;top=0;left=0;right=0;bottom=1;align=left;verticalAlign=middle;fillColor=none;spacingLeft=34;spacingRight=4;overflow=hidden;rotatable=0;points=[[0,0.5],[1,0.5]];portConstraint=eastwest;dropTarget=0;fontStyle=4;fontSize=12;" vertex="1" parent="hB2kX-DM1b2XkG8bsofA-35">
          <mxGeometry y="232" width="160" height="30" as="geometry"/>
        </mxCell>
        <mxCell id="hB2kX-DM1b2XkG8bsofA-111" value="" style="shape=partialRectangle;top=0;left=0;bottom=0;fillColor=none;align=left;verticalAlign=middle;spacingLeft=4;spacingRight=4;overflow=hidden;rotatable=0;points=[];portConstraint=eastwest;part=1;fontSize=12;" vertex="1" connectable="0" parent="hB2kX-DM1b2XkG8bsofA-110">
          <mxGeometry width="30" height="30" as="geometry"/>
        </mxCell>
        <mxCell id="hB2kX-DM1b2XkG8bsofA-112" value="TotalWeight" style="shape=partialRectangle;top=0;left=0;right=0;bottom=1;align=left;verticalAlign=middle;fillColor=none;spacingLeft=34;spacingRight=4;overflow=hidden;rotatable=0;points=[[0,0.5],[1,0.5]];portConstraint=eastwest;dropTarget=0;fontStyle=4;fontSize=12;" vertex="1" parent="hB2kX-DM1b2XkG8bsofA-35">
          <mxGeometry y="262" width="160" height="30" as="geometry"/>
        </mxCell>
        <mxCell id="hB2kX-DM1b2XkG8bsofA-113" value="" style="shape=partialRectangle;top=0;left=0;bottom=0;fillColor=none;align=left;verticalAlign=middle;spacingLeft=4;spacingRight=4;overflow=hidden;rotatable=0;points=[];portConstraint=eastwest;part=1;fontSize=12;" vertex="1" connectable="0" parent="hB2kX-DM1b2XkG8bsofA-112">
          <mxGeometry width="30" height="30" as="geometry"/>
        </mxCell>
        <mxCell id="hB2kX-DM1b2XkG8bsofA-55" value="ShoppingListItem" style="swimlane;fontStyle=0;childLayout=stackLayout;horizontal=1;startSize=26;fillColor=#e0e0e0;horizontalStack=0;resizeParent=1;resizeParentMax=0;resizeLast=0;collapsible=1;marginBottom=0;swimlaneFillColor=#ffffff;align=center;fontSize=14;" vertex="1" parent="1">
          <mxGeometry x="900" y="935" width="160" height="216" as="geometry"/>
        </mxCell>
        <mxCell id="hB2kX-DM1b2XkG8bsofA-60" value="" style="shape=partialRectangle;top=0;left=0;right=0;bottom=0;align=left;verticalAlign=top;fillColor=none;spacingLeft=34;spacingRight=4;overflow=hidden;rotatable=0;points=[[0,0.5],[1,0.5]];portConstraint=eastwest;dropTarget=0;fontSize=12;" vertex="1" parent="hB2kX-DM1b2XkG8bsofA-55">
          <mxGeometry y="26" width="160" height="10" as="geometry"/>
        </mxCell>
        <mxCell id="hB2kX-DM1b2XkG8bsofA-61" value="" style="shape=partialRectangle;top=0;left=0;bottom=0;fillColor=none;align=left;verticalAlign=top;spacingLeft=4;spacingRight=4;overflow=hidden;rotatable=0;points=[];portConstraint=eastwest;part=1;fontSize=12;" vertex="1" connectable="0" parent="hB2kX-DM1b2XkG8bsofA-60">
          <mxGeometry width="30" height="10" as="geometry"/>
        </mxCell>
        <mxCell id="hB2kX-DM1b2XkG8bsofA-64" value="ItemId" style="shape=partialRectangle;top=0;left=0;right=0;bottom=1;align=left;verticalAlign=middle;fillColor=none;spacingLeft=34;spacingRight=4;overflow=hidden;rotatable=0;points=[[0,0.5],[1,0.5]];portConstraint=eastwest;dropTarget=0;fontStyle=5;fontSize=12;" vertex="1" parent="hB2kX-DM1b2XkG8bsofA-55">
          <mxGeometry y="36" width="160" height="30" as="geometry"/>
        </mxCell>
        <mxCell id="hB2kX-DM1b2XkG8bsofA-65" value="PK" style="shape=partialRectangle;top=0;left=0;bottom=0;fillColor=none;align=left;verticalAlign=middle;spacingLeft=4;spacingRight=4;overflow=hidden;rotatable=0;points=[];portConstraint=eastwest;part=1;fontSize=12;" vertex="1" connectable="0" parent="hB2kX-DM1b2XkG8bsofA-64">
          <mxGeometry width="30" height="30" as="geometry"/>
        </mxCell>
        <mxCell id="hB2kX-DM1b2XkG8bsofA-62" value="IdPlan" style="shape=partialRectangle;top=0;left=0;right=0;bottom=1;align=left;verticalAlign=middle;fillColor=none;spacingLeft=34;spacingRight=4;overflow=hidden;rotatable=0;points=[[0,0.5],[1,0.5]];portConstraint=eastwest;dropTarget=0;fontStyle=5;fontSize=12;" vertex="1" parent="hB2kX-DM1b2XkG8bsofA-55">
          <mxGeometry y="66" width="160" height="30" as="geometry"/>
        </mxCell>
        <mxCell id="hB2kX-DM1b2XkG8bsofA-63" value="FK" style="shape=partialRectangle;top=0;left=0;bottom=0;fillColor=none;align=left;verticalAlign=middle;spacingLeft=4;spacingRight=4;overflow=hidden;rotatable=0;points=[];portConstraint=eastwest;part=1;fontSize=12;" vertex="1" connectable="0" parent="hB2kX-DM1b2XkG8bsofA-62">
          <mxGeometry width="30" height="30" as="geometry"/>
        </mxCell>
        <mxCell id="hB2kX-DM1b2XkG8bsofA-56" value="IdList" style="shape=partialRectangle;top=0;left=0;right=0;bottom=1;align=left;verticalAlign=middle;fillColor=none;spacingLeft=34;spacingRight=4;overflow=hidden;rotatable=0;points=[[0,0.5],[1,0.5]];portConstraint=eastwest;dropTarget=0;fontStyle=5;fontSize=12;" vertex="1" parent="hB2kX-DM1b2XkG8bsofA-55">
          <mxGeometry y="96" width="160" height="30" as="geometry"/>
        </mxCell>
        <mxCell id="hB2kX-DM1b2XkG8bsofA-57" value="FK" style="shape=partialRectangle;top=0;left=0;bottom=0;fillColor=none;align=left;verticalAlign=middle;spacingLeft=4;spacingRight=4;overflow=hidden;rotatable=0;points=[];portConstraint=eastwest;part=1;fontSize=12;" vertex="1" connectable="0" parent="hB2kX-DM1b2XkG8bsofA-56">
          <mxGeometry width="30" height="30" as="geometry"/>
        </mxCell>
        <mxCell id="hB2kX-DM1b2XkG8bsofA-66" value="ItemName" style="shape=partialRectangle;top=0;left=0;right=0;bottom=1;align=left;verticalAlign=middle;fillColor=none;spacingLeft=34;spacingRight=4;overflow=hidden;rotatable=0;points=[[0,0.5],[1,0.5]];portConstraint=eastwest;dropTarget=0;fontStyle=4;fontSize=12;" vertex="1" parent="hB2kX-DM1b2XkG8bsofA-55">
          <mxGeometry y="126" width="160" height="30" as="geometry"/>
        </mxCell>
        <mxCell id="hB2kX-DM1b2XkG8bsofA-67" value="" style="shape=partialRectangle;top=0;left=0;bottom=0;fillColor=none;align=left;verticalAlign=middle;spacingLeft=4;spacingRight=4;overflow=hidden;rotatable=0;points=[];portConstraint=eastwest;part=1;fontSize=12;" vertex="1" connectable="0" parent="hB2kX-DM1b2XkG8bsofA-66">
          <mxGeometry width="30" height="30" as="geometry"/>
        </mxCell>
        <mxCell id="hB2kX-DM1b2XkG8bsofA-68" value="Quantity" style="shape=partialRectangle;top=0;left=0;right=0;bottom=1;align=left;verticalAlign=middle;fillColor=none;spacingLeft=34;spacingRight=4;overflow=hidden;rotatable=0;points=[[0,0.5],[1,0.5]];portConstraint=eastwest;dropTarget=0;fontStyle=4;fontSize=12;" vertex="1" parent="hB2kX-DM1b2XkG8bsofA-55">
          <mxGeometry y="156" width="160" height="30" as="geometry"/>
        </mxCell>
        <mxCell id="hB2kX-DM1b2XkG8bsofA-69" value="" style="shape=partialRectangle;top=0;left=0;bottom=0;fillColor=none;align=left;verticalAlign=middle;spacingLeft=4;spacingRight=4;overflow=hidden;rotatable=0;points=[];portConstraint=eastwest;part=1;fontSize=12;" vertex="1" connectable="0" parent="hB2kX-DM1b2XkG8bsofA-68">
          <mxGeometry width="30" height="30" as="geometry"/>
        </mxCell>
        <mxCell id="hB2kX-DM1b2XkG8bsofA-82" value="Unit" style="shape=partialRectangle;top=0;left=0;right=0;bottom=1;align=left;verticalAlign=middle;fillColor=none;spacingLeft=34;spacingRight=4;overflow=hidden;rotatable=0;points=[[0,0.5],[1,0.5]];portConstraint=eastwest;dropTarget=0;fontStyle=4;fontSize=12;" vertex="1" parent="hB2kX-DM1b2XkG8bsofA-55">
          <mxGeometry y="186" width="160" height="30" as="geometry"/>
        </mxCell>
        <mxCell id="hB2kX-DM1b2XkG8bsofA-83" value="" style="shape=partialRectangle;top=0;left=0;bottom=0;fillColor=none;align=left;verticalAlign=middle;spacingLeft=4;spacingRight=4;overflow=hidden;rotatable=0;points=[];portConstraint=eastwest;part=1;fontSize=12;" vertex="1" connectable="0" parent="hB2kX-DM1b2XkG8bsofA-82">
          <mxGeometry width="30" height="30" as="geometry"/>
        </mxCell>
        <mxCell id="hB2kX-DM1b2XkG8bsofA-76" value="" style="edgeStyle=entityRelationEdgeStyle;fontSize=12;html=1;endArrow=ERzeroToMany;startArrow=ERmandOne;" edge="1" parent="1" source="hB2kX-DM1b2XkG8bsofA-46" target="hB2kX-DM1b2XkG8bsofA-64">
          <mxGeometry width="100" height="100" relative="1" as="geometry">
            <mxPoint x="910" y="1240" as="sourcePoint"/>
            <mxPoint x="1010" y="1140" as="targetPoint"/>
          </mxGeometry>
        </mxCell>
        <mxCell id="hB2kX-DM1b2XkG8bsofA-81" value="" style="edgeStyle=entityRelationEdgeStyle;fontSize=12;html=1;endArrow=ERzeroToOne;startArrow=ERmandOne;" edge="1" parent="1" source="hB2kX-DM1b2XkG8bsofA-77" target="hB2kX-DM1b2XkG8bsofA-36">
          <mxGeometry width="100" height="100" relative="1" as="geometry">
            <mxPoint x="510" y="1280" as="sourcePoint"/>
            <mxPoint x="610" y="1180" as="targetPoint"/>
          </mxGeometry>
        </mxCell>
        <mxCell id="hB2kX-DM1b2XkG8bsofA-99" value="Ingredients" style="swimlane;fontStyle=0;childLayout=stackLayout;horizontal=1;startSize=26;fillColor=#e0e0e0;horizontalStack=0;resizeParent=1;resizeParentMax=0;resizeLast=0;collapsible=1;marginBottom=0;swimlaneFillColor=#ffffff;align=center;fontSize=14;" vertex="1" parent="1">
          <mxGeometry x="670" y="800" width="160" height="200" as="geometry"/>
        </mxCell>
        <mxCell id="hB2kX-DM1b2XkG8bsofA-100" value="IngredientId" style="shape=partialRectangle;top=0;left=0;right=0;bottom=1;align=left;verticalAlign=middle;fillColor=none;spacingLeft=34;spacingRight=4;overflow=hidden;rotatable=0;points=[[0,0.5],[1,0.5]];portConstraint=eastwest;dropTarget=0;fontStyle=5;fontSize=12;" vertex="1" parent="hB2kX-DM1b2XkG8bsofA-99">
          <mxGeometry y="26" width="160" height="30" as="geometry"/>
        </mxCell>
        <mxCell id="hB2kX-DM1b2XkG8bsofA-101" value="PK" style="shape=partialRectangle;top=0;left=0;bottom=0;fillColor=none;align=left;verticalAlign=middle;spacingLeft=4;spacingRight=4;overflow=hidden;rotatable=0;points=[];portConstraint=eastwest;part=1;fontSize=12;" vertex="1" connectable="0" parent="hB2kX-DM1b2XkG8bsofA-100">
          <mxGeometry width="30" height="30" as="geometry"/>
        </mxCell>
        <mxCell id="hB2kX-DM1b2XkG8bsofA-102" value="NameIngredient" style="shape=partialRectangle;top=0;left=0;right=0;bottom=0;align=left;verticalAlign=top;fillColor=none;spacingLeft=34;spacingRight=4;overflow=hidden;rotatable=0;points=[[0,0.5],[1,0.5]];portConstraint=eastwest;dropTarget=0;fontSize=12;" vertex="1" parent="hB2kX-DM1b2XkG8bsofA-99">
          <mxGeometry y="56" width="160" height="26" as="geometry"/>
        </mxCell>
        <mxCell id="hB2kX-DM1b2XkG8bsofA-103" value="" style="shape=partialRectangle;top=0;left=0;bottom=0;fillColor=none;align=left;verticalAlign=top;spacingLeft=4;spacingRight=4;overflow=hidden;rotatable=0;points=[];portConstraint=eastwest;part=1;fontSize=12;" vertex="1" connectable="0" parent="hB2kX-DM1b2XkG8bsofA-102">
          <mxGeometry width="30" height="26" as="geometry"/>
        </mxCell>
        <mxCell id="3Pjmh9iLADuukuUgpzBT-88" value="IdProduct" style="shape=partialRectangle;top=0;left=0;right=0;bottom=1;html=1;align=left;verticalAlign=middle;fillColor=none;spacingLeft=34;spacingRight=4;whiteSpace=wrap;overflow=hidden;rotatable=0;points=[[0,0.5],[1,0.5]];portConstraint=eastwest;dropTarget=0;fontStyle=5;" parent="hB2kX-DM1b2XkG8bsofA-99" vertex="1">
          <mxGeometry y="82" width="160" height="30" as="geometry"/>
        </mxCell>
        <mxCell id="3Pjmh9iLADuukuUgpzBT-89" value="&lt;b&gt;FK&lt;/b&gt;" style="shape=partialRectangle;top=0;left=0;bottom=0;html=1;fillColor=none;align=left;verticalAlign=middle;spacingLeft=4;spacingRight=4;whiteSpace=wrap;overflow=hidden;rotatable=0;points=[];portConstraint=eastwest;part=1;" parent="3Pjmh9iLADuukuUgpzBT-88" vertex="1" connectable="0">
          <mxGeometry width="30" height="30" as="geometry"/>
        </mxCell>
        <mxCell id="hB2kX-DM1b2XkG8bsofA-94" value="UnitProduct" style="shape=partialRectangle;top=0;left=0;right=0;bottom=0;html=1;align=left;verticalAlign=top;fillColor=none;spacingLeft=34;spacingRight=4;whiteSpace=wrap;overflow=hidden;rotatable=0;points=[[0,0.5],[1,0.5]];portConstraint=eastwest;dropTarget=0;fontStyle=1" vertex="1" parent="hB2kX-DM1b2XkG8bsofA-99">
          <mxGeometry y="112" width="160" height="26" as="geometry"/>
        </mxCell>
        <mxCell id="hB2kX-DM1b2XkG8bsofA-95" value="FK" style="shape=partialRectangle;top=0;left=0;bottom=0;html=1;fillColor=none;align=left;verticalAlign=top;spacingLeft=4;spacingRight=4;whiteSpace=wrap;overflow=hidden;rotatable=0;points=[];portConstraint=eastwest;part=1;fontStyle=1" vertex="1" connectable="0" parent="hB2kX-DM1b2XkG8bsofA-94">
          <mxGeometry width="30" height="26" as="geometry"/>
        </mxCell>
        <mxCell id="3Pjmh9iLADuukuUgpzBT-49" value="Quantity" style="shape=partialRectangle;top=0;left=0;right=0;bottom=0;html=1;align=left;verticalAlign=top;fillColor=none;spacingLeft=34;spacingRight=4;whiteSpace=wrap;overflow=hidden;rotatable=0;points=[[0,0.5],[1,0.5]];portConstraint=eastwest;dropTarget=0;" parent="hB2kX-DM1b2XkG8bsofA-99" vertex="1">
          <mxGeometry y="138" width="160" height="26" as="geometry"/>
        </mxCell>
        <mxCell id="3Pjmh9iLADuukuUgpzBT-50" value="" style="shape=partialRectangle;top=0;left=0;bottom=0;html=1;fillColor=none;align=left;verticalAlign=top;spacingLeft=4;spacingRight=4;whiteSpace=wrap;overflow=hidden;rotatable=0;points=[];portConstraint=eastwest;part=1;" parent="3Pjmh9iLADuukuUgpzBT-49" vertex="1" connectable="0">
          <mxGeometry width="30" height="26" as="geometry"/>
        </mxCell>
        <mxCell id="hB2kX-DM1b2XkG8bsofA-117" value="UnitName" style="shape=partialRectangle;top=0;left=0;right=0;bottom=0;html=1;align=left;verticalAlign=top;fillColor=none;spacingLeft=34;spacingRight=4;whiteSpace=wrap;overflow=hidden;rotatable=0;points=[[0,0.5],[1,0.5]];portConstraint=eastwest;dropTarget=0;" vertex="1" parent="hB2kX-DM1b2XkG8bsofA-99">
          <mxGeometry y="164" width="160" height="26" as="geometry"/>
        </mxCell>
        <mxCell id="hB2kX-DM1b2XkG8bsofA-118" value="" style="shape=partialRectangle;top=0;left=0;bottom=0;html=1;fillColor=none;align=left;verticalAlign=top;spacingLeft=4;spacingRight=4;whiteSpace=wrap;overflow=hidden;rotatable=0;points=[];portConstraint=eastwest;part=1;" vertex="1" connectable="0" parent="hB2kX-DM1b2XkG8bsofA-117">
          <mxGeometry width="30" height="26" as="geometry"/>
        </mxCell>
        <mxCell id="hB2kX-DM1b2XkG8bsofA-108" value="" style="shape=partialRectangle;top=0;left=0;right=0;bottom=0;align=left;verticalAlign=top;fillColor=none;spacingLeft=34;spacingRight=4;overflow=hidden;rotatable=0;points=[[0,0.5],[1,0.5]];portConstraint=eastwest;dropTarget=0;fontSize=12;" vertex="1" parent="hB2kX-DM1b2XkG8bsofA-99">
          <mxGeometry y="190" width="160" height="10" as="geometry"/>
        </mxCell>
        <mxCell id="hB2kX-DM1b2XkG8bsofA-109" value="" style="shape=partialRectangle;top=0;left=0;bottom=0;fillColor=none;align=left;verticalAlign=top;spacingLeft=4;spacingRight=4;overflow=hidden;rotatable=0;points=[];portConstraint=eastwest;part=1;fontSize=12;" vertex="1" connectable="0" parent="hB2kX-DM1b2XkG8bsofA-108">
          <mxGeometry width="30" height="10" as="geometry"/>
        </mxCell>
        <mxCell id="hB2kX-DM1b2XkG8bsofA-116" value="" style="edgeStyle=entityRelationEdgeStyle;fontSize=12;html=1;endArrow=ERmany;startArrow=ERmany;" edge="1" parent="1" source="hB2kX-DM1b2XkG8bsofA-114" target="hB2kX-DM1b2XkG8bsofA-100">
          <mxGeometry width="100" height="100" relative="1" as="geometry">
            <mxPoint x="650" y="730" as="sourcePoint"/>
            <mxPoint x="750" y="630" as="targetPoint"/>
          </mxGeometry>
        </mxCell>
        <mxCell id="hB2kX-DM1b2XkG8bsofA-119" value="Entity" style="swimlane;childLayout=stackLayout;horizontal=1;startSize=30;horizontalStack=0;fillColor=#008cff;fontColor=#FFFFFF;rounded=1;fontSize=14;fontStyle=0;strokeWidth=2;resizeParent=0;resizeLast=1;shadow=0;dashed=0;align=center;" vertex="1" parent="1">
          <mxGeometry x="930" y="720" width="100" height="200" as="geometry"/>
        </mxCell>
        <mxCell id="hB2kX-DM1b2XkG8bsofA-120" value="+Halal&#xa;+SugarFree&#xa;+LactoseFree&#xa;+GlutenFree&#xa;+Vegan&#xa;+Vegetarian&#xa;+DairyFree&#xa;+GlutenFree&#xa;+Paleo&#xa;+Halal&#xa;+Kosher" style="align=left;strokeColor=none;fillColor=none;spacingLeft=4;fontSize=12;verticalAlign=top;resizable=0;rotatable=0;part=1;" vertex="1" parent="hB2kX-DM1b2XkG8bsofA-119">
          <mxGeometry y="30" width="100" height="170" as="geometry"/>
        </mxCell>
        <mxCell id="hB2kX-DM1b2XkG8bsofA-121" value="UserSettings" style="swimlane;fontStyle=0;childLayout=stackLayout;horizontal=1;startSize=26;fillColor=#dae8fc;horizontalStack=0;resizeParent=1;resizeParentMax=0;resizeLast=0;collapsible=1;marginBottom=0;swimlaneFillColor=#ffffff;align=center;fontSize=14;strokeColor=#6c8ebf;" vertex="1" parent="1">
          <mxGeometry x="-520" y="412" width="160" height="252" as="geometry"/>
        </mxCell>
        <mxCell id="hB2kX-DM1b2XkG8bsofA-122" value="uniqueId" style="shape=partialRectangle;top=0;left=0;right=0;bottom=1;align=left;verticalAlign=middle;fillColor=none;spacingLeft=34;spacingRight=4;overflow=hidden;rotatable=0;points=[[0,0.5],[1,0.5]];portConstraint=eastwest;dropTarget=0;fontStyle=5;fontSize=12;" vertex="1" parent="hB2kX-DM1b2XkG8bsofA-121">
          <mxGeometry y="26" width="160" height="30" as="geometry"/>
        </mxCell>
        <mxCell id="hB2kX-DM1b2XkG8bsofA-123" value="PK" style="shape=partialRectangle;top=0;left=0;bottom=0;fillColor=none;align=left;verticalAlign=middle;spacingLeft=4;spacingRight=4;overflow=hidden;rotatable=0;points=[];portConstraint=eastwest;part=1;fontSize=12;" vertex="1" connectable="0" parent="hB2kX-DM1b2XkG8bsofA-122">
          <mxGeometry width="30" height="30" as="geometry"/>
        </mxCell>
        <mxCell id="hB2kX-DM1b2XkG8bsofA-124" value="UserId" style="shape=partialRectangle;top=0;left=0;right=0;bottom=0;align=left;verticalAlign=top;fillColor=none;spacingLeft=34;spacingRight=4;overflow=hidden;rotatable=0;points=[[0,0.5],[1,0.5]];portConstraint=eastwest;dropTarget=0;fontSize=12;fontStyle=1" vertex="1" parent="hB2kX-DM1b2XkG8bsofA-121">
          <mxGeometry y="56" width="160" height="26" as="geometry"/>
        </mxCell>
        <mxCell id="hB2kX-DM1b2XkG8bsofA-125" value="FK" style="shape=partialRectangle;top=0;left=0;bottom=0;fillColor=none;align=left;verticalAlign=top;spacingLeft=4;spacingRight=4;overflow=hidden;rotatable=0;points=[];portConstraint=eastwest;part=1;fontSize=12;fontStyle=1" vertex="1" connectable="0" parent="hB2kX-DM1b2XkG8bsofA-124">
          <mxGeometry width="30" height="26" as="geometry"/>
        </mxCell>
        <mxCell id="hB2kX-DM1b2XkG8bsofA-126" value="Role" style="shape=partialRectangle;top=0;left=0;right=0;bottom=0;align=left;verticalAlign=top;fillColor=none;spacingLeft=34;spacingRight=4;overflow=hidden;rotatable=0;points=[[0,0.5],[1,0.5]];portConstraint=eastwest;dropTarget=0;fontSize=12;" vertex="1" parent="hB2kX-DM1b2XkG8bsofA-121">
          <mxGeometry y="82" width="160" height="26" as="geometry"/>
        </mxCell>
        <mxCell id="hB2kX-DM1b2XkG8bsofA-127" value="" style="shape=partialRectangle;top=0;left=0;bottom=0;fillColor=none;align=left;verticalAlign=top;spacingLeft=4;spacingRight=4;overflow=hidden;rotatable=0;points=[];portConstraint=eastwest;part=1;fontSize=12;" vertex="1" connectable="0" parent="hB2kX-DM1b2XkG8bsofA-126">
          <mxGeometry width="30" height="26" as="geometry"/>
        </mxCell>
        <mxCell id="hB2kX-DM1b2XkG8bsofA-130" value="" style="shape=partialRectangle;top=0;left=0;right=0;bottom=0;align=left;verticalAlign=top;fillColor=none;spacingLeft=34;spacingRight=4;overflow=hidden;rotatable=0;points=[[0,0.5],[1,0.5]];portConstraint=eastwest;dropTarget=0;fontSize=12;" vertex="1" parent="hB2kX-DM1b2XkG8bsofA-121">
          <mxGeometry y="108" width="160" height="10" as="geometry"/>
        </mxCell>
        <mxCell id="hB2kX-DM1b2XkG8bsofA-131" value="" style="shape=partialRectangle;top=0;left=0;bottom=0;fillColor=none;align=left;verticalAlign=top;spacingLeft=4;spacingRight=4;overflow=hidden;rotatable=0;points=[];portConstraint=eastwest;part=1;fontSize=12;" vertex="1" connectable="0" parent="hB2kX-DM1b2XkG8bsofA-130">
          <mxGeometry width="30" height="10" as="geometry"/>
        </mxCell>
        <mxCell id="hB2kX-DM1b2XkG8bsofA-138" value="CreatedDate" style="shape=partialRectangle;top=0;left=0;right=0;bottom=0;html=1;align=left;verticalAlign=top;fillColor=none;spacingLeft=34;spacingRight=4;whiteSpace=wrap;overflow=hidden;rotatable=0;points=[[0,0.5],[1,0.5]];portConstraint=eastwest;dropTarget=0;" vertex="1" parent="hB2kX-DM1b2XkG8bsofA-121">
          <mxGeometry y="118" width="160" height="30" as="geometry"/>
        </mxCell>
        <mxCell id="hB2kX-DM1b2XkG8bsofA-139" value="" style="shape=partialRectangle;top=0;left=0;bottom=0;html=1;fillColor=none;align=left;verticalAlign=top;spacingLeft=4;spacingRight=4;whiteSpace=wrap;overflow=hidden;rotatable=0;points=[];portConstraint=eastwest;part=1;" vertex="1" connectable="0" parent="hB2kX-DM1b2XkG8bsofA-138">
          <mxGeometry width="30" height="29.999999999999996" as="geometry"/>
        </mxCell>
        <mxCell id="hB2kX-DM1b2XkG8bsofA-140" value="UpdatedDate" style="shape=partialRectangle;top=0;left=0;right=0;bottom=0;html=1;align=left;verticalAlign=top;fillColor=none;spacingLeft=34;spacingRight=4;whiteSpace=wrap;overflow=hidden;rotatable=0;points=[[0,0.5],[1,0.5]];portConstraint=eastwest;dropTarget=0;" vertex="1" parent="hB2kX-DM1b2XkG8bsofA-121">
          <mxGeometry y="148" width="160" height="26" as="geometry"/>
        </mxCell>
        <mxCell id="hB2kX-DM1b2XkG8bsofA-141" value="" style="shape=partialRectangle;top=0;left=0;bottom=0;html=1;fillColor=none;align=left;verticalAlign=top;spacingLeft=4;spacingRight=4;whiteSpace=wrap;overflow=hidden;rotatable=0;points=[];portConstraint=eastwest;part=1;" vertex="1" connectable="0" parent="hB2kX-DM1b2XkG8bsofA-140">
          <mxGeometry width="30" height="26" as="geometry"/>
        </mxCell>
        <mxCell id="hB2kX-DM1b2XkG8bsofA-132" value="Units" style="shape=partialRectangle;top=0;left=0;right=0;bottom=0;align=left;verticalAlign=top;fillColor=none;spacingLeft=34;spacingRight=4;overflow=hidden;rotatable=0;points=[[0,0.5],[1,0.5]];portConstraint=eastwest;dropTarget=0;fontSize=12;" vertex="1" parent="hB2kX-DM1b2XkG8bsofA-121">
          <mxGeometry y="174" width="160" height="26" as="geometry"/>
        </mxCell>
        <mxCell id="hB2kX-DM1b2XkG8bsofA-133" value="" style="shape=partialRectangle;top=0;left=0;bottom=0;fillColor=none;align=left;verticalAlign=top;spacingLeft=4;spacingRight=4;overflow=hidden;rotatable=0;points=[];portConstraint=eastwest;part=1;fontSize=12;" vertex="1" connectable="0" parent="hB2kX-DM1b2XkG8bsofA-132">
          <mxGeometry width="30" height="26" as="geometry"/>
        </mxCell>
        <mxCell id="hB2kX-DM1b2XkG8bsofA-134" value="Meals" style="shape=partialRectangle;top=0;left=0;right=0;bottom=0;align=left;verticalAlign=top;fillColor=none;spacingLeft=34;spacingRight=4;overflow=hidden;rotatable=0;points=[[0,0.5],[1,0.5]];portConstraint=eastwest;dropTarget=0;fontSize=12;" vertex="1" parent="hB2kX-DM1b2XkG8bsofA-121">
          <mxGeometry y="200" width="160" height="26" as="geometry"/>
        </mxCell>
        <mxCell id="hB2kX-DM1b2XkG8bsofA-135" value="" style="shape=partialRectangle;top=0;left=0;bottom=0;fillColor=none;align=left;verticalAlign=top;spacingLeft=4;spacingRight=4;overflow=hidden;rotatable=0;points=[];portConstraint=eastwest;part=1;fontSize=12;" vertex="1" connectable="0" parent="hB2kX-DM1b2XkG8bsofA-134">
          <mxGeometry width="30" height="26" as="geometry"/>
        </mxCell>
        <mxCell id="hB2kX-DM1b2XkG8bsofA-136" value="Products" style="shape=partialRectangle;top=0;left=0;right=0;bottom=0;align=left;verticalAlign=top;fillColor=none;spacingLeft=34;spacingRight=4;overflow=hidden;rotatable=0;points=[[0,0.5],[1,0.5]];portConstraint=eastwest;dropTarget=0;fontSize=12;" vertex="1" parent="hB2kX-DM1b2XkG8bsofA-121">
          <mxGeometry y="226" width="160" height="26" as="geometry"/>
        </mxCell>
        <mxCell id="hB2kX-DM1b2XkG8bsofA-137" value="" style="shape=partialRectangle;top=0;left=0;bottom=0;fillColor=none;align=left;verticalAlign=top;spacingLeft=4;spacingRight=4;overflow=hidden;rotatable=0;points=[];portConstraint=eastwest;part=1;fontSize=12;" vertex="1" connectable="0" parent="hB2kX-DM1b2XkG8bsofA-136">
          <mxGeometry width="30" height="26" as="geometry"/>
        </mxCell>
        <mxCell id="hB2kX-DM1b2XkG8bsofA-142" value="" style="edgeStyle=entityRelationEdgeStyle;fontSize=12;html=1;endArrow=ERmandOne;startArrow=ERmandOne;" edge="1" parent="1" source="hB2kX-DM1b2XkG8bsofA-124" target="3Pjmh9iLADuukuUgpzBT-65">
          <mxGeometry width="100" height="100" relative="1" as="geometry">
            <mxPoint x="-240" y="670" as="sourcePoint"/>
            <mxPoint x="-140" y="570" as="targetPoint"/>
          </mxGeometry>
        </mxCell>
        <mxCell id="hB2kX-DM1b2XkG8bsofA-143" value="Entity" style="swimlane;childLayout=stackLayout;horizontal=1;startSize=30;horizontalStack=0;fillColor=#008cff;fontColor=#FFFFFF;rounded=1;fontSize=14;fontStyle=0;strokeWidth=2;resizeParent=0;resizeLast=1;shadow=0;dashed=0;align=center;" vertex="1" parent="1">
          <mxGeometry x="-100" y="1170" width="160" height="440" as="geometry"/>
        </mxCell>
        <mxCell id="hB2kX-DM1b2XkG8bsofA-144" value="+Beef&#xa;+Chicken&#xa;+Pork&#xa;+Lamb&#xa;+Turkey&#xa;+Pasta&#xa;+Vegetable &#xa;+Pulses &#xa;+Fish and Seafood&#xa;+Side dishes and Starches&#xa;+Breads and Pastry&#xa;+Sauces&#xa;+Desserts&#xa;+Beverages&#xa;+Miscellaneous&#xa;+Salads&#xa;+Snacks and Appetizers&#xa;+Soups and Chowders&#xa;+Breakfast&#xa;+Mains&#xa;+Popular&#xa;+Vegan&#xa;+Vegetarian&#xa;+DairyFree&#xa;+GlutenFree&#xa;+Paleo&#xa;+Halal&#xa;+Kosher&#xa;" style="align=left;strokeColor=none;fillColor=none;spacingLeft=4;fontSize=12;verticalAlign=top;resizable=0;rotatable=0;part=1;" vertex="1" parent="hB2kX-DM1b2XkG8bsofA-143">
          <mxGeometry y="30" width="160" height="410" as="geometry"/>
        </mxCell>
        <mxCell id="hB2kX-DM1b2XkG8bsofA-146" value="" style="edgeStyle=entityRelationEdgeStyle;fontSize=12;html=1;endArrow=ERmandOne;startArrow=ERmandOne;" edge="1" parent="1" source="hB2kX-DM1b2XkG8bsofA-143" target="2e49270ec7c68f3f-33">
          <mxGeometry width="100" height="100" relative="1" as="geometry">
            <mxPoint x="-140" y="1170" as="sourcePoint"/>
            <mxPoint x="-40" y="1070" as="targetPoint"/>
          </mxGeometry>
        </mxCell>
        <mxCell id="hB2kX-DM1b2XkG8bsofA-172" value="Diet" style="swimlane;fontStyle=0;childLayout=stackLayout;horizontal=1;startSize=26;fillColor=#e0e0e0;horizontalStack=0;resizeParent=1;resizeParentMax=0;resizeLast=0;collapsible=1;marginBottom=0;swimlaneFillColor=#ffffff;align=center;fontSize=14;" vertex="1" parent="1">
          <mxGeometry x="710" y="607" width="160" height="174" as="geometry"/>
        </mxCell>
        <mxCell id="hB2kX-DM1b2XkG8bsofA-173" value="DietId" style="shape=partialRectangle;top=0;left=0;right=0;bottom=1;align=left;verticalAlign=middle;fillColor=none;spacingLeft=34;spacingRight=4;overflow=hidden;rotatable=0;points=[[0,0.5],[1,0.5]];portConstraint=eastwest;dropTarget=0;fontStyle=5;fontSize=12;" vertex="1" parent="hB2kX-DM1b2XkG8bsofA-172">
          <mxGeometry y="26" width="160" height="30" as="geometry"/>
        </mxCell>
        <mxCell id="hB2kX-DM1b2XkG8bsofA-174" value="PK" style="shape=partialRectangle;top=0;left=0;bottom=0;fillColor=none;align=left;verticalAlign=middle;spacingLeft=4;spacingRight=4;overflow=hidden;rotatable=0;points=[];portConstraint=eastwest;part=1;fontSize=12;" vertex="1" connectable="0" parent="hB2kX-DM1b2XkG8bsofA-173">
          <mxGeometry width="30" height="30" as="geometry"/>
        </mxCell>
        <mxCell id="hB2kX-DM1b2XkG8bsofA-183" value="IdMeal" style="shape=partialRectangle;top=0;left=0;right=0;bottom=1;html=1;align=left;verticalAlign=middle;fillColor=none;spacingLeft=34;spacingRight=4;whiteSpace=wrap;overflow=hidden;rotatable=0;points=[[0,0.5],[1,0.5]];portConstraint=eastwest;dropTarget=0;fontStyle=5;" vertex="1" parent="hB2kX-DM1b2XkG8bsofA-172">
          <mxGeometry y="56" width="160" height="30" as="geometry"/>
        </mxCell>
        <mxCell id="hB2kX-DM1b2XkG8bsofA-184" value="FK" style="shape=partialRectangle;top=0;left=0;bottom=0;html=1;fillColor=none;align=left;verticalAlign=middle;spacingLeft=4;spacingRight=4;whiteSpace=wrap;overflow=hidden;rotatable=0;points=[];portConstraint=eastwest;part=1;" vertex="1" connectable="0" parent="hB2kX-DM1b2XkG8bsofA-183">
          <mxGeometry width="30" height="30" as="geometry"/>
        </mxCell>
        <mxCell id="hB2kX-DM1b2XkG8bsofA-177" value="Code" style="shape=partialRectangle;top=0;left=0;right=0;bottom=0;align=left;verticalAlign=top;fillColor=none;spacingLeft=34;spacingRight=4;overflow=hidden;rotatable=0;points=[[0,0.5],[1,0.5]];portConstraint=eastwest;dropTarget=0;fontSize=12;" vertex="1" parent="hB2kX-DM1b2XkG8bsofA-172">
          <mxGeometry y="86" width="160" height="26" as="geometry"/>
        </mxCell>
        <mxCell id="hB2kX-DM1b2XkG8bsofA-178" value="" style="shape=partialRectangle;top=0;left=0;bottom=0;fillColor=none;align=left;verticalAlign=top;spacingLeft=4;spacingRight=4;overflow=hidden;rotatable=0;points=[];portConstraint=eastwest;part=1;fontSize=12;" vertex="1" connectable="0" parent="hB2kX-DM1b2XkG8bsofA-177">
          <mxGeometry width="30" height="26" as="geometry"/>
        </mxCell>
        <mxCell id="hB2kX-DM1b2XkG8bsofA-181" value="" style="shape=partialRectangle;top=0;left=0;right=0;bottom=0;align=left;verticalAlign=top;fillColor=none;spacingLeft=34;spacingRight=4;overflow=hidden;rotatable=0;points=[[0,0.5],[1,0.5]];portConstraint=eastwest;dropTarget=0;fontSize=12;" vertex="1" parent="hB2kX-DM1b2XkG8bsofA-172">
          <mxGeometry y="112" width="160" height="10" as="geometry"/>
        </mxCell>
        <mxCell id="hB2kX-DM1b2XkG8bsofA-182" value="" style="shape=partialRectangle;top=0;left=0;bottom=0;fillColor=none;align=left;verticalAlign=top;spacingLeft=4;spacingRight=4;overflow=hidden;rotatable=0;points=[];portConstraint=eastwest;part=1;fontSize=12;" vertex="1" connectable="0" parent="hB2kX-DM1b2XkG8bsofA-181">
          <mxGeometry width="30" height="10" as="geometry"/>
        </mxCell>
        <mxCell id="hB2kX-DM1b2XkG8bsofA-185" value="NameFr" style="shape=partialRectangle;top=0;left=0;right=0;bottom=0;align=left;verticalAlign=top;fillColor=none;spacingLeft=34;spacingRight=4;overflow=hidden;rotatable=0;points=[[0,0.5],[1,0.5]];portConstraint=eastwest;dropTarget=0;fontSize=12;" vertex="1" parent="hB2kX-DM1b2XkG8bsofA-172">
          <mxGeometry y="122" width="160" height="26" as="geometry"/>
        </mxCell>
        <mxCell id="hB2kX-DM1b2XkG8bsofA-186" value="" style="shape=partialRectangle;top=0;left=0;bottom=0;fillColor=none;align=left;verticalAlign=top;spacingLeft=4;spacingRight=4;overflow=hidden;rotatable=0;points=[];portConstraint=eastwest;part=1;fontSize=12;" vertex="1" connectable="0" parent="hB2kX-DM1b2XkG8bsofA-185">
          <mxGeometry width="30" height="26" as="geometry"/>
        </mxCell>
        <mxCell id="hB2kX-DM1b2XkG8bsofA-187" value="NameEng" style="shape=partialRectangle;top=0;left=0;right=0;bottom=0;align=left;verticalAlign=top;fillColor=none;spacingLeft=34;spacingRight=4;overflow=hidden;rotatable=0;points=[[0,0.5],[1,0.5]];portConstraint=eastwest;dropTarget=0;fontSize=12;" vertex="1" parent="hB2kX-DM1b2XkG8bsofA-172">
          <mxGeometry y="148" width="160" height="26" as="geometry"/>
        </mxCell>
        <mxCell id="hB2kX-DM1b2XkG8bsofA-188" value="" style="shape=partialRectangle;top=0;left=0;bottom=0;fillColor=none;align=left;verticalAlign=top;spacingLeft=4;spacingRight=4;overflow=hidden;rotatable=0;points=[];portConstraint=eastwest;part=1;fontSize=12;" vertex="1" connectable="0" parent="hB2kX-DM1b2XkG8bsofA-187">
          <mxGeometry width="30" height="26" as="geometry"/>
        </mxCell>
        <mxCell id="hB2kX-DM1b2XkG8bsofA-190" value="" style="edgeStyle=entityRelationEdgeStyle;fontSize=12;html=1;endArrow=ERzeroToMany;startArrow=ERzeroToOne;" edge="1" parent="1" source="hB2kX-DM1b2XkG8bsofA-148" target="hB2kX-DM1b2XkG8bsofA-173">
          <mxGeometry width="100" height="100" relative="1" as="geometry">
            <mxPoint x="570" y="820" as="sourcePoint"/>
            <mxPoint x="670" y="720" as="targetPoint"/>
          </mxGeometry>
        </mxCell>
        <mxCell id="hB2kX-DM1b2XkG8bsofA-194" value="" style="edgeStyle=entityRelationEdgeStyle;fontSize=12;html=1;endArrow=ERone;endFill=1;" edge="1" parent="1" source="hB2kX-DM1b2XkG8bsofA-187" target="hB2kX-DM1b2XkG8bsofA-119">
          <mxGeometry width="100" height="100" relative="1" as="geometry">
            <mxPoint x="840" y="920" as="sourcePoint"/>
            <mxPoint x="940" y="820" as="targetPoint"/>
          </mxGeometry>
        </mxCell>
      </root>
    </mxGraphModel>
  </diagram>
</mxfile>
